{
classes = (
{
automatic = 1;
code = "A Aacute Acircumflex Adieresis Agrave Aring Atilde AE B C Ccedilla D Eth E Eacute Ecircumflex Edieresis Egrave F G H I Iacute Icircumflex Idieresis Igrave J K L Lslash M N Ntilde O Oacute Ocircumflex Odieresis Ograve Oslash Otilde OE P Thorn Q R S Scaron T U Uacute Ucircumflex Udieresis Ugrave V W X Y Yacute Ydieresis Z Zcaron";
name = Uppercase;
}
);
copyright = "Copyright (c) 2011-2014 by Omnibus-Type (www.omnibus-type.com omnibus.type@gmail.com), with Reserved Font Name 'Chivo'";
customParameters = (
{
name = openTypeNameLicenseURL;
value = "http://scripts.sil.org/OFL";
},
{
name = openTypeNameDescription;
value = "Chivo (Goat) is a new Omnibus-Type grotesque. The strength of Chivo Italic make it ideal for highlights and headlines. Chivo Italic elegance\U00A0makes it ideal for\U00A0combining the strength of\U00A0Chivo family and to use in texts for continuous reading.\U00A0Its\U00A0design\U00A0detail becomes\U00A0an indispensable ally for any designer.";
},
{
name = trademark;
value = "Chivo is a trademark of Omnibus-Type";
},
{
name = openTypeNameLicense;
value = "This Font Software is licensed under the SIL Open Font License, Version 1.1. This license is available with a FAQ at: http://scripts.sil.org/OFL";
},
{
name = openTypeOS2VendorID;
value = OMNI;
}
);
date = "2014-09-03 23:33:06 +0000";
designer = "Hector Gatti";
designerURL = "http://www.omnibus-type.com";
familyName = "Chivo";
featurePrefixes = (
{
automatic = 1;
code = "languagesystem DFLT dflt;\012languagesystem latn dflt;\012languagesystem grek dflt;\012";
name = Languagesystems;
}
);
features = (
{
automatic = 1;
code = "feature frac;\012feature ordn;\012feature sups;";
name = aalt;
},
{
automatic = 1;
code = "sub one by onesuperior;\012sub two by twosuperior;\012sub three by threesuperior;";
name = sups;
},
{
automatic = 1;
code = "sub one slash four by onequarter;\012sub one slash two by onehalf;\012sub three slash four by threequarters;";
name = frac;
},
{

glyphs = (
{
glyphname = A;
lastChange = "2014-09-05 19:01:32 -0800";
layers = (
{
anchors = (
{
name = ogonek;
position = "{585, 10}";
},
{
name = top;
position = "{382, 686}";
}
);
background = {
anchors = (
{
name = ogonek;
position = "{585, 10}";
},
{
name = top;
position = "{325, 686}";
}
);
paths = (
{
closed = 1;
nodes = (
"328 686 LINE",
"-36 0 LINE",
"58 0 LINE",
"136 149 LINE",
"464 149 LINE",
"501 0 LINE",
"607 0 LINE",
"436 686 LINE"
);
},
{
closed = 1;
nodes = (
"443 238 LINE",
"184 238 LINE",
"357 568 LINE",
"363 568 LINE"
);
}
);
};
layerId = UUID0;
name = "Regular Italic";
paths = (
{
closed = 1;
nodes = (
"328 686 LINE",
"-36 0 LINE",
"58 0 LINE",
"136 149 LINE",
"464 149 LINE",
"501 0 LINE",
"607 0 LINE",
"436 686 LINE"
);
},
{
closed = 1;
nodes = (
"443 238 LINE",
"184 238 LINE",
"357 568 LINE",
"363 568 LINE"
);
}
);
width = 650;
}
);
leftKerningGroup = A;
rightKerningGroup = A;
unicode = 0041;
},
{
glyphname = Aacute;
lastChange = "2014-09-05 18:36:11 -0800";
layers = (
{
background = {
paths = (
{
closed = 1;
nodes = (
"328 686 LINE",
"-36 0 LINE",
"58 0 LINE",
"136 149 LINE",
"464 149 LINE",
"501 0 LINE",
"607 0 LINE",
"436 686 LINE"
);
},
{
closed = 1;
nodes = (
"443 238 LINE",
"184 238 LINE",
"357 568 LINE",
"363 568 LINE"
);
},
{
closed = 1;
nodes = (
"465 895 LINE",
"350 750 LINE",
"419 750 LINE",
"555 891 LINE",
"555 895 LINE"
);
}
);
};
layerId = UUID0;
name = "Regular Italic";
paths = (
{
closed = 1;
nodes = (
"328 686 LINE",
"-36 0 LINE",
"58 0 LINE",
"136 149 LINE",
"464 149 LINE",
"501 0 LINE",
"607 0 LINE",
"436 686 LINE"
);
},
{
closed = 1;
nodes = (
"443 238 LINE",
"184 238 LINE",
"357 568 LINE",
"363 568 LINE"
);
},
{
closed = 1;
nodes = (
"465 895 LINE",
"350 750 LINE",
"419 750 LINE",
"555 891 LINE",
"555 895 LINE"
);
}
);
width = 650;
}
);
leftKerningGroup = A;
rightKerningGroup = A;
unicode = 00C1;
},
{
glyphname = Acircumflex;
lastChange = "2014-09-05 18:36:11 -0800";
layers = (
{
background = {
paths = (
{
closed = 1;
nodes = (
"328 686 LINE",
"-36 0 LINE",
"58 0 LINE",
"136 149 LINE",
"464 149 LINE",
"501 0 LINE",
"607 0 LINE",
"436 686 LINE"
);
},
{
closed = 1;
nodes = (
"443 238 LINE",
"184 238 LINE",
"357 568 LINE",
"363 568 LINE"
);
},
{
closed = 1;
nodes = (
"360 895 LINE",
"203 750 LINE",
"283 750 LINE",
"391 839 LINE",
"472 750 LINE",
"552 750 LINE",
"438 895 LINE"
);
}
);
};
layerId = UUID0;
name = "Regular Italic";
paths = (
{
closed = 1;
nodes = (
"328 686 LINE",
"-36 0 LINE",
"58 0 LINE",
"136 149 LINE",
"464 149 LINE",
"501 0 LINE",
"607 0 LINE",
"436 686 LINE"
);
},
{
closed = 1;
nodes = (
"443 238 LINE",
"184 238 LINE",
"357 568 LINE",
"363 568 LINE"
);
},
{
closed = 1;
nodes = (
"360 895 LINE",
"203 750 LINE",
"283 750 LINE",
"391 839 LINE",
"472 750 LINE",
"552 750 LINE",
"438 895 LINE"
);
}
);
width = 650;
}
);
leftKerningGroup = A;
rightKerningGroup = A;
unicode = 00C2;
},
{
glyphname = Adieresis;
lastChange = "2014-09-05 18:36:11 -0800";
layers = (
{
background = {
paths = (
{
closed = 1;
nodes = (
"328 686 LINE",
"-36 0 LINE",
"58 0 LINE",
"136 149 LINE",
"464 149 LINE",
"501 0 LINE",
"607 0 LINE",
"436 686 LINE"
);
},
{
closed = 1;
nodes = (
"443 238 LINE",
"184 238 LINE",
"357 568 LINE",
"363 568 LINE"
);
},
{
closed = 1;
nodes = (
"259 848 LINE",
"246 750 LINE",
"336 750 LINE",
"349 848 LINE"
);
},
{
closed = 1;
nodes = (
"447 848 LINE",
"434 750 LINE",
"525 750 LINE",
"538 848 LINE"
);
}
);
};
layerId = UUID0;
name = "Regular Italic";
paths = (
{
closed = 1;
nodes = (
"328 686 LINE",
"-36 0 LINE",
"58 0 LINE",
"136 149 LINE",
"464 149 LINE",
"501 0 LINE",
"607 0 LINE",
"436 686 LINE"
);
},
{
closed = 1;
nodes = (
"443 238 LINE",
"184 238 LINE",
"357 568 LINE",
"363 568 LINE"
);
},
{
closed = 1;
nodes = (
"259 848 LINE",
"246 750 LINE",
"336 750 LINE",
"349 848 LINE"
);
},
{
closed = 1;
nodes = (
"447 848 LINE",
"434 750 LINE",
"525 750 LINE",
"538 848 LINE"
);
}
);
width = 650;
}
);
leftKerningGroup = A;
rightKerningGroup = A;
unicode = 00C4;
},
{
glyphname = Agrave;
lastChange = "2014-09-05 18:36:11 -0800";
layers = (
{
background = {
paths = (
{
closed = 1;
nodes = (
"328 686 LINE",
"-36 0 LINE",
"58 0 LINE",
"136 149 LINE",
"464 149 LINE",
"501 0 LINE",
"607 0 LINE",
"436 686 LINE"
);
},
{
closed = 1;
nodes = (
"443 238 LINE",
"184 238 LINE",
"357 568 LINE",
"363 568 LINE"
);
},
{
closed = 1;
nodes = (
"258 895 LINE",
"256 892 LINE",
"351 750 LINE",
"421 750 LINE",
"347 895 LINE"
);
}
);
};
layerId = UUID0;
name = "Regular Italic";
paths = (
{
closed = 1;
nodes = (
"328 686 LINE",
"-36 0 LINE",
"58 0 LINE",
"136 149 LINE",
"464 149 LINE",
"501 0 LINE",
"607 0 LINE",
"436 686 LINE"
);
},
{
closed = 1;
nodes = (
"443 238 LINE",
"184 238 LINE",
"357 568 LINE",
"363 568 LINE"
);
},
{
closed = 1;
nodes = (
"258 895 LINE",
"256 892 LINE",
"351 750 LINE",
"421 750 LINE",
"347 895 LINE"
);
}
);
width = 650;
}
);
leftKerningGroup = A;
rightKerningGroup = A;
unicode = 00C0;
},
{
glyphname = Aring;
lastChange = "2014-09-05 18:36:11 -0800";
layers = (
{
background = {
paths = (
{
closed = 1;
nodes = (
"328 686 LINE",
"-36 0 LINE",
"58 0 LINE",
"136 149 LINE",
"464 149 LINE",
"501 0 LINE",
"607 0 LINE",
"436 686 LINE"
);
},
{
closed = 1;
nodes = (
"443 238 LINE",
"184 238 LINE",
"357 568 LINE",
"363 568 LINE"
);
},
{
closed = 1;
nodes = (
"345 922 OFFCURVE",
"291 878 OFFCURVE",
"291 814 CURVE SMOOTH",
"291 758 OFFCURVE",
"331 720 OFFCURVE",
"387 720 CURVE SMOOTH",
"443 720 OFFCURVE",
"496 768 OFFCURVE",
"496 828 CURVE SMOOTH",
"496 883 OFFCURVE",
"456 922 OFFCURVE",
"400 922 CURVE SMOOTH"
);
},
{
closed = 1;
nodes = (
"429 881 OFFCURVE",
"451 856 OFFCURVE",
"451 825 CURVE SMOOTH",
"451 789 OFFCURVE",
"421 761 OFFCURVE",
"390 761 CURVE SMOOTH",
"358 761 OFFCURVE",
"336 786 OFFCURVE",
"336 817 CURVE SMOOTH",
"336 854 OFFCURVE",
"365 881 OFFCURVE",
"397 881 CURVE SMOOTH"
);
}
);
};
layerId = UUID0;
name = "Regular Italic";
paths = (
{
closed = 1;
nodes = (
"328 686 LINE",
"-36 0 LINE",
"58 0 LINE",
"136 149 LINE",
"464 149 LINE",
"501 0 LINE",
"607 0 LINE",
"436 686 LINE"
);
},
{
closed = 1;
nodes = (
"443 238 LINE",
"184 238 LINE",
"357 568 LINE",
"363 568 LINE"
);
},
{
closed = 1;
nodes = (
"345 922 OFFCURVE",
"291 878 OFFCURVE",
"291 814 CURVE SMOOTH",
"291 758 OFFCURVE",
"331 720 OFFCURVE",
"387 720 CURVE SMOOTH",
"443 720 OFFCURVE",
"496 768 OFFCURVE",
"496 828 CURVE SMOOTH",
"496 883 OFFCURVE",
"456 922 OFFCURVE",
"400 922 CURVE SMOOTH"
);
},
{
closed = 1;
nodes = (
"429 881 OFFCURVE",
"451 856 OFFCURVE",
"451 825 CURVE SMOOTH",
"451 789 OFFCURVE",
"421 761 OFFCURVE",
"390 761 CURVE SMOOTH",
"358 761 OFFCURVE",
"336 786 OFFCURVE",
"336 817 CURVE SMOOTH",
"336 854 OFFCURVE",
"365 881 OFFCURVE",
"397 881 CURVE SMOOTH"
);
}
);
width = 650;
}
);
leftKerningGroup = A;
rightKerningGroup = A;
unicode = 00C5;
},
{
glyphname = Atilde;
lastChange = "2014-09-05 18:36:11 -0800";
layers = (
{
background = {
paths = (
{
closed = 1;
nodes = (
"328 686 LINE",
"-36 0 LINE",
"58 0 LINE",
"136 149 LINE",
"464 149 LINE",
"501 0 LINE",
"607 0 LINE",
"436 686 LINE"
);
},
{
closed = 1;
nodes = (
"443 238 LINE",
"184 238 LINE",
"357 568 LINE",
"363 568 LINE"
);
},
{
closed = 1;
nodes = (
"536 854 LINE",
"526 831 OFFCURVE",
"506 819 OFFCURVE",
"476 819 CURVE SMOOTH",
"423 819 OFFCURVE",
"377 854 OFFCURVE",
"313 854 CURVE SMOOTH",
"235 854 OFFCURVE",
"195 795 OFFCURVE",
"187 750 CURVE",
"235 750 LINE",
"245 773 OFFCURVE",
"265 784 OFFCURVE",
"295 784 CURVE SMOOTH",
"349 784 OFFCURVE",
"395 750 OFFCURVE",
"459 750 CURVE SMOOTH",
"537 750 OFFCURVE",
"578 806 OFFCURVE",
"586 854 CURVE"
);
}
);
};
layerId = UUID0;
name = "Regular Italic";
paths = (
{
closed = 1;
nodes = (
"328 686 LINE",
"-36 0 LINE",
"58 0 LINE",
"136 149 LINE",
"464 149 LINE",
"501 0 LINE",
"607 0 LINE",
"436 686 LINE"
);
},
{
closed = 1;
nodes = (
"443 238 LINE",
"184 238 LINE",
"357 568 LINE",
"363 568 LINE"
);
},
{
closed = 1;
nodes = (
"536 854 LINE",
"526 831 OFFCURVE",
"506 819 OFFCURVE",
"476 819 CURVE SMOOTH",
"423 819 OFFCURVE",
"377 854 OFFCURVE",
"313 854 CURVE SMOOTH",
"235 854 OFFCURVE",
"195 795 OFFCURVE",
"187 750 CURVE",
"235 750 LINE",
"245 773 OFFCURVE",
"265 784 OFFCURVE",
"295 784 CURVE SMOOTH",
"349 784 OFFCURVE",
"395 750 OFFCURVE",
"459 750 CURVE SMOOTH",
"537 750 OFFCURVE",
"578 806 OFFCURVE",
"586 854 CURVE"
);
}
);
width = 650;
}
);
leftKerningGroup = A;
rightKerningGroup = A;
unicode = 00C3;
},
{
glyphname = AE;
lastChange = "2014-09-05 19:01:41 -0800";
layers = (
{
anchors = (
{
name = top;
position = "{541, 686}";
}
);
background = {
anchors = (
{
name = top;
position = "{491, 686}";
}
);
paths = (
{
closed = 1;
nodes = (
"426 686 LINE",
"-33 0 LINE",
"59 0 LINE",
"158 149 LINE",
"486 149 LINE",
"502 0 LINE",
"896 0 LINE",
"896 89 LINE",
"598 89 LINE",
"574 306 LINE",
"888 306 LINE",
"901 395 LINE",
"565 395 LINE",
"543 597 LINE",
"961 597 LINE",
"987 686 LINE"
);
},
{
closed = 1;
nodes = (
"478 238 LINE",
"219 238 LINE",
"438 568 LINE",
"444 568 LINE"
);
}
);
};
layerId = UUID0;
name = "Regular Italic";
paths = (
{
closed = 1;
nodes = (
"426 686 LINE",
"-33 0 LINE",
"59 0 LINE",
"158 149 LINE",
"486 149 LINE",
"502 0 LINE",
"896 0 LINE",
"896 89 LINE",
"598 89 LINE",
"574 306 LINE",
"888 306 LINE",
"901 395 LINE",
"565 395 LINE",
"543 597 LINE",
"961 597 LINE",
"987 686 LINE"
);
},
{
closed = 1;
nodes = (
"478 238 LINE",
"219 238 LINE",
"438 568 LINE",
"444 568 LINE"
);
}
);
width = 981;
}
);
rightKerningGroup = E;
unicode = 00C6;
},
{
glyphname = B;
lastChange = "2014-09-05 18:36:11 -0800";
layers = (
{
background = {
paths = (
{
closed = 1;
nodes = (
"148 686 LINE",
"51 0 LINE",
"361 0 LINE SMOOTH",
"478 0 OFFCURVE",
"579 81 OFFCURVE",
"579 214 CURVE SMOOTH",
"579 314 OFFCURVE",
"507 345 OFFCURVE",
"465 353 CURVE",
"466 358 LINE",
"525 374 OFFCURVE",
"609 422 OFFCURVE",
"609 540 CURVE SMOOTH",
"609 631 OFFCURVE",
"536 686 OFFCURVE",
"440 686 CURVE SMOOTH"
);
},
{
closed = 1;
nodes = (
"444 305 OFFCURVE",
"482 265 OFFCURVE",
"482 212 CURVE SMOOTH",
"482 129 OFFCURVE",
"423 89 OFFCURVE",
"358 89 CURVE SMOOTH",
"162 89 LINE",
"192 305 LINE",
"388 305 LINE SMOOTH"
);
},
{
closed = 1;
nodes = (
"470 597 OFFCURVE",
"508 573 OFFCURVE",
"508 509 CURVE SMOOTH",
"508 447 OFFCURVE",
"451 394 OFFCURVE",
"391 394 CURVE SMOOTH",
"205 394 LINE",
"233 597 LINE",
"419 597 LINE SMOOTH"
);
}
);
};
layerId = UUID0;
name = "Regular Italic";
paths = (
{
closed = 1;
nodes = (
"148 686 LINE",
"51 0 LINE",
"361 0 LINE SMOOTH",
"478 0 OFFCURVE",
"579 81 OFFCURVE",
"579 214 CURVE SMOOTH",
"579 314 OFFCURVE",
"507 345 OFFCURVE",
"465 353 CURVE",
"466 358 LINE",
"525 374 OFFCURVE",
"609 422 OFFCURVE",
"609 540 CURVE SMOOTH",
"609 631 OFFCURVE",
"536 686 OFFCURVE",
"440 686 CURVE SMOOTH"
);
},
{
closed = 1;
nodes = (
"444 305 OFFCURVE",
"482 265 OFFCURVE",
"482 212 CURVE SMOOTH",
"482 129 OFFCURVE",
"423 89 OFFCURVE",
"358 89 CURVE SMOOTH",
"162 89 LINE",
"192 305 LINE",
"388 305 LINE SMOOTH"
);
},
{
closed = 1;
nodes = (
"470 597 OFFCURVE",
"508 573 OFFCURVE",
"508 509 CURVE SMOOTH",
"508 447 OFFCURVE",
"451 394 OFFCURVE",
"391 394 CURVE SMOOTH",
"205 394 LINE",
"233 597 LINE",
"419 597 LINE SMOOTH"
);
}
);
width = 652;
}
);
leftKerningGroup = B;
unicode = 0042;
},
{
glyphname = C;
lastChange = "2014-09-05 19:01:45 -0800";
layers = (
{
anchors = (
{
name = bottom;
position = "{331, 0}";
},
{
name = top;
position = "{381, 686}";
}
);
background = {
anchors = (
{
name = top;
position = "{331, 686}";
},
{
name = bottom;
position = "{331, 0}";
}
);
paths = (
{
closed = 1;
nodes = (
"225 696 OFFCURVE",
"105 597 OFFCURVE",
"75 388 CURVE SMOOTH",
"58 275 OFFCURVE",
"57 253 OFFCURVE",
"57 232 CURVE SMOOTH",
"57 69 OFFCURVE",
"156 -10 OFFCURVE",
"301 -10 CURVE SMOOTH",
"459 -10 OFFCURVE",
"577 74 OFFCURVE",
"604 261 CURVE",
"510 261 LINE",
"492 134 OFFCURVE",
"412 79 OFFCURVE",
"313 79 CURVE SMOOTH",
"217 79 OFFCURVE",
"156 126 OFFCURVE",
"156 241 CURVE SMOOTH",
"156 258 OFFCURVE",
"157 279 OFFCURVE",
"173 388 CURVE SMOOTH",
"195 544 OFFCURVE",
"279 607 OFFCURVE",
"388 607 CURVE SMOOTH",
"473 607 OFFCURVE",
"532 565 OFFCURVE",
"532 466 CURVE SMOOTH",
"532 452 OFFCURVE",
"531 438 OFFCURVE",
"529 423 CURVE",
"627 423 LINE",
"630 442 OFFCURVE",
"631 460 OFFCURVE",
"631 477 CURVE SMOOTH",
"631 624 OFFCURVE",
"533 696 OFFCURVE",
"400 696 CURVE SMOOTH"
);
}
);
};
layerId = UUID0;
name = "Regular Italic";
paths = (
{
closed = 1;
nodes = (
"225 696 OFFCURVE",
"105 597 OFFCURVE",
"75 388 CURVE SMOOTH",
"58 275 OFFCURVE",
"57 253 OFFCURVE",
"57 232 CURVE SMOOTH",
"57 69 OFFCURVE",
"156 -10 OFFCURVE",
"301 -10 CURVE SMOOTH",
"459 -10 OFFCURVE",
"577 74 OFFCURVE",
"604 261 CURVE",
"510 261 LINE",
"492 134 OFFCURVE",
"412 79 OFFCURVE",
"313 79 CURVE SMOOTH",
"217 79 OFFCURVE",
"156 126 OFFCURVE",
"156 241 CURVE SMOOTH",
"156 258 OFFCURVE",
"157 279 OFFCURVE",
"173 388 CURVE SMOOTH",
"195 544 OFFCURVE",
"279 607 OFFCURVE",
"388 607 CURVE SMOOTH",
"473 607 OFFCURVE",
"532 565 OFFCURVE",
"532 466 CURVE SMOOTH",
"532 452 OFFCURVE",
"531 438 OFFCURVE",
"529 423 CURVE",
"627 423 LINE",
"630 442 OFFCURVE",
"631 460 OFFCURVE",
"631 477 CURVE SMOOTH",
"631 624 OFFCURVE",
"533 696 OFFCURVE",
"400 696 CURVE SMOOTH"
);
}
);
width = 662;
}
);
leftKerningGroup = C;
rightKerningGroup = C;
unicode = 0043;
},
{
glyphname = Ccedilla;
lastChange = "2014-09-05 18:36:11 -0800";
layers = (
{
background = {
paths = (
{
closed = 1;
nodes = (
"225 696 OFFCURVE",
"105 597 OFFCURVE",
"75 388 CURVE SMOOTH",
"58 275 OFFCURVE",
"57 253 OFFCURVE",
"57 232 CURVE SMOOTH",
"57 69 OFFCURVE",
"156 -10 OFFCURVE",
"301 -10 CURVE SMOOTH",
"459 -10 OFFCURVE",
"577 74 OFFCURVE",
"604 261 CURVE",
"510 261 LINE",
"492 134 OFFCURVE",
"412 79 OFFCURVE",
"313 79 CURVE SMOOTH",
"217 79 OFFCURVE",
"156 126 OFFCURVE",
"156 241 CURVE SMOOTH",
"156 258 OFFCURVE",
"157 279 OFFCURVE",
"173 388 CURVE SMOOTH",
"195 544 OFFCURVE",
"279 607 OFFCURVE",
"388 607 CURVE SMOOTH",
"473 607 OFFCURVE",
"532 565 OFFCURVE",
"532 466 CURVE SMOOTH",
"532 452 OFFCURVE",
"531 438 OFFCURVE",
"529 423 CURVE",
"627 423 LINE",
"630 442 OFFCURVE",
"631 460 OFFCURVE",
"631 477 CURVE SMOOTH",
"631 624 OFFCURVE",
"533 696 OFFCURVE",
"400 696 CURVE SMOOTH"
);
},
{
closed = 1;
nodes = (
"259 -17 LINE",
"253 -60 LINE",
"274 -60 LINE SMOOTH",
"301 -60 OFFCURVE",
"320 -72 OFFCURVE",
"320 -95 CURVE SMOOTH",
"320 -131 OFFCURVE",
"289 -146 OFFCURVE",
"257 -146 CURVE SMOOTH",
"214 -146 OFFCURVE",
"187 -131 OFFCURVE",
"178 -126 CURVE",
"162 -175 LINE",
"187 -190 OFFCURVE",
"222 -197 OFFCURVE",
"254 -197 CURVE SMOOTH",
"300 -197 OFFCURVE",
"383 -176 OFFCURVE",
"383 -90 CURVE SMOOTH",
"383 -32 OFFCURVE",
"334 -17 OFFCURVE",
"283 -17 CURVE SMOOTH"
);
}
);
};
layerId = UUID0;
name = "Regular Italic";
paths = (
{
closed = 1;
nodes = (
"225 696 OFFCURVE",
"105 597 OFFCURVE",
"75 388 CURVE SMOOTH",
"58 275 OFFCURVE",
"57 253 OFFCURVE",
"57 232 CURVE SMOOTH",
"57 69 OFFCURVE",
"156 -10 OFFCURVE",
"301 -10 CURVE SMOOTH",
"459 -10 OFFCURVE",
"577 74 OFFCURVE",
"604 261 CURVE",
"510 261 LINE",
"492 134 OFFCURVE",
"412 79 OFFCURVE",
"313 79 CURVE SMOOTH",
"217 79 OFFCURVE",
"156 126 OFFCURVE",
"156 241 CURVE SMOOTH",
"156 258 OFFCURVE",
"157 279 OFFCURVE",
"173 388 CURVE SMOOTH",
"195 544 OFFCURVE",
"279 607 OFFCURVE",
"388 607 CURVE SMOOTH",
"473 607 OFFCURVE",
"532 565 OFFCURVE",
"532 466 CURVE SMOOTH",
"532 452 OFFCURVE",
"531 438 OFFCURVE",
"529 423 CURVE",
"627 423 LINE",
"630 442 OFFCURVE",
"631 460 OFFCURVE",
"631 477 CURVE SMOOTH",
"631 624 OFFCURVE",
"533 696 OFFCURVE",
"400 696 CURVE SMOOTH"
);
},
{
closed = 1;
nodes = (
"259 -17 LINE",
"253 -60 LINE",
"274 -60 LINE SMOOTH",
"301 -60 OFFCURVE",
"320 -72 OFFCURVE",
"320 -95 CURVE SMOOTH",
"320 -131 OFFCURVE",
"289 -146 OFFCURVE",
"257 -146 CURVE SMOOTH",
"214 -146 OFFCURVE",
"187 -131 OFFCURVE",
"178 -126 CURVE",
"162 -175 LINE",
"187 -190 OFFCURVE",
"222 -197 OFFCURVE",
"254 -197 CURVE SMOOTH",
"300 -197 OFFCURVE",
"383 -176 OFFCURVE",
"383 -90 CURVE SMOOTH",
"383 -32 OFFCURVE",
"334 -17 OFFCURVE",
"283 -17 CURVE SMOOTH"
);
}
);
width = 662;
}
);
leftKerningGroup = C;
rightKerningGroup = C;
unicode = 00C7;
},
{
glyphname = D;
lastChange = "2014-09-05 18:36:11 -0800";
layers = (
{
anchors = (
{
name = center;
position = "{339, 343}";
},
{
name = top;
position = "{339, 686}";
}
);
background = {
anchors = (
{
name = center;
position = "{339, 343}";
},
{
name = top;
position = "{339, 686}";
}
);
paths = (
{
closed = 1;
nodes = (
"148 686 LINE",
"51 0 LINE",
"289 0 LINE SMOOTH",
"470 0 OFFCURVE",
"593 99 OFFCURVE",
"618 308 CURVE SMOOTH",
"629 402 OFFCURVE",
"631 421 OFFCURVE",
"631 442 CURVE SMOOTH",
"631 607 OFFCURVE",
"526 686 OFFCURVE",
"386 686 CURVE SMOOTH"
);
},
{
closed = 1;
nodes = (
"467 597 OFFCURVE",
"532 548 OFFCURVE",
"532 432 CURVE SMOOTH",
"532 415 OFFCURVE",
"530 397 OFFCURVE",
"519 308 CURVE",
"498 152 OFFCURVE",
"408 89 OFFCURVE",
"302 89 CURVE SMOOTH",
"162 89 LINE",
"233 597 LINE",
"373 597 LINE SMOOTH"
);
}
);
};
layerId = UUID0;
name = "Regular Italic";
paths = (
{
closed = 1;
nodes = (
"148 686 LINE",
"51 0 LINE",
"289 0 LINE SMOOTH",
"470 0 OFFCURVE",
"593 99 OFFCURVE",
"618 308 CURVE SMOOTH",
"629 402 OFFCURVE",
"631 421 OFFCURVE",
"631 442 CURVE SMOOTH",
"631 607 OFFCURVE",
"526 686 OFFCURVE",
"386 686 CURVE SMOOTH"
);
},
{
closed = 1;
nodes = (
"467 597 OFFCURVE",
"532 548 OFFCURVE",
"532 432 CURVE SMOOTH",
"532 415 OFFCURVE",
"530 397 OFFCURVE",
"519 308 CURVE",
"498 152 OFFCURVE",
"408 89 OFFCURVE",
"302 89 CURVE SMOOTH",
"162 89 LINE",
"233 597 LINE",
"373 597 LINE SMOOTH"
);
}
);
width = 677;
}
);
leftKerningGroup = B;
rightKerningGroup = D;
unicode = 0044;
},
{
glyphname = Eth;
lastChange = "2014-09-05 18:36:11 -0800";
layers = (
{
background = {
paths = (
{
closed = 1;
nodes = (
"153 686 LINE",
"109 375 LINE",
"18 375 LINE",
"10 310 LINE",
"100 310 LINE",
"56 0 LINE",
"294 0 LINE SMOOTH",
"475 0 OFFCURVE",
"598 99 OFFCURVE",
"623 308 CURVE SMOOTH",
"634 402 OFFCURVE",
"636 421 OFFCURVE",
"636 442 CURVE SMOOTH",
"636 607 OFFCURVE",
"531 686 OFFCURVE",
"391 686 CURVE SMOOTH"
);
},
{
closed = 1;
nodes = (
"472 597 OFFCURVE",
"537 548 OFFCURVE",
"537 432 CURVE SMOOTH",
"537 415 OFFCURVE",
"535 397 OFFCURVE",
"524 308 CURVE",
"503 152 OFFCURVE",
"413 89 OFFCURVE",
"307 89 CURVE SMOOTH",
"167 89 LINE",
"198 310 LINE",
"343 310 LINE",
"352 375 LINE",
"207 375 LINE",
"238 597 LINE",
"378 597 LINE SMOOTH"
);
}
);
};
layerId = UUID0;
name = "Regular Italic";
paths = (
{
closed = 1;
nodes = (
"153 686 LINE",
"109 375 LINE",
"18 375 LINE",
"10 310 LINE",
"100 310 LINE",
"56 0 LINE",
"294 0 LINE SMOOTH",
"475 0 OFFCURVE",
"598 99 OFFCURVE",
"623 308 CURVE SMOOTH",
"634 402 OFFCURVE",
"636 421 OFFCURVE",
"636 442 CURVE SMOOTH",
"636 607 OFFCURVE",
"531 686 OFFCURVE",
"391 686 CURVE SMOOTH"
);
},
{
closed = 1;
nodes = (
"472 597 OFFCURVE",
"537 548 OFFCURVE",
"537 432 CURVE SMOOTH",
"537 415 OFFCURVE",
"535 397 OFFCURVE",
"524 308 CURVE",
"503 152 OFFCURVE",
"413 89 OFFCURVE",
"307 89 CURVE SMOOTH",
"167 89 LINE",
"198 310 LINE",
"343 310 LINE",
"352 375 LINE",
"207 375 LINE",
"238 597 LINE",
"378 597 LINE SMOOTH"
);
}
);
width = 682;
}
);
leftKerningGroup = B;
rightKerningGroup = D;
unicode = 00D0;
},
{
glyphname = E;
lastChange = "2014-09-05 19:01:58 -0800";
layers = (
{
anchors = (
{
name = bottom;
position = "{296, 0}";
},
{
name = ogonek;
position = "{503, 10}";
},
{
name = top;
position = "{356, 686}";
}
);
background = {
anchors = (
{
name = ogonek;
position = "{533, 10}";
},
{
name = bottom;
position = "{296, 0}";
},
{
name = top;
position = "{296, 686}";
}
);
paths = (
{
closed = 1;
nodes = (
"148 686 LINE",
"51 0 LINE",
"507 0 LINE",
"507 89 LINE",
"162 89 LINE",
"192 306 LINE",
"499 306 LINE",
"512 395 LINE",
"205 395 LINE",
"233 597 LINE",
"572 597 LINE",
"598 686 LINE"
);
}
);
};
layerId = UUID0;
name = "Regular Italic";
paths = (
{
closed = 1;
nodes = (
"148 686 LINE",
"51 0 LINE",
"507 0 LINE",
"507 89 LINE",
"162 89 LINE",
"192 306 LINE",
"499 306 LINE",
"512 395 LINE",
"205 395 LINE",
"233 597 LINE",
"572 597 LINE",
"598 686 LINE"
);
}
);
width = 592;
}
);
leftKerningGroup = B;
rightKerningGroup = E;
unicode = 0045;
},
{
glyphname = Eacute;
lastChange = "2014-09-05 18:36:11 -0800";
layers = (
{
background = {
paths = (
{
closed = 1;
nodes = (
"148 686 LINE",
"51 0 LINE",
"507 0 LINE",
"507 89 LINE",
"162 89 LINE",
"192 306 LINE",
"499 306 LINE",
"512 395 LINE",
"205 395 LINE",
"233 597 LINE",
"572 597 LINE",
"598 686 LINE"
);
},
{
closed = 1;
nodes = (
"448 895 LINE",
"333 750 LINE",
"402 750 LINE",
"538 891 LINE",
"538 895 LINE"
);
}
);
};
layerId = UUID0;
name = "Regular Italic";
paths = (
{
closed = 1;
nodes = (
"148 686 LINE",
"51 0 LINE",
"507 0 LINE",
"507 89 LINE",
"162 89 LINE",
"192 306 LINE",
"499 306 LINE",
"512 395 LINE",
"205 395 LINE",
"233 597 LINE",
"572 597 LINE",
"598 686 LINE"
);
},
{
closed = 1;
nodes = (
"448 895 LINE",
"333 750 LINE",
"402 750 LINE",
"538 891 LINE",
"538 895 LINE"
);
}
);
width = 592;
}
);
leftKerningGroup = B;
rightKerningGroup = E;
unicode = 00C9;
},
{
glyphname = Ecircumflex;
lastChange = "2014-09-05 18:36:11 -0800";
layers = (
{
background = {
paths = (
{
closed = 1;
nodes = (
"148 686 LINE",
"51 0 LINE",
"507 0 LINE",
"507 89 LINE",
"162 89 LINE",
"192 306 LINE",
"499 306 LINE",
"512 395 LINE",
"205 395 LINE",
"233 597 LINE",
"572 597 LINE",
"598 686 LINE"
);
},
{
closed = 1;
nodes = (
"362 895 LINE",
"205 750 LINE",
"285 750 LINE",
"393 839 LINE",
"474 750 LINE",
"554 750 LINE",
"440 895 LINE"
);
}
);
};
layerId = UUID0;
name = "Regular Italic";
paths = (
{
closed = 1;
nodes = (
"148 686 LINE",
"51 0 LINE",
"507 0 LINE",
"507 89 LINE",
"162 89 LINE",
"192 306 LINE",
"499 306 LINE",
"512 395 LINE",
"205 395 LINE",
"233 597 LINE",
"572 597 LINE",
"598 686 LINE"
);
},
{
closed = 1;
nodes = (
"362 895 LINE",
"205 750 LINE",
"285 750 LINE",
"393 839 LINE",
"474 750 LINE",
"554 750 LINE",
"440 895 LINE"
);
}
);
width = 592;
}
);
leftKerningGroup = B;
rightKerningGroup = E;
unicode = 00CA;
},
{
glyphname = Edieresis;
lastChange = "2014-09-05 18:36:11 -0800";
layers = (
{
background = {
paths = (
{
closed = 1;
nodes = (
"148 686 LINE",
"51 0 LINE",
"507 0 LINE",
"507 89 LINE",
"162 89 LINE",
"192 306 LINE",
"499 306 LINE",
"512 395 LINE",
"205 395 LINE",
"233 597 LINE",
"572 597 LINE",
"598 686 LINE"
);
},
{
closed = 1;
nodes = (
"250 848 LINE",
"237 750 LINE",
"327 750 LINE",
"340 848 LINE"
);
},
{
closed = 1;
nodes = (
"438 848 LINE",
"425 750 LINE",
"516 750 LINE",
"529 848 LINE"
);
}
);
};
layerId = UUID0;
name = "Regular Italic";
paths = (
{
closed = 1;
nodes = (
"148 686 LINE",
"51 0 LINE",
"507 0 LINE",
"507 89 LINE",
"162 89 LINE",
"192 306 LINE",
"499 306 LINE",
"512 395 LINE",
"205 395 LINE",
"233 597 LINE",
"572 597 LINE",
"598 686 LINE"
);
},
{
closed = 1;
nodes = (
"250 848 LINE",
"237 750 LINE",
"327 750 LINE",
"340 848 LINE"
);
},
{
closed = 1;
nodes = (
"438 848 LINE",
"425 750 LINE",
"516 750 LINE",
"529 848 LINE"
);
}
);
width = 592;
}
);
leftKerningGroup = B;
rightKerningGroup = E;
unicode = 00CB;
},
{
glyphname = Egrave;
lastChange = "2014-09-05 18:36:11 -0800";
layers = (
{
background = {
paths = (
{
closed = 1;
nodes = (
"148 686 LINE",
"51 0 LINE",
"507 0 LINE",
"507 89 LINE",
"162 89 LINE",
"192 306 LINE",
"499 306 LINE",
"512 395 LINE",
"205 395 LINE",
"233 597 LINE",
"572 597 LINE",
"598 686 LINE"
);
},
{
closed = 1;
nodes = (
"258 895 LINE",
"256 892 LINE",
"351 750 LINE",
"421 750 LINE",
"347 895 LINE"
);
}
);
};
layerId = UUID0;
name = "Regular Italic";
paths = (
{
closed = 1;
nodes = (
"148 686 LINE",
"51 0 LINE",
"507 0 LINE",
"507 89 LINE",
"162 89 LINE",
"192 306 LINE",
"499 306 LINE",
"512 395 LINE",
"205 395 LINE",
"233 597 LINE",
"572 597 LINE",
"598 686 LINE"
);
},
{
closed = 1;
nodes = (
"258 895 LINE",
"256 892 LINE",
"351 750 LINE",
"421 750 LINE",
"347 895 LINE"
);
}
);
width = 592;
}
);
leftKerningGroup = B;
rightKerningGroup = E;
unicode = 00C8;
},
{
glyphname = F;
lastChange = "2014-09-05 18:36:11 -0800";
layers = (
{
background = {
paths = (
{
closed = 1;
nodes = (
"148 686 LINE",
"51 0 LINE",
"149 0 LINE",
"191 299 LINE",
"471 299 LINE",
"484 388 LINE",
"204 388 LINE",
"233 597 LINE",
"554 597 LINE",
"580 686 LINE"
);
}
);
};
layerId = UUID0;
name = "Regular Italic";
paths = (
{
closed = 1;
nodes = (
"148 686 LINE",
"51 0 LINE",
"149 0 LINE",
"191 299 LINE",
"471 299 LINE",
"484 388 LINE",
"204 388 LINE",
"233 597 LINE",
"554 597 LINE",
"580 686 LINE"
);
}
);
width = 552;
}
);
leftKerningGroup = B;
unicode = 0046;
},
{
glyphname = G;
lastChange = "2014-09-05 19:02:07 -0800";
layers = (
{
anchors = (
{
name = bottom;
position = "{338, 0}";
},
{
name = top;
position = "{388, 686}";
}
);
background = {
anchors = (
{
name = top;
position = "{338, 686}";
},
{
name = bottom;
position = "{338, 0}";
}
);
paths = (
{
closed = 1;
nodes = (
"221 696 OFFCURVE",
"105 597 OFFCURVE",
"75 388 CURVE SMOOTH",
"58 275 OFFCURVE",
"57 253 OFFCURVE",
"57 232 CURVE SMOOTH",
"57 69 OFFCURVE",
"156 -10 OFFCURVE",
"301 -10 CURVE SMOOTH",
"382 -10 OFFCURVE",
"453 21 OFFCURVE",
"505 82 CURVE",
"506 35 OFFCURVE",
"510 8 OFFCURVE",
"513 0 CURVE",
"571 0 LINE",
"571 25 OFFCURVE",
"572 66 OFFCURVE",
"583 128 CURVE",
"616 362 LINE",
"326 362 LINE",
"314 274 LINE",
"508 274 LINE",
"506 261 LINE SMOOTH",
"486 133 OFFCURVE",
"429 79 OFFCURVE",
"313 79 CURVE SMOOTH",
"217 79 OFFCURVE",
"156 126 OFFCURVE",
"156 241 CURVE SMOOTH",
"156 258 OFFCURVE",
"157 279 OFFCURVE",
"173 388 CURVE SMOOTH",
"195 544 OFFCURVE",
"279 607 OFFCURVE",
"388 607 CURVE SMOOTH",
"471 607 OFFCURVE",
"532 569 OFFCURVE",
"532 478 CURVE SMOOTH",
"532 467 OFFCURVE",
"531 456 OFFCURVE",
"530 445 CURVE",
"628 445 LINE",
"630 460 OFFCURVE",
"631 474 OFFCURVE",
"631 489 CURVE SMOOTH",
"631 627 OFFCURVE",
"530 696 OFFCURVE",
"400 696 CURVE SMOOTH"
);
}
);
};
layerId = UUID0;
name = "Regular Italic";
paths = (
{
closed = 1;
nodes = (
"221 696 OFFCURVE",
"105 597 OFFCURVE",
"75 388 CURVE SMOOTH",
"58 275 OFFCURVE",
"57 253 OFFCURVE",
"57 232 CURVE SMOOTH",
"57 69 OFFCURVE",
"156 -10 OFFCURVE",
"301 -10 CURVE SMOOTH",
"382 -10 OFFCURVE",
"453 21 OFFCURVE",
"505 82 CURVE",
"506 35 OFFCURVE",
"510 8 OFFCURVE",
"513 0 CURVE",
"571 0 LINE",
"571 25 OFFCURVE",
"572 66 OFFCURVE",
"583 128 CURVE",
"616 362 LINE",
"326 362 LINE",
"314 274 LINE",
"508 274 LINE",
"506 261 LINE SMOOTH",
"486 133 OFFCURVE",
"429 79 OFFCURVE",
"313 79 CURVE SMOOTH",
"217 79 OFFCURVE",
"156 126 OFFCURVE",
"156 241 CURVE SMOOTH",
"156 258 OFFCURVE",
"157 279 OFFCURVE",
"173 388 CURVE SMOOTH",
"195 544 OFFCURVE",
"279 607 OFFCURVE",
"388 607 CURVE SMOOTH",
"471 607 OFFCURVE",
"532 569 OFFCURVE",
"532 478 CURVE SMOOTH",
"532 467 OFFCURVE",
"531 456 OFFCURVE",
"530 445 CURVE",
"628 445 LINE",
"630 460 OFFCURVE",
"631 474 OFFCURVE",
"631 489 CURVE SMOOTH",
"631 627 OFFCURVE",
"530 696 OFFCURVE",
"400 696 CURVE SMOOTH"
);
}
);
width = 675;
}
);
leftKerningGroup = C;
unicode = 0047;
},
{
glyphname = H;
lastChange = "2014-09-05 19:02:12 -0800";
layers = (
{
anchors = (
{
name = center;
position = "{347, 343}";
},
{
name = top;
position = "{403, 686}";
}
);
background = {
anchors = (
{
name = center;
position = "{347, 343}";
},
{
name = top;
position = "{347, 686}";
}
);
paths = (
{
closed = 1;
nodes = (
"559 686 LINE",
"518 395 LINE",
"205 395 LINE",
"246 686 LINE",
"148 686 LINE",
"51 0 LINE",
"149 0 LINE",
"192 306 LINE",
"505 306 LINE",
"462 0 LINE",
"560 0 LINE",
"657 686 LINE"
);
}
);
};
layerId = UUID0;
name = "Regular Italic";
paths = (
{
closed = 1;
nodes = (
"559 686 LINE",
"518 395 LINE",
"205 395 LINE",
"246 686 LINE",
"148 686 LINE",
"51 0 LINE",
"149 0 LINE",
"192 306 LINE",
"505 306 LINE",
"462 0 LINE",
"560 0 LINE",
"657 686 LINE"
);
}
);
width = 693;
}
);
leftKerningGroup = B;
rightKerningGroup = H;
unicode = 0048;
},
{
glyphname = I;
lastChange = "2014-09-05 19:02:24 -0800";
layers = (
{
anchors = (
{
name = ogonek;
position = "{258, 10}";
},
{
name = top;
position = "{238, 686}";
}
);
background = {
anchors = (
{
name = ogonek;
position = "{328, 10}";
},
{
name = top;
position = "{183, 686}";
}
);
paths = (
{
closed = 1;
nodes = (
"109 686 LINE",
"96 597 LINE",
"176 597 LINE",
"105 89 LINE",
"25 89 LINE",
"12 0 LINE",
"270 0 LINE",
"283 89 LINE",
"203 89 LINE",
"274 597 LINE",
"354 597 LINE",
"367 686 LINE"
);
}
);
};
layerId = UUID0;
name = "Regular Italic";
paths = (
{
closed = 1;
nodes = (
"109 686 LINE",
"96 597 LINE",
"176 597 LINE",
"105 89 LINE",
"25 89 LINE",
"12 0 LINE",
"270 0 LINE",
"283 89 LINE",
"203 89 LINE",
"274 597 LINE",
"354 597 LINE",
"367 686 LINE"
);
}
);
width = 365;
}
);
leftKerningGroup = I;
rightKerningGroup = I;
unicode = 0049;
},
{
glyphname = Iacute;
lastChange = "2014-09-05 18:36:11 -0800";
layers = (
{
background = {
paths = (
{
closed = 1;
nodes = (
"109 686 LINE",
"96 597 LINE",
"176 597 LINE",
"105 89 LINE",
"25 89 LINE",
"12 0 LINE",
"270 0 LINE",
"283 89 LINE",
"203 89 LINE",
"274 597 LINE",
"354 597 LINE",
"367 686 LINE"
);
},
{
closed = 1;
nodes = (
"317 895 LINE",
"202 750 LINE",
"271 750 LINE",
"407 891 LINE",
"407 895 LINE"
);
}
);
};
layerId = UUID0;
name = "Regular Italic";
paths = (
{
closed = 1;
nodes = (
"109 686 LINE",
"96 597 LINE",
"176 597 LINE",
"105 89 LINE",
"25 89 LINE",
"12 0 LINE",
"270 0 LINE",
"283 89 LINE",
"203 89 LINE",
"274 597 LINE",
"354 597 LINE",
"367 686 LINE"
);
},
{
closed = 1;
nodes = (
"317 895 LINE",
"202 750 LINE",
"271 750 LINE",
"407 891 LINE",
"407 895 LINE"
);
}
);
width = 365;
}
);
leftKerningGroup = I;
rightKerningGroup = I;
unicode = 00CD;
},
{
glyphname = Icircumflex;
lastChange = "2014-09-05 18:36:11 -0800";
layers = (
{
background = {
paths = (
{
closed = 1;
nodes = (
"109 686 LINE",
"96 597 LINE",
"176 597 LINE",
"105 89 LINE",
"25 89 LINE",
"12 0 LINE",
"270 0 LINE",
"283 89 LINE",
"203 89 LINE",
"274 597 LINE",
"354 597 LINE",
"367 686 LINE"
);
},
{
closed = 1;
nodes = (
"228 895 LINE",
"71 750 LINE",
"151 750 LINE",
"259 839 LINE",
"340 750 LINE",
"420 750 LINE",
"306 895 LINE"
);
}
);
};
layerId = UUID0;
name = "Regular Italic";
paths = (
{
closed = 1;
nodes = (
"109 686 LINE",
"96 597 LINE",
"176 597 LINE",
"105 89 LINE",
"25 89 LINE",
"12 0 LINE",
"270 0 LINE",
"283 89 LINE",
"203 89 LINE",
"274 597 LINE",
"354 597 LINE",
"367 686 LINE"
);
},
{
closed = 1;
nodes = (
"228 895 LINE",
"71 750 LINE",
"151 750 LINE",
"259 839 LINE",
"340 750 LINE",
"420 750 LINE",
"306 895 LINE"
);
}
);
width = 365;
}
);
leftKerningGroup = I;
rightKerningGroup = I;
unicode = 00CE;
},
{
glyphname = Idieresis;
lastChange = "2014-09-05 18:36:11 -0800";
layers = (
{
background = {
paths = (
{
closed = 1;
nodes = (
"109 686 LINE",
"96 597 LINE",
"176 597 LINE",
"105 89 LINE",
"25 89 LINE",
"12 0 LINE",
"270 0 LINE",
"283 89 LINE",
"203 89 LINE",
"274 597 LINE",
"354 597 LINE",
"367 686 LINE"
);
},
{
closed = 1;
nodes = (
"120 848 LINE",
"107 750 LINE",
"197 750 LINE",
"210 848 LINE"
);
},
{
closed = 1;
nodes = (
"308 848 LINE",
"295 750 LINE",
"386 750 LINE",
"399 848 LINE"
);
}
);
};
layerId = UUID0;
name = "Regular Italic";
paths = (
{
closed = 1;
nodes = (
"109 686 LINE",
"96 597 LINE",
"176 597 LINE",
"105 89 LINE",
"25 89 LINE",
"12 0 LINE",
"270 0 LINE",
"283 89 LINE",
"203 89 LINE",
"274 597 LINE",
"354 597 LINE",
"367 686 LINE"
);
},
{
closed = 1;
nodes = (
"120 848 LINE",
"107 750 LINE",
"197 750 LINE",
"210 848 LINE"
);
},
{
closed = 1;
nodes = (
"308 848 LINE",
"295 750 LINE",
"386 750 LINE",
"399 848 LINE"
);
}
);
width = 365;
}
);
leftKerningGroup = I;
rightKerningGroup = I;
unicode = 00CF;
},
{
glyphname = Igrave;
lastChange = "2014-09-05 18:36:11 -0800";
layers = (
{
background = {
paths = (
{
closed = 1;
nodes = (
"109 686 LINE",
"96 597 LINE",
"176 597 LINE",
"105 89 LINE",
"25 89 LINE",
"12 0 LINE",
"270 0 LINE",
"283 89 LINE",
"203 89 LINE",
"274 597 LINE",
"354 597 LINE",
"367 686 LINE"
);
},
{
closed = 1;
nodes = (
"110 895 LINE",
"108 892 LINE",
"203 750 LINE",
"273 750 LINE",
"199 895 LINE"
);
}
);
};
layerId = UUID0;
name = "Regular Italic";
paths = (
{
closed = 1;
nodes = (
"109 686 LINE",
"96 597 LINE",
"176 597 LINE",
"105 89 LINE",
"25 89 LINE",
"12 0 LINE",
"270 0 LINE",
"283 89 LINE",
"203 89 LINE",
"274 597 LINE",
"354 597 LINE",
"367 686 LINE"
);
},
{
closed = 1;
nodes = (
"110 895 LINE",
"108 892 LINE",
"203 750 LINE",
"273 750 LINE",
"199 895 LINE"
);
}
);
width = 365;
}
);
leftKerningGroup = I;
rightKerningGroup = I;
unicode = 00CC;
},
{
glyphname = J;
lastChange = "2014-09-05 19:02:31 -0800";
layers = (
{
anchors = (
{
name = top;
position = "{443, 686}";
}
);
background = {
anchors = (
{
name = top;
position = "{263, 686}";
}
);
paths = (
{
closed = 1;
nodes = (
"394 686 LINE",
"323 181 LINE SMOOTH",
"314 118 OFFCURVE",
"266 79 OFFCURVE",
"199 79 CURVE SMOOTH",
"147 79 OFFCURVE",
"108 114 OFFCURVE",
"108 166 CURVE SMOOTH",
"108 171 OFFCURVE",
"108 185 OFFCURVE",
"113 208 CURVE",
"16 208 LINE",
"9 176 OFFCURVE",
"10 161 OFFCURVE",
"10 149 CURVE SMOOTH",
"10 43 OFFCURVE",
"93 -10 OFFCURVE",
"183 -10 CURVE SMOOTH",
"192 -10 LINE SMOOTH",
"320 -10 OFFCURVE",
"403 55 OFFCURVE",
"422 187 CURVE SMOOTH",
"492 686 LINE"
);
}
);
};
layerId = UUID0;
name = "Regular Italic";
paths = (
{
closed = 1;
nodes = (
"394 686 LINE",
"323 181 LINE SMOOTH",
"314 118 OFFCURVE",
"266 79 OFFCURVE",
"199 79 CURVE SMOOTH",
"147 79 OFFCURVE",
"108 114 OFFCURVE",
"108 166 CURVE SMOOTH",
"108 171 OFFCURVE",
"108 185 OFFCURVE",
"113 208 CURVE",
"16 208 LINE",
"9 176 OFFCURVE",
"10 161 OFFCURVE",
"10 149 CURVE SMOOTH",
"10 43 OFFCURVE",
"93 -10 OFFCURVE",
"183 -10 CURVE SMOOTH",
"192 -10 LINE SMOOTH",
"320 -10 OFFCURVE",
"403 55 OFFCURVE",
"422 187 CURVE SMOOTH",
"492 686 LINE"
);
}
);
width = 525;
}
);
unicode = 004A;
},
{
glyphname = K;
lastChange = "2014-09-05 19:02:35 -0800";
layers = (
{
anchors = (
{
name = bottom;
position = "{311, 0}";
},
{
name = top;
position = "{371, 686}";
}
);
background = {
anchors = (
{
name = top;
position = "{311, 686}";
},
{
name = bottom;
position = "{311, 0}";
}
);
paths = (
{
closed = 1;
nodes = (
"544 686 LINE",
"196 329 LINE",
"246 686 LINE",
"148 686 LINE",
"51 0 LINE",
"149 0 LINE",
"178 206 LINE",
"290 308 LINE",
"454 0 LINE",
"568 0 LINE",
"362 383 LINE",
"657 686 LINE"
);
}
);
};
layerId = UUID0;
name = "Regular Italic";
paths = (
{
closed = 1;
nodes = (
"544 686 LINE",
"196 329 LINE",
"246 686 LINE",
"148 686 LINE",
"51 0 LINE",
"149 0 LINE",
"178 206 LINE",
"290 308 LINE",
"454 0 LINE",
"568 0 LINE",
"362 383 LINE",
"657 686 LINE"
);
}
);
width = 621;
}
);
leftKerningGroup = B;
unicode = 004B;
},
{
glyphname = L;
lastChange = "2014-09-09 17:53:23 -0800";
layers = (
{
anchors = (
{
name = bottom;
position = "{266, 0}";
},
{
name = top;
position = "{197, 686}";
},
{
name = topright;
position = "{513, 686}";
}
);
background = {
anchors = (
{
name = top;
position = "{266, 686}";
},
{
name = bottom;
position = "{266, 0}";
},
{
name = topright;
position = "{573, 686}";
}
);
paths = (
{
closed = 1;
nodes = (
"148 686 LINE",
"51 0 LINE",
"477 0 LINE",
"477 89 LINE",
"162 89 LINE",
"246 686 LINE"
);
}
);
};
layerId = UUID0;
name = "Regular Italic";
paths = (
{
closed = 1;
nodes = (
"148 686 LINE",
"51 0 LINE",
"477 0 LINE",
"477 89 LINE",
"162 89 LINE",
"246 686 LINE"
);
}
);
width = 532;
}
);
leftKerningGroup = B;
rightKerningGroup = L;
unicode = 004C;
},
{
glyphname = Lslash;
lastChange = "2014-09-05 18:36:11 -0800";
layers = (
{
background = {
paths = (
{
closed = 1;
nodes = (
"151 686 LINE",
"110 395 LINE",
"43 364 LINE",
"33 293 LINE",
"100 324 LINE",
"54 0 LINE",
"480 0 LINE",
"480 89 LINE",
"165 89 LINE",
"205 374 LINE",
"354 446 LINE",
"364 517 LINE",
"215 445 LINE",
"249 686 LINE"
);
}
);
};
layerId = UUID0;
name = "Regular Italic";
paths = (
{
closed = 1;
nodes = (
"151 686 LINE",
"110 395 LINE",
"43 364 LINE",
"33 293 LINE",
"100 324 LINE",
"54 0 LINE",
"480 0 LINE",
"480 89 LINE",
"165 89 LINE",
"205 374 LINE",
"354 446 LINE",
"364 517 LINE",
"215 445 LINE",
"249 686 LINE"
);
}
);
width = 534;
}
);
leftKerningGroup = B;
rightKerningGroup = L;
unicode = 0141;
},
{
glyphname = M;
lastChange = "2014-09-05 18:36:11 -0800";
layers = (
{
background = {
paths = (
{
closed = 1;
nodes = (
"749 686 LINE",
"451 146 LINE",
"447 146 LINE",
"302 686 LINE",
"148 686 LINE",
"51 0 LINE",
"140 0 LINE",
"221 571 LINE",
"226 571 LINE",
"381 0 LINE",
"464 0 LINE",
"782 571 LINE",
"788 571 LINE",
"707 0 LINE",
"805 0 LINE",
"902 686 LINE"
);
}
);
};
layerId = UUID0;
name = "Regular Italic";
paths = (
{
closed = 1;
nodes = (
"749 686 LINE",
"451 146 LINE",
"447 146 LINE",
"302 686 LINE",
"148 686 LINE",
"51 0 LINE",
"140 0 LINE",
"221 571 LINE",
"226 571 LINE",
"381 0 LINE",
"464 0 LINE",
"782 571 LINE",
"788 571 LINE",
"707 0 LINE",
"805 0 LINE",
"902 686 LINE"
);
}
);
width = 938;
}
);
leftKerningGroup = B;
rightKerningGroup = H;
unicode = 004D;
},
{
glyphname = N;
lastChange = "2014-09-05 19:02:45 -0800";
layers = (
{
anchors = (
{
name = bottom;
position = "{347, 0}";
},
{
name = top;
position = "{417, 686}";
}
);
background = {
anchors = (
{
name = top;
position = "{347, 686}";
},
{
name = bottom;
position = "{347, 0}";
}
);
paths = (
{
closed = 1;
nodes = (
"569 686 LINE",
"499 191 LINE",
"496 190 LINE",
"234 686 LINE",
"148 686 LINE",
"51 0 LINE",
"140 0 LINE",
"211 501 LINE",
"214 502 LINE",
"478 0 LINE",
"561 0 LINE",
"658 686 LINE"
);
}
);
};
layerId = UUID0;
name = "Regular Italic";
paths = (
{
closed = 1;
nodes = (
"569 686 LINE",
"499 191 LINE",
"496 190 LINE",
"234 686 LINE",
"148 686 LINE",
"51 0 LINE",
"140 0 LINE",
"211 501 LINE",
"214 502 LINE",
"478 0 LINE",
"561 0 LINE",
"658 686 LINE"
);
}
);
width = 694;
}
);
leftKerningGroup = B;
rightKerningGroup = H;
unicode = 004E;
},
{
glyphname = Ntilde;
lastChange = "2014-09-05 18:36:11 -0800";
layers = (
{
background = {
paths = (
{
closed = 1;
nodes = (
"569 686 LINE",
"499 191 LINE",
"496 190 LINE",
"234 686 LINE",
"148 686 LINE",
"51 0 LINE",
"140 0 LINE",
"211 501 LINE",
"214 502 LINE",
"478 0 LINE",
"561 0 LINE",
"658 686 LINE"
);
},
{
closed = 1;
nodes = (
"571 854 LINE",
"561 831 OFFCURVE",
"541 819 OFFCURVE",
"511 819 CURVE SMOOTH",
"458 819 OFFCURVE",
"412 854 OFFCURVE",
"348 854 CURVE SMOOTH",
"270 854 OFFCURVE",
"230 795 OFFCURVE",
"222 750 CURVE",
"270 750 LINE",
"280 773 OFFCURVE",
"300 784 OFFCURVE",
"330 784 CURVE SMOOTH",
"384 784 OFFCURVE",
"430 750 OFFCURVE",
"494 750 CURVE SMOOTH",
"572 750 OFFCURVE",
"613 806 OFFCURVE",
"621 854 CURVE"
);
}
);
};
layerId = UUID0;
name = "Regular Italic";
paths = (
{
closed = 1;
nodes = (
"569 686 LINE",
"499 191 LINE",
"496 190 LINE",
"234 686 LINE",
"148 686 LINE",
"51 0 LINE",
"140 0 LINE",
"211 501 LINE",
"214 502 LINE",
"478 0 LINE",
"561 0 LINE",
"658 686 LINE"
);
},
{
closed = 1;
nodes = (
"571 854 LINE",
"561 831 OFFCURVE",
"541 819 OFFCURVE",
"511 819 CURVE SMOOTH",
"458 819 OFFCURVE",
"412 854 OFFCURVE",
"348 854 CURVE SMOOTH",
"270 854 OFFCURVE",
"230 795 OFFCURVE",
"222 750 CURVE",
"270 750 LINE",
"280 773 OFFCURVE",
"300 784 OFFCURVE",
"330 784 CURVE SMOOTH",
"384 784 OFFCURVE",
"430 750 OFFCURVE",
"494 750 CURVE SMOOTH",
"572 750 OFFCURVE",
"613 806 OFFCURVE",
"621 854 CURVE"
);
}
);
width = 694;
}
);
leftKerningGroup = B;
rightKerningGroup = H;
unicode = 00D1;
},
{
glyphname = O;
lastChange = "2014-09-05 19:02:50 -0800";
layers = (
{
anchors = (
{
name = top;
position = "{395, 686}";
}
);
background = {
anchors = (
{
name = top;
position = "{345, 686}";
}
);
paths = (
{
closed = 1;
nodes = (
"233 696 OFFCURVE",
"103 596 OFFCURVE",
"75 388 CURVE SMOOTH",
"60 276 OFFCURVE",
"56 264 OFFCURVE",
"57 235 CURVE",
"57 70 OFFCURVE",
"162 -10 OFFCURVE",
"303 -10 CURVE SMOOTH",
"474 -10 OFFCURVE",
"601 90 OFFCURVE",
"630 298 CURVE SMOOTH",
"646 410 OFFCURVE",
"647 431 OFFCURVE",
"647 450 CURVE SMOOTH",
"647 616 OFFCURVE",
"542 696 OFFCURVE",
"402 696 CURVE SMOOTH"
);
},
{
closed = 1;
nodes = (
"484 607 OFFCURVE",
"549 558 OFFCURVE",
"549 442 CURVE SMOOTH",
"549 426 OFFCURVE",
"548 406 OFFCURVE",
"532 298 CURVE SMOOTH",
"508 142 OFFCURVE",
"423 79 OFFCURVE",
"315 79 CURVE SMOOTH",
"220 79 OFFCURVE",
"156 127 OFFCURVE",
"156 244 CURVE SMOOTH",
"156 260 OFFCURVE",
"158 278 OFFCURVE",
"173 388 CURVE SMOOTH",
"195 544 OFFCURVE",
"280 607 OFFCURVE",
"390 607 CURVE SMOOTH"
);
}
);
};
layerId = UUID0;
name = "Regular Italic";
paths = (
{
closed = 1;
nodes = (
"233 696 OFFCURVE",
"103 596 OFFCURVE",
"75 388 CURVE SMOOTH",
"60 276 OFFCURVE",
"56 264 OFFCURVE",
"57 235 CURVE",
"57 70 OFFCURVE",
"162 -10 OFFCURVE",
"303 -10 CURVE SMOOTH",
"474 -10 OFFCURVE",
"601 90 OFFCURVE",
"630 298 CURVE SMOOTH",
"646 410 OFFCURVE",
"647 431 OFFCURVE",
"647 450 CURVE SMOOTH",
"647 616 OFFCURVE",
"542 696 OFFCURVE",
"402 696 CURVE SMOOTH"
);
},
{
closed = 1;
nodes = (
"484 607 OFFCURVE",
"549 558 OFFCURVE",
"549 442 CURVE SMOOTH",
"549 426 OFFCURVE",
"548 406 OFFCURVE",
"532 298 CURVE SMOOTH",
"508 142 OFFCURVE",
"423 79 OFFCURVE",
"315 79 CURVE SMOOTH",
"220 79 OFFCURVE",
"156 127 OFFCURVE",
"156 244 CURVE SMOOTH",
"156 260 OFFCURVE",
"158 278 OFFCURVE",
"173 388 CURVE SMOOTH",
"195 544 OFFCURVE",
"280 607 OFFCURVE",
"390 607 CURVE SMOOTH"
);
}
);
width = 690;
}
);
leftKerningGroup = C;
rightKerningGroup = O;
unicode = 004F;
},
{
glyphname = Oacute;
lastChange = "2014-09-05 18:36:11 -0800";
layers = (
{
background = {
paths = (
{
closed = 1;
nodes = (
"233 696 OFFCURVE",
"103 596 OFFCURVE",
"75 388 CURVE SMOOTH",
"60 276 OFFCURVE",
"56 264 OFFCURVE",
"57 235 CURVE",
"57 70 OFFCURVE",
"162 -10 OFFCURVE",
"303 -10 CURVE SMOOTH",
"474 -10 OFFCURVE",
"601 90 OFFCURVE",
"630 298 CURVE SMOOTH",
"646 410 OFFCURVE",
"647 431 OFFCURVE",
"647 450 CURVE SMOOTH",
"647 616 OFFCURVE",
"542 696 OFFCURVE",
"402 696 CURVE SMOOTH"
);
},
{
closed = 1;
nodes = (
"484 607 OFFCURVE",
"549 558 OFFCURVE",
"549 442 CURVE SMOOTH",
"549 426 OFFCURVE",
"548 406 OFFCURVE",
"532 298 CURVE SMOOTH",
"508 142 OFFCURVE",
"423 79 OFFCURVE",
"315 79 CURVE SMOOTH",
"220 79 OFFCURVE",
"156 127 OFFCURVE",
"156 244 CURVE SMOOTH",
"156 260 OFFCURVE",
"158 278 OFFCURVE",
"173 388 CURVE SMOOTH",
"195 544 OFFCURVE",
"280 607 OFFCURVE",
"390 607 CURVE SMOOTH"
);
},
{
closed = 1;
nodes = (
"488 895 LINE",
"373 750 LINE",
"442 750 LINE",
"578 891 LINE",
"578 895 LINE"
);
}
);
};
layerId = UUID0;
name = "Regular Italic";
paths = (
{
closed = 1;
nodes = (
"233 696 OFFCURVE",
"103 596 OFFCURVE",
"75 388 CURVE SMOOTH",
"60 276 OFFCURVE",
"56 264 OFFCURVE",
"57 235 CURVE",
"57 70 OFFCURVE",
"162 -10 OFFCURVE",
"303 -10 CURVE SMOOTH",
"474 -10 OFFCURVE",
"601 90 OFFCURVE",
"630 298 CURVE SMOOTH",
"646 410 OFFCURVE",
"647 431 OFFCURVE",
"647 450 CURVE SMOOTH",
"647 616 OFFCURVE",
"542 696 OFFCURVE",
"402 696 CURVE SMOOTH"
);
},
{
closed = 1;
nodes = (
"484 607 OFFCURVE",
"549 558 OFFCURVE",
"549 442 CURVE SMOOTH",
"549 426 OFFCURVE",
"548 406 OFFCURVE",
"532 298 CURVE SMOOTH",
"508 142 OFFCURVE",
"423 79 OFFCURVE",
"315 79 CURVE SMOOTH",
"220 79 OFFCURVE",
"156 127 OFFCURVE",
"156 244 CURVE SMOOTH",
"156 260 OFFCURVE",
"158 278 OFFCURVE",
"173 388 CURVE SMOOTH",
"195 544 OFFCURVE",
"280 607 OFFCURVE",
"390 607 CURVE SMOOTH"
);
},
{
closed = 1;
nodes = (
"488 895 LINE",
"373 750 LINE",
"442 750 LINE",
"578 891 LINE",
"578 895 LINE"
);
}
);
width = 690;
}
);
leftKerningGroup = C;
rightKerningGroup = O;
unicode = 00D3;
},
{
glyphname = Ocircumflex;
lastChange = "2014-09-05 18:36:11 -0800";
layers = (
{
background = {
paths = (
{
closed = 1;
nodes = (
"233 696 OFFCURVE",
"103 596 OFFCURVE",
"75 388 CURVE SMOOTH",
"60 276 OFFCURVE",
"56 264 OFFCURVE",
"57 235 CURVE",
"57 70 OFFCURVE",
"162 -10 OFFCURVE",
"303 -10 CURVE SMOOTH",
"474 -10 OFFCURVE",
"601 90 OFFCURVE",
"630 298 CURVE SMOOTH",
"646 410 OFFCURVE",
"647 431 OFFCURVE",
"647 450 CURVE SMOOTH",
"647 616 OFFCURVE",
"542 696 OFFCURVE",
"402 696 CURVE SMOOTH"
);
},
{
closed = 1;
nodes = (
"484 607 OFFCURVE",
"549 558 OFFCURVE",
"549 442 CURVE SMOOTH",
"549 426 OFFCURVE",
"548 406 OFFCURVE",
"532 298 CURVE SMOOTH",
"508 142 OFFCURVE",
"423 79 OFFCURVE",
"315 79 CURVE SMOOTH",
"220 79 OFFCURVE",
"156 127 OFFCURVE",
"156 244 CURVE SMOOTH",
"156 260 OFFCURVE",
"158 278 OFFCURVE",
"173 388 CURVE SMOOTH",
"195 544 OFFCURVE",
"280 607 OFFCURVE",
"390 607 CURVE SMOOTH"
);
},
{
closed = 1;
nodes = (
"406 895 LINE",
"249 750 LINE",
"329 750 LINE",
"437 839 LINE",
"518 750 LINE",
"598 750 LINE",
"484 895 LINE"
);
}
);
};
layerId = UUID0;
name = "Regular Italic";
paths = (
{
closed = 1;
nodes = (
"233 696 OFFCURVE",
"103 596 OFFCURVE",
"75 388 CURVE SMOOTH",
"60 276 OFFCURVE",
"56 264 OFFCURVE",
"57 235 CURVE",
"57 70 OFFCURVE",
"162 -10 OFFCURVE",
"303 -10 CURVE SMOOTH",
"474 -10 OFFCURVE",
"601 90 OFFCURVE",
"630 298 CURVE SMOOTH",
"646 410 OFFCURVE",
"647 431 OFFCURVE",
"647 450 CURVE SMOOTH",
"647 616 OFFCURVE",
"542 696 OFFCURVE",
"402 696 CURVE SMOOTH"
);
},
{
closed = 1;
nodes = (
"484 607 OFFCURVE",
"549 558 OFFCURVE",
"549 442 CURVE SMOOTH",
"549 426 OFFCURVE",
"548 406 OFFCURVE",
"532 298 CURVE SMOOTH",
"508 142 OFFCURVE",
"423 79 OFFCURVE",
"315 79 CURVE SMOOTH",
"220 79 OFFCURVE",
"156 127 OFFCURVE",
"156 244 CURVE SMOOTH",
"156 260 OFFCURVE",
"158 278 OFFCURVE",
"173 388 CURVE SMOOTH",
"195 544 OFFCURVE",
"280 607 OFFCURVE",
"390 607 CURVE SMOOTH"
);
},
{
closed = 1;
nodes = (
"406 895 LINE",
"249 750 LINE",
"329 750 LINE",
"437 839 LINE",
"518 750 LINE",
"598 750 LINE",
"484 895 LINE"
);
}
);
width = 690;
}
);
leftKerningGroup = C;
rightKerningGroup = O;
unicode = 00D4;
},
{
glyphname = Odieresis;
lastChange = "2014-09-05 18:36:11 -0800";
layers = (
{
background = {
paths = (
{
closed = 1;
nodes = (
"233 696 OFFCURVE",
"103 596 OFFCURVE",
"75 388 CURVE SMOOTH",
"60 276 OFFCURVE",
"56 264 OFFCURVE",
"57 235 CURVE",
"57 70 OFFCURVE",
"162 -10 OFFCURVE",
"303 -10 CURVE SMOOTH",
"474 -10 OFFCURVE",
"601 90 OFFCURVE",
"630 298 CURVE SMOOTH",
"646 410 OFFCURVE",
"647 431 OFFCURVE",
"647 450 CURVE SMOOTH",
"647 616 OFFCURVE",
"542 696 OFFCURVE",
"402 696 CURVE SMOOTH"
);
},
{
closed = 1;
nodes = (
"484 607 OFFCURVE",
"549 558 OFFCURVE",
"549 442 CURVE SMOOTH",
"549 426 OFFCURVE",
"548 406 OFFCURVE",
"532 298 CURVE SMOOTH",
"508 142 OFFCURVE",
"423 79 OFFCURVE",
"315 79 CURVE SMOOTH",
"220 79 OFFCURVE",
"156 127 OFFCURVE",
"156 244 CURVE SMOOTH",
"156 260 OFFCURVE",
"158 278 OFFCURVE",
"173 388 CURVE SMOOTH",
"195 544 OFFCURVE",
"280 607 OFFCURVE",
"390 607 CURVE SMOOTH"
);
},
{
closed = 1;
nodes = (
"288 848 LINE",
"275 750 LINE",
"365 750 LINE",
"378 848 LINE"
);
},
{
closed = 1;
nodes = (
"476 848 LINE",
"463 750 LINE",
"554 750 LINE",
"567 848 LINE"
);
}
);
};
layerId = UUID0;
name = "Regular Italic";
paths = (
{
closed = 1;
nodes = (
"233 696 OFFCURVE",
"103 596 OFFCURVE",
"75 388 CURVE SMOOTH",
"60 276 OFFCURVE",
"56 264 OFFCURVE",
"57 235 CURVE",
"57 70 OFFCURVE",
"162 -10 OFFCURVE",
"303 -10 CURVE SMOOTH",
"474 -10 OFFCURVE",
"601 90 OFFCURVE",
"630 298 CURVE SMOOTH",
"646 410 OFFCURVE",
"647 431 OFFCURVE",
"647 450 CURVE SMOOTH",
"647 616 OFFCURVE",
"542 696 OFFCURVE",
"402 696 CURVE SMOOTH"
);
},
{
closed = 1;
nodes = (
"484 607 OFFCURVE",
"549 558 OFFCURVE",
"549 442 CURVE SMOOTH",
"549 426 OFFCURVE",
"548 406 OFFCURVE",
"532 298 CURVE SMOOTH",
"508 142 OFFCURVE",
"423 79 OFFCURVE",
"315 79 CURVE SMOOTH",
"220 79 OFFCURVE",
"156 127 OFFCURVE",
"156 244 CURVE SMOOTH",
"156 260 OFFCURVE",
"158 278 OFFCURVE",
"173 388 CURVE SMOOTH",
"195 544 OFFCURVE",
"280 607 OFFCURVE",
"390 607 CURVE SMOOTH"
);
},
{
closed = 1;
nodes = (
"288 848 LINE",
"275 750 LINE",
"365 750 LINE",
"378 848 LINE"
);
},
{
closed = 1;
nodes = (
"476 848 LINE",
"463 750 LINE",
"554 750 LINE",
"567 848 LINE"
);
}
);
width = 690;
}
);
leftKerningGroup = C;
rightKerningGroup = O;
unicode = 00D6;
},
{
glyphname = Ograve;
lastChange = "2014-09-05 18:36:11 -0800";
layers = (
{
background = {
paths = (
{
closed = 1;
nodes = (
"233 696 OFFCURVE",
"103 596 OFFCURVE",
"75 388 CURVE SMOOTH",
"60 276 OFFCURVE",
"56 264 OFFCURVE",
"57 235 CURVE",
"57 70 OFFCURVE",
"162 -10 OFFCURVE",
"303 -10 CURVE SMOOTH",
"474 -10 OFFCURVE",
"601 90 OFFCURVE",
"630 298 CURVE SMOOTH",
"646 410 OFFCURVE",
"647 431 OFFCURVE",
"647 450 CURVE SMOOTH",
"647 616 OFFCURVE",
"542 696 OFFCURVE",
"402 696 CURVE SMOOTH"
);
},
{
closed = 1;
nodes = (
"484 607 OFFCURVE",
"549 558 OFFCURVE",
"549 442 CURVE SMOOTH",
"549 426 OFFCURVE",
"548 406 OFFCURVE",
"532 298 CURVE SMOOTH",
"508 142 OFFCURVE",
"423 79 OFFCURVE",
"315 79 CURVE SMOOTH",
"220 79 OFFCURVE",
"156 127 OFFCURVE",
"156 244 CURVE SMOOTH",
"156 260 OFFCURVE",
"158 278 OFFCURVE",
"173 388 CURVE SMOOTH",
"195 544 OFFCURVE",
"280 607 OFFCURVE",
"390 607 CURVE SMOOTH"
);
},
{
closed = 1;
nodes = (
"273 895 LINE",
"271 892 LINE",
"366 750 LINE",
"436 750 LINE",
"362 895 LINE"
);
}
);
};
layerId = UUID0;
name = "Regular Italic";
paths = (
{
closed = 1;
nodes = (
"233 696 OFFCURVE",
"103 596 OFFCURVE",
"75 388 CURVE SMOOTH",
"60 276 OFFCURVE",
"56 264 OFFCURVE",
"57 235 CURVE",
"57 70 OFFCURVE",
"162 -10 OFFCURVE",
"303 -10 CURVE SMOOTH",
"474 -10 OFFCURVE",
"601 90 OFFCURVE",
"630 298 CURVE SMOOTH",
"646 410 OFFCURVE",
"647 431 OFFCURVE",
"647 450 CURVE SMOOTH",
"647 616 OFFCURVE",
"542 696 OFFCURVE",
"402 696 CURVE SMOOTH"
);
},
{
closed = 1;
nodes = (
"484 607 OFFCURVE",
"549 558 OFFCURVE",
"549 442 CURVE SMOOTH",
"549 426 OFFCURVE",
"548 406 OFFCURVE",
"532 298 CURVE SMOOTH",
"508 142 OFFCURVE",
"423 79 OFFCURVE",
"315 79 CURVE SMOOTH",
"220 79 OFFCURVE",
"156 127 OFFCURVE",
"156 244 CURVE SMOOTH",
"156 260 OFFCURVE",
"158 278 OFFCURVE",
"173 388 CURVE SMOOTH",
"195 544 OFFCURVE",
"280 607 OFFCURVE",
"390 607 CURVE SMOOTH"
);
},
{
closed = 1;
nodes = (
"273 895 LINE",
"271 892 LINE",
"366 750 LINE",
"436 750 LINE",
"362 895 LINE"
);
}
);
width = 690;
}
);
leftKerningGroup = C;
rightKerningGroup = O;
unicode = 00D2;
},
{
glyphname = Oslash;
lastChange = "2014-09-05 19:02:54 -0800";
layers = (
{
anchors = (
{
name = top;
position = "{385, 686}";
}
);
background = {
anchors = (
{
name = top;
position = "{345, 686}";
}
);
paths = (
{
closed = 1;
nodes = (
"625 754 LINE",
"552 655 LINE",
"511 682 OFFCURVE",
"461 696 OFFCURVE",
"402 696 CURVE SMOOTH",
"233 696 OFFCURVE",
"103 596 OFFCURVE",
"75 388 CURVE SMOOTH",
"60 275 OFFCURVE",
"57 264 OFFCURVE",
"57 235 CURVE SMOOTH",
"57 159 OFFCURVE",
"78 104 OFFCURVE",
"115 63 CURVE",
"20 -65 LINE",
"84 -65 LINE",
"154 30 LINE",
"195 3 OFFCURVE",
"244 -10 OFFCURVE",
"303 -10 CURVE SMOOTH",
"474 -10 OFFCURVE",
"601 90 OFFCURVE",
"630 298 CURVE SMOOTH",
"646 410 OFFCURVE",
"647 431 OFFCURVE",
"647 450 CURVE SMOOTH",
"647 525 OFFCURVE",
"626 580 OFFCURVE",
"590 621 CURVE",
"689 754 LINE"
);
},
{
closed = 1;
nodes = (
"541 512 OFFCURVE",
"549 481 OFFCURVE",
"549 442 CURVE SMOOTH",
"549 426 OFFCURVE",
"548 406 OFFCURVE",
"532 298 CURVE SMOOTH",
"508 142 OFFCURVE",
"423 79 OFFCURVE",
"315 79 CURVE SMOOTH",
"272 79 OFFCURVE",
"238 88 OFFCURVE",
"211 107 CURVE",
"528 537 LINE"
);
},
{
closed = 1;
nodes = (
"432 607 OFFCURVE",
"467 597 OFFCURVE",
"494 577 CURVE",
"177 147 LINE",
"163 172 OFFCURVE",
"156 204 OFFCURVE",
"156 244 CURVE SMOOTH",
"156 260 OFFCURVE",
"158 278 OFFCURVE",
"173 388 CURVE SMOOTH",
"195 544 OFFCURVE",
"280 607 OFFCURVE",
"390 607 CURVE SMOOTH"
);
}
);
};
layerId = UUID0;
name = "Regular Italic";
paths = (
{
closed = 1;
nodes = (
"625 754 LINE",
"552 655 LINE",
"511 682 OFFCURVE",
"461 696 OFFCURVE",
"402 696 CURVE SMOOTH",
"233 696 OFFCURVE",
"103 596 OFFCURVE",
"75 388 CURVE SMOOTH",
"60 275 OFFCURVE",
"57 264 OFFCURVE",
"57 235 CURVE SMOOTH",
"57 159 OFFCURVE",
"78 104 OFFCURVE",
"115 63 CURVE",
"20 -65 LINE",
"84 -65 LINE",
"154 30 LINE",
"195 3 OFFCURVE",
"244 -10 OFFCURVE",
"303 -10 CURVE SMOOTH",
"474 -10 OFFCURVE",
"601 90 OFFCURVE",
"630 298 CURVE SMOOTH",
"646 410 OFFCURVE",
"647 431 OFFCURVE",
"647 450 CURVE SMOOTH",
"647 525 OFFCURVE",
"626 580 OFFCURVE",
"590 621 CURVE",
"689 754 LINE"
);
},
{
closed = 1;
nodes = (
"541 512 OFFCURVE",
"549 481 OFFCURVE",
"549 442 CURVE SMOOTH",
"549 426 OFFCURVE",
"548 406 OFFCURVE",
"532 298 CURVE SMOOTH",
"508 142 OFFCURVE",
"423 79 OFFCURVE",
"315 79 CURVE SMOOTH",
"272 79 OFFCURVE",
"238 88 OFFCURVE",
"211 107 CURVE",
"528 537 LINE"
);
},
{
closed = 1;
nodes = (
"432 607 OFFCURVE",
"467 597 OFFCURVE",
"494 577 CURVE",
"177 147 LINE",
"163 172 OFFCURVE",
"156 204 OFFCURVE",
"156 244 CURVE SMOOTH",
"156 260 OFFCURVE",
"158 278 OFFCURVE",
"173 388 CURVE SMOOTH",
"195 544 OFFCURVE",
"280 607 OFFCURVE",
"390 607 CURVE SMOOTH"
);
}
);
width = 690;
}
);
leftKerningGroup = C;
rightKerningGroup = O;
unicode = 00D8;
},
{
glyphname = Otilde;
lastChange = "2014-09-05 18:36:11 -0800";
layers = (
{
background = {
paths = (
{
closed = 1;
nodes = (
"233 696 OFFCURVE",
"103 596 OFFCURVE",
"75 388 CURVE SMOOTH",
"60 276 OFFCURVE",
"56 264 OFFCURVE",
"57 235 CURVE",
"57 70 OFFCURVE",
"162 -10 OFFCURVE",
"303 -10 CURVE SMOOTH",
"474 -10 OFFCURVE",
"601 90 OFFCURVE",
"630 298 CURVE SMOOTH",
"646 410 OFFCURVE",
"647 431 OFFCURVE",
"647 450 CURVE SMOOTH",
"647 616 OFFCURVE",
"542 696 OFFCURVE",
"402 696 CURVE SMOOTH"
);
},
{
closed = 1;
nodes = (
"484 607 OFFCURVE",
"549 558 OFFCURVE",
"549 442 CURVE SMOOTH",
"549 426 OFFCURVE",
"548 406 OFFCURVE",
"532 298 CURVE SMOOTH",
"508 142 OFFCURVE",
"423 79 OFFCURVE",
"315 79 CURVE SMOOTH",
"220 79 OFFCURVE",
"156 127 OFFCURVE",
"156 244 CURVE SMOOTH",
"156 260 OFFCURVE",
"158 278 OFFCURVE",
"173 388 CURVE SMOOTH",
"195 544 OFFCURVE",
"280 607 OFFCURVE",
"390 607 CURVE SMOOTH"
);
},
{
closed = 1;
nodes = (
"577 854 LINE",
"567 831 OFFCURVE",
"547 819 OFFCURVE",
"517 819 CURVE SMOOTH",
"464 819 OFFCURVE",
"418 854 OFFCURVE",
"354 854 CURVE SMOOTH",
"276 854 OFFCURVE",
"236 795 OFFCURVE",
"228 750 CURVE",
"276 750 LINE",
"286 773 OFFCURVE",
"306 784 OFFCURVE",
"336 784 CURVE SMOOTH",
"390 784 OFFCURVE",
"436 750 OFFCURVE",
"500 750 CURVE SMOOTH",
"578 750 OFFCURVE",
"619 806 OFFCURVE",
"627 854 CURVE"
);
}
);
};
layerId = UUID0;
name = "Regular Italic";
paths = (
{
closed = 1;
nodes = (
"233 696 OFFCURVE",
"103 596 OFFCURVE",
"75 388 CURVE SMOOTH",
"60 276 OFFCURVE",
"56 264 OFFCURVE",
"57 235 CURVE",
"57 70 OFFCURVE",
"162 -10 OFFCURVE",
"303 -10 CURVE SMOOTH",
"474 -10 OFFCURVE",
"601 90 OFFCURVE",
"630 298 CURVE SMOOTH",
"646 410 OFFCURVE",
"647 431 OFFCURVE",
"647 450 CURVE SMOOTH",
"647 616 OFFCURVE",
"542 696 OFFCURVE",
"402 696 CURVE SMOOTH"
);
},
{
closed = 1;
nodes = (
"484 607 OFFCURVE",
"549 558 OFFCURVE",
"549 442 CURVE SMOOTH",
"549 426 OFFCURVE",
"548 406 OFFCURVE",
"532 298 CURVE SMOOTH",
"508 142 OFFCURVE",
"423 79 OFFCURVE",
"315 79 CURVE SMOOTH",
"220 79 OFFCURVE",
"156 127 OFFCURVE",
"156 244 CURVE SMOOTH",
"156 260 OFFCURVE",
"158 278 OFFCURVE",
"173 388 CURVE SMOOTH",
"195 544 OFFCURVE",
"280 607 OFFCURVE",
"390 607 CURVE SMOOTH"
);
},
{
closed = 1;
nodes = (
"577 854 LINE",
"567 831 OFFCURVE",
"547 819 OFFCURVE",
"517 819 CURVE SMOOTH",
"464 819 OFFCURVE",
"418 854 OFFCURVE",
"354 854 CURVE SMOOTH",
"276 854 OFFCURVE",
"236 795 OFFCURVE",
"228 750 CURVE",
"276 750 LINE",
"286 773 OFFCURVE",
"306 784 OFFCURVE",
"336 784 CURVE SMOOTH",
"390 784 OFFCURVE",
"436 750 OFFCURVE",
"500 750 CURVE SMOOTH",
"578 750 OFFCURVE",
"619 806 OFFCURVE",
"627 854 CURVE"
);
}
);
width = 690;
}
);
leftKerningGroup = C;
rightKerningGroup = O;
unicode = 00D5;
},
{
glyphname = OE;
lastChange = "2014-09-05 18:36:11 -0800";
layers = (
{
anchors = (
{
name = top;
position = "{516, 686}";
}
);
background = {
anchors = (
{
name = top;
position = "{516, 686}";
}
);
paths = (
{
closed = 1;
nodes = (
"233 696 OFFCURVE",
"103 596 OFFCURVE",
"75 388 CURVE SMOOTH",
"60 276 OFFCURVE",
"56 264 OFFCURVE",
"57 235 CURVE",
"57 70 OFFCURVE",
"162 -10 OFFCURVE",
"303 -10 CURVE SMOOTH",
"379 -10 OFFCURVE",
"443 8 OFFCURVE",
"496 47 CURVE",
"490 0 LINE",
"946 0 LINE",
"946 89 LINE",
"601 89 LINE",
"631 306 LINE",
"938 306 LINE",
"951 395 LINE",
"644 395 LINE",
"672 597 LINE",
"1011 597 LINE",
"1037 686 LINE",
"587 686 LINE",
"579 633 LINE",
"535 676 OFFCURVE",
"474 696 OFFCURVE",
"402 696 CURVE SMOOTH"
);
},
{
closed = 1;
nodes = (
"484 607 OFFCURVE",
"549 558 OFFCURVE",
"549 442 CURVE SMOOTH",
"549 426 OFFCURVE",
"548 406 OFFCURVE",
"532 298 CURVE SMOOTH",
"508 142 OFFCURVE",
"423 79 OFFCURVE",
"315 79 CURVE SMOOTH",
"220 79 OFFCURVE",
"156 127 OFFCURVE",
"156 244 CURVE SMOOTH",
"156 260 OFFCURVE",
"158 278 OFFCURVE",
"173 388 CURVE SMOOTH",
"195 544 OFFCURVE",
"280 607 OFFCURVE",
"390 607 CURVE SMOOTH"
);
}
);
};
layerId = UUID0;
name = "Regular Italic";
paths = (
{
closed = 1;
nodes = (
"233 696 OFFCURVE",
"103 596 OFFCURVE",
"75 388 CURVE SMOOTH",
"60 276 OFFCURVE",
"56 264 OFFCURVE",
"57 235 CURVE",
"57 70 OFFCURVE",
"162 -10 OFFCURVE",
"303 -10 CURVE SMOOTH",
"379 -10 OFFCURVE",
"443 8 OFFCURVE",
"496 47 CURVE",
"490 0 LINE",
"946 0 LINE",
"946 89 LINE",
"601 89 LINE",
"631 306 LINE",
"938 306 LINE",
"951 395 LINE",
"644 395 LINE",
"672 597 LINE",
"1011 597 LINE",
"1037 686 LINE",
"587 686 LINE",
"579 633 LINE",
"535 676 OFFCURVE",
"474 696 OFFCURVE",
"402 696 CURVE SMOOTH"
);
},
{
closed = 1;
nodes = (
"484 607 OFFCURVE",
"549 558 OFFCURVE",
"549 442 CURVE SMOOTH",
"549 426 OFFCURVE",
"548 406 OFFCURVE",
"532 298 CURVE SMOOTH",
"508 142 OFFCURVE",
"423 79 OFFCURVE",
"315 79 CURVE SMOOTH",
"220 79 OFFCURVE",
"156 127 OFFCURVE",
"156 244 CURVE SMOOTH",
"156 260 OFFCURVE",
"158 278 OFFCURVE",
"173 388 CURVE SMOOTH",
"195 544 OFFCURVE",
"280 607 OFFCURVE",
"390 607 CURVE SMOOTH"
);
}
);
width = 1031;
}
);
leftKerningGroup = C;
rightKerningGroup = E;
unicode = 0152;
},
{
glyphname = P;
lastChange = "2014-09-05 18:36:11 -0800";
layers = (
{
background = {
paths = (
{
closed = 1;
nodes = (
"148 686 LINE",
"51 0 LINE",
"149 0 LINE",
"189 286 LINE",
"387 286 LINE SMOOTH",
"527 286 OFFCURVE",
"623 378 OFFCURVE",
"623 517 CURVE SMOOTH",
"623 620 OFFCURVE",
"547 686 OFFCURVE",
"444 686 CURVE SMOOTH"
);
},
{
closed = 1;
nodes = (
"482 597 OFFCURVE",
"524 556 OFFCURVE",
"524 500 CURVE SMOOTH",
"524 433 OFFCURVE",
"459 375 OFFCURVE",
"391 375 CURVE SMOOTH",
"202 375 LINE",
"233 597 LINE",
"422 597 LINE SMOOTH"
);
}
);
};
layerId = UUID0;
name = "Regular Italic";
paths = (
{
closed = 1;
nodes = (
"148 686 LINE",
"51 0 LINE",
"149 0 LINE",
"189 286 LINE",
"387 286 LINE SMOOTH",
"527 286 OFFCURVE",
"623 378 OFFCURVE",
"623 517 CURVE SMOOTH",
"623 620 OFFCURVE",
"547 686 OFFCURVE",
"444 686 CURVE SMOOTH"
);
},
{
closed = 1;
nodes = (
"482 597 OFFCURVE",
"524 556 OFFCURVE",
"524 500 CURVE SMOOTH",
"524 433 OFFCURVE",
"459 375 OFFCURVE",
"391 375 CURVE SMOOTH",
"202 375 LINE",
"233 597 LINE",
"422 597 LINE SMOOTH"
);
}
);
width = 626;
}
);
leftKerningGroup = B;
unicode = 0050;
},
{
glyphname = Thorn;
lastChange = "2014-09-05 18:36:11 -0800";
layers = (
{
background = {
paths = (
{
closed = 1;
nodes = (
"148 686 LINE",
"51 0 LINE",
"149 0 LINE",
"172 162 LINE",
"370 162 LINE SMOOTH",
"491 162 OFFCURVE",
"605 246 OFFCURVE",
"605 393 CURVE SMOOTH",
"605 496 OFFCURVE",
"529 562 OFFCURVE",
"426 562 CURVE SMOOTH",
"228 562 LINE",
"246 686 LINE"
);
},
{
closed = 1;
nodes = (
"465 473 OFFCURVE",
"506 431 OFFCURVE",
"506 378 CURVE SMOOTH",
"506 310 OFFCURVE",
"443 251 OFFCURVE",
"374 251 CURVE SMOOTH",
"185 251 LINE",
"216 473 LINE",
"405 473 LINE SMOOTH"
);
}
);
};
layerId = UUID0;
name = "Regular Italic";
paths = (
{
closed = 1;
nodes = (
"148 686 LINE",
"51 0 LINE",
"149 0 LINE",
"172 162 LINE",
"370 162 LINE SMOOTH",
"491 162 OFFCURVE",
"605 246 OFFCURVE",
"605 393 CURVE SMOOTH",
"605 496 OFFCURVE",
"529 562 OFFCURVE",
"426 562 CURVE SMOOTH",
"228 562 LINE",
"246 686 LINE"
);
},
{
closed = 1;
nodes = (
"465 473 OFFCURVE",
"506 431 OFFCURVE",
"506 378 CURVE SMOOTH",
"506 310 OFFCURVE",
"443 251 OFFCURVE",
"374 251 CURVE SMOOTH",
"185 251 LINE",
"216 473 LINE",
"405 473 LINE SMOOTH"
);
}
);
width = 633;
}
);
leftKerningGroup = B;
unicode = 00DE;
},
{
glyphname = Q;
lastChange = "2014-09-05 18:36:11 -0800";
layers = (
{
background = {
paths = (
{
closed = 1;
nodes = (
"233 696 OFFCURVE",
"103 596 OFFCURVE",
"75 388 CURVE SMOOTH",
"60 276 OFFCURVE",
"56 264 OFFCURVE",
"57 235 CURVE",
"57 85 OFFCURVE",
"140 5 OFFCURVE",
"263 -8 CURVE",
"263 -102 OFFCURVE",
"340 -145 OFFCURVE",
"424 -145 CURVE SMOOTH",
"487 -145 OFFCURVE",
"534 -128 OFFCURVE",
"561 -112 CURVE",
"571 -42 LINE",
"558 -46 LINE SMOOTH",
"534 -54 OFFCURVE",
"487 -70 OFFCURVE",
"450 -70 CURVE SMOOTH",
"387 -70 OFFCURVE",
"363 -35 OFFCURVE",
"360 -6 CURVE",
"501 14 OFFCURVE",
"603 114 OFFCURVE",
"630 298 CURVE SMOOTH",
"646 410 OFFCURVE",
"647 431 OFFCURVE",
"647 450 CURVE SMOOTH",
"647 616 OFFCURVE",
"542 696 OFFCURVE",
"402 696 CURVE SMOOTH"
);
},
{
closed = 1;
nodes = (
"484 607 OFFCURVE",
"549 558 OFFCURVE",
"549 442 CURVE SMOOTH",
"549 426 OFFCURVE",
"548 406 OFFCURVE",
"532 298 CURVE SMOOTH",
"508 142 OFFCURVE",
"423 79 OFFCURVE",
"315 79 CURVE SMOOTH",
"220 79 OFFCURVE",
"156 127 OFFCURVE",
"156 244 CURVE SMOOTH",
"156 260 OFFCURVE",
"158 278 OFFCURVE",
"173 388 CURVE SMOOTH",
"195 544 OFFCURVE",
"280 607 OFFCURVE",
"390 607 CURVE SMOOTH"
);
}
);
};
layerId = UUID0;
name = "Regular Italic";
paths = (
{
closed = 1;
nodes = (
"233 696 OFFCURVE",
"103 596 OFFCURVE",
"75 388 CURVE SMOOTH",
"60 276 OFFCURVE",
"56 264 OFFCURVE",
"57 235 CURVE",
"57 85 OFFCURVE",
"140 5 OFFCURVE",
"263 -8 CURVE",
"263 -102 OFFCURVE",
"340 -145 OFFCURVE",
"424 -145 CURVE SMOOTH",
"487 -145 OFFCURVE",
"534 -128 OFFCURVE",
"561 -112 CURVE",
"571 -42 LINE",
"558 -46 LINE SMOOTH",
"534 -54 OFFCURVE",
"487 -70 OFFCURVE",
"450 -70 CURVE SMOOTH",
"387 -70 OFFCURVE",
"363 -35 OFFCURVE",
"360 -6 CURVE",
"501 14 OFFCURVE",
"603 114 OFFCURVE",
"630 298 CURVE SMOOTH",
"646 410 OFFCURVE",
"647 431 OFFCURVE",
"647 450 CURVE SMOOTH",
"647 616 OFFCURVE",
"542 696 OFFCURVE",
"402 696 CURVE SMOOTH"
);
},
{
closed = 1;
nodes = (
"484 607 OFFCURVE",
"549 558 OFFCURVE",
"549 442 CURVE SMOOTH",
"549 426 OFFCURVE",
"548 406 OFFCURVE",
"532 298 CURVE SMOOTH",
"508 142 OFFCURVE",
"423 79 OFFCURVE",
"315 79 CURVE SMOOTH",
"220 79 OFFCURVE",
"156 127 OFFCURVE",
"156 244 CURVE SMOOTH",
"156 260 OFFCURVE",
"158 278 OFFCURVE",
"173 388 CURVE SMOOTH",
"195 544 OFFCURVE",
"280 607 OFFCURVE",
"390 607 CURVE SMOOTH"
);
}
);
width = 690;
}
);
leftKerningGroup = C;
rightKerningGroup = O;
unicode = 0051;
},
{
glyphname = R;
lastChange = "2014-09-05 19:02:59 -0800";
layers = (
{
anchors = (
{
name = bottom;
position = "{335, 0}";
},
{
name = top;
position = "{365, 686}";
}
);
background = {
anchors = (
{
name = top;
position = "{335, 686}";
},
{
name = bottom;
position = "{335, 0}";
}
);
paths = (
{
closed = 1;
nodes = (
"147 686 LINE",
"51 0 LINE",
"149 0 LINE",
"191 302 LINE",
"365 302 LINE SMOOTH",
"408 302 OFFCURVE",
"461 273 OFFCURVE",
"461 173 CURVE SMOOTH",
"461 157 OFFCURVE",
"454 110 OFFCURVE",
"454 85 CURVE SMOOTH",
"454 10 OFFCURVE",
"493 -5 OFFCURVE",
"536 -5 CURVE SMOOTH",
"557 -5 OFFCURVE",
"578 -1 OFFCURVE",
"589 3 CURVE",
"593 31 LINE",
"570 40 OFFCURVE",
"555 56 OFFCURVE",
"555 104 CURVE SMOOTH",
"555 128 OFFCURVE",
"563 171 OFFCURVE",
"563 202 CURVE SMOOTH",
"563 309 OFFCURVE",
"495 341 OFFCURVE",
"477 349 CURVE",
"477 354 LINE",
"573 370 OFFCURVE",
"625 461 OFFCURVE",
"625 543 CURVE SMOOTH",
"625 642 OFFCURVE",
"539 686 OFFCURVE",
"439 686 CURVE SMOOTH"
);
},
{
closed = 1;
nodes = (
"488 597 OFFCURVE",
"523 562 OFFCURVE",
"523 511 CURVE SMOOTH",
"523 442 OFFCURVE",
"459 391 OFFCURVE",
"399 391 CURVE SMOOTH",
"204 391 LINE",
"233 597 LINE",
"428 597 LINE SMOOTH"
);
}
);
};
layerId = UUID0;
name = "Regular Italic";
paths = (
{
closed = 1;
nodes = (
"147 686 LINE",
"51 0 LINE",
"149 0 LINE",
"191 302 LINE",
"365 302 LINE SMOOTH",
"408 302 OFFCURVE",
"461 273 OFFCURVE",
"461 173 CURVE SMOOTH",
"461 157 OFFCURVE",
"454 110 OFFCURVE",
"454 85 CURVE SMOOTH",
"454 10 OFFCURVE",
"493 -5 OFFCURVE",
"536 -5 CURVE SMOOTH",
"557 -5 OFFCURVE",
"578 -1 OFFCURVE",
"589 3 CURVE",
"593 31 LINE",
"570 40 OFFCURVE",
"555 56 OFFCURVE",
"555 104 CURVE SMOOTH",
"555 128 OFFCURVE",
"563 171 OFFCURVE",
"563 202 CURVE SMOOTH",
"563 309 OFFCURVE",
"495 341 OFFCURVE",
"477 349 CURVE",
"477 354 LINE",
"573 370 OFFCURVE",
"625 461 OFFCURVE",
"625 543 CURVE SMOOTH",
"625 642 OFFCURVE",
"539 686 OFFCURVE",
"439 686 CURVE SMOOTH"
);
},
{
closed = 1;
nodes = (
"488 597 OFFCURVE",
"523 562 OFFCURVE",
"523 511 CURVE SMOOTH",
"523 442 OFFCURVE",
"459 391 OFFCURVE",
"399 391 CURVE SMOOTH",
"204 391 LINE",
"233 597 LINE",
"428 597 LINE SMOOTH"
);
}
);
width = 670;
}
);
leftKerningGroup = B;
unicode = 0052;
},
{
glyphname = S;
lastChange = "2014-09-05 19:03:04 -0800";
layers = (
{
anchors = (
{
name = bottom;
position = "{285, 0}";
},
{
name = top;
position = "{365, 686}";
}
);
background = {
anchors = (
{
name = top;
position = "{315, 686}";
},
{
name = bottom;
position = "{315, 0}";
}
);
paths = (
{
closed = 1;
nodes = (
"216 696 OFFCURVE",
"97 634 OFFCURVE",
"97 499 CURVE SMOOTH",
"97 261 OFFCURVE",
"463 354 OFFCURVE",
"463 201 CURVE SMOOTH",
"463 120 OFFCURVE",
"390 79 OFFCURVE",
"278 79 CURVE SMOOTH",
"194 79 OFFCURVE",
"135 108 OFFCURVE",
"135 175 CURVE SMOOTH",
"135 183 OFFCURVE",
"136 210 OFFCURVE",
"141 215 CURVE",
"43 215 LINE",
"39 203 OFFCURVE",
"36 177 OFFCURVE",
"36 160 CURVE SMOOTH",
"36 36 OFFCURVE",
"141 -10 OFFCURVE",
"271 -10 CURVE SMOOTH",
"440 -10 OFFCURVE",
"564 48 OFFCURVE",
"564 211 CURVE SMOOTH",
"564 446 OFFCURVE",
"197 357 OFFCURVE",
"197 504 CURVE SMOOTH",
"197 575 OFFCURVE",
"271 607 OFFCURVE",
"361 607 CURVE SMOOTH",
"437 607 OFFCURVE",
"490 577 OFFCURVE",
"490 520 CURVE SMOOTH",
"490 516 OFFCURVE",
"490 512 OFFCURVE",
"486 492 CURVE",
"584 492 LINE",
"588 515 OFFCURVE",
"588 525 OFFCURVE",
"588 536 CURVE SMOOTH",
"588 649 OFFCURVE",
"493 696 OFFCURVE",
"371 696 CURVE SMOOTH"
);
}
);
};
layerId = UUID0;
name = "Regular Italic";
paths = (
{
closed = 1;
nodes = (
"216 696 OFFCURVE",
"97 634 OFFCURVE",
"97 499 CURVE SMOOTH",
"97 261 OFFCURVE",
"463 354 OFFCURVE",
"463 201 CURVE SMOOTH",
"463 120 OFFCURVE",
"390 79 OFFCURVE",
"278 79 CURVE SMOOTH",
"194 79 OFFCURVE",
"135 108 OFFCURVE",
"135 175 CURVE SMOOTH",
"135 183 OFFCURVE",
"136 210 OFFCURVE",
"141 215 CURVE",
"43 215 LINE",
"39 203 OFFCURVE",
"36 177 OFFCURVE",
"36 160 CURVE SMOOTH",
"36 36 OFFCURVE",
"141 -10 OFFCURVE",
"271 -10 CURVE SMOOTH",
"440 -10 OFFCURVE",
"564 48 OFFCURVE",
"564 211 CURVE SMOOTH",
"564 446 OFFCURVE",
"197 357 OFFCURVE",
"197 504 CURVE SMOOTH",
"197 575 OFFCURVE",
"271 607 OFFCURVE",
"361 607 CURVE SMOOTH",
"437 607 OFFCURVE",
"490 577 OFFCURVE",
"490 520 CURVE SMOOTH",
"490 516 OFFCURVE",
"490 512 OFFCURVE",
"486 492 CURVE",
"584 492 LINE",
"588 515 OFFCURVE",
"588 525 OFFCURVE",
"588 536 CURVE SMOOTH",
"588 649 OFFCURVE",
"493 696 OFFCURVE",
"371 696 CURVE SMOOTH"
);
}
);
width = 629;
}
);
leftKerningGroup = S;
rightKerningGroup = S;
unicode = 0053;
},
{
glyphname = Scaron;
lastChange = "2014-09-05 18:36:11 -0800";
layers = (
{
background = {
paths = (
{
closed = 1;
nodes = (
"216 696 OFFCURVE",
"97 634 OFFCURVE",
"97 499 CURVE SMOOTH",
"97 261 OFFCURVE",
"463 354 OFFCURVE",
"463 201 CURVE SMOOTH",
"463 120 OFFCURVE",
"390 79 OFFCURVE",
"278 79 CURVE SMOOTH",
"194 79 OFFCURVE",
"135 108 OFFCURVE",
"135 175 CURVE SMOOTH",
"135 183 OFFCURVE",
"136 210 OFFCURVE",
"141 215 CURVE",
"43 215 LINE",
"39 203 OFFCURVE",
"36 177 OFFCURVE",
"36 160 CURVE SMOOTH",
"36 36 OFFCURVE",
"141 -10 OFFCURVE",
"271 -10 CURVE SMOOTH",
"440 -10 OFFCURVE",
"564 48 OFFCURVE",
"564 211 CURVE SMOOTH",
"564 446 OFFCURVE",
"197 357 OFFCURVE",
"197 504 CURVE SMOOTH",
"197 575 OFFCURVE",
"271 607 OFFCURVE",
"361 607 CURVE SMOOTH",
"437 607 OFFCURVE",
"490 577 OFFCURVE",
"490 520 CURVE SMOOTH",
"490 516 OFFCURVE",
"490 512 OFFCURVE",
"486 492 CURVE",
"584 492 LINE",
"588 515 OFFCURVE",
"588 525 OFFCURVE",
"588 536 CURVE SMOOTH",
"588 649 OFFCURVE",
"493 696 OFFCURVE",
"371 696 CURVE SMOOTH"
);
},
{
closed = 1;
nodes = (
"493 895 LINE",
"386 806 LINE",
"304 895 LINE",
"224 895 LINE",
"339 750 LINE",
"417 750 LINE",
"573 895 LINE"
);
}
);
};
layerId = UUID0;
name = "Regular Italic";
paths = (
{
closed = 1;
nodes = (
"216 696 OFFCURVE",
"97 634 OFFCURVE",
"97 499 CURVE SMOOTH",
"97 261 OFFCURVE",
"463 354 OFFCURVE",
"463 201 CURVE SMOOTH",
"463 120 OFFCURVE",
"390 79 OFFCURVE",
"278 79 CURVE SMOOTH",
"194 79 OFFCURVE",
"135 108 OFFCURVE",
"135 175 CURVE SMOOTH",
"135 183 OFFCURVE",
"136 210 OFFCURVE",
"141 215 CURVE",
"43 215 LINE",
"39 203 OFFCURVE",
"36 177 OFFCURVE",
"36 160 CURVE SMOOTH",
"36 36 OFFCURVE",
"141 -10 OFFCURVE",
"271 -10 CURVE SMOOTH",
"440 -10 OFFCURVE",
"564 48 OFFCURVE",
"564 211 CURVE SMOOTH",
"564 446 OFFCURVE",
"197 357 OFFCURVE",
"197 504 CURVE SMOOTH",
"197 575 OFFCURVE",
"271 607 OFFCURVE",
"361 607 CURVE SMOOTH",
"437 607 OFFCURVE",
"490 577 OFFCURVE",
"490 520 CURVE SMOOTH",
"490 516 OFFCURVE",
"490 512 OFFCURVE",
"486 492 CURVE",
"584 492 LINE",
"588 515 OFFCURVE",
"588 525 OFFCURVE",
"588 536 CURVE SMOOTH",
"588 649 OFFCURVE",
"493 696 OFFCURVE",
"371 696 CURVE SMOOTH"
);
},
{
closed = 1;
nodes = (
"493 895 LINE",
"386 806 LINE",
"304 895 LINE",
"224 895 LINE",
"339 750 LINE",
"417 750 LINE",
"573 895 LINE"
);
}
);
width = 629;
}
);
leftKerningGroup = S;
rightKerningGroup = S;
unicode = 0160;
},
{
glyphname = T;
lastChange = "2014-09-05 19:03:14 -0800";
layers = (
{
anchors = (
{
name = bottom;
position = "{246, 0}";
},
{
name = center;
position = "{288, 343}";
},
{
name = top;
position = "{344, 686}";
}
);
background = {
anchors = (
{
name = center;
position = "{288, 343}";
},
{
name = bottom;
position = "{288, 0}";
},
{
name = top;
position = "{288, 686}";
}
);
paths = (
{
closed = 1;
nodes = (
"80 686 LINE",
"67 597 LINE",
"281 597 LINE",
"197 0 LINE",
"295 0 LINE",
"379 597 LINE",
"594 597 LINE",
"607 686 LINE"
);
}
);
};
layerId = UUID0;
name = "Regular Italic";
paths = (
{
closed = 1;
nodes = (
"80 686 LINE",
"67 597 LINE",
"281 597 LINE",
"197 0 LINE",
"295 0 LINE",
"379 597 LINE",
"594 597 LINE",
"607 686 LINE"
);
}
);
width = 575;
}
);
unicode = 0054;
},
{
glyphname = U;
lastChange = "2014-09-05 19:03:23 -0800";
layers = (
{
anchors = (
{
name = ogonek;
position = "{424, 10}";
},
{
name = top;
position = "{396, 686}";
}
);
background = {
anchors = (
{
name = ogonek;
position = "{614, 10}";
},
{
name = top;
position = "{341, 686}";
}
);
paths = (
{
closed = 1;
nodes = (
"552 686 LINE",
"487 221 LINE SMOOTH",
"475 137 OFFCURVE",
"408 79 OFFCURVE",
"311 79 CURVE SMOOTH",
"223 79 OFFCURVE",
"173 129 OFFCURVE",
"173 200 CURVE SMOOTH",
"173 205 OFFCURVE",
"173 209 OFFCURVE",
"176 228 CURVE SMOOTH",
"182 272 LINE SMOOTH",
"190 333 OFFCURVE",
"208 450 OFFCURVE",
"240 686 CURVE",
"142 686 LINE",
"78 218 OFFCURVE",
"74 201 OFFCURVE",
"74 180 CURVE SMOOTH",
"74 63 OFFCURVE",
"156 -10 OFFCURVE",
"292 -10 CURVE SMOOTH",
"305 -10 LINE SMOOTH",
"467 -10 OFFCURVE",
"565 79 OFFCURVE",
"585 219 CURVE SMOOTH",
"650 686 LINE"
);
}
);
};
layerId = UUID0;
name = "Regular Italic";
paths = (
{
closed = 1;
nodes = (
"552 686 LINE",
"487 221 LINE SMOOTH",
"475 137 OFFCURVE",
"408 79 OFFCURVE",
"311 79 CURVE SMOOTH",
"223 79 OFFCURVE",
"173 129 OFFCURVE",
"173 200 CURVE SMOOTH",
"173 205 OFFCURVE",
"173 209 OFFCURVE",
"176 228 CURVE SMOOTH",
"182 272 LINE SMOOTH",
"190 333 OFFCURVE",
"208 450 OFFCURVE",
"240 686 CURVE",
"142 686 LINE",
"78 218 OFFCURVE",
"74 201 OFFCURVE",
"74 180 CURVE SMOOTH",
"74 63 OFFCURVE",
"156 -10 OFFCURVE",
"292 -10 CURVE SMOOTH",
"305 -10 LINE SMOOTH",
"467 -10 OFFCURVE",
"565 79 OFFCURVE",
"585 219 CURVE SMOOTH",
"650 686 LINE"
);
}
);
width = 682;
}
);
leftKerningGroup = U;
rightKerningGroup = U;
unicode = 0055;
},
{
glyphname = Uacute;
lastChange = "2014-09-05 18:36:11 -0800";
layers = (
{
background = {
paths = (
{
closed = 1;
nodes = (
"552 686 LINE",
"487 221 LINE SMOOTH",
"475 137 OFFCURVE",
"408 79 OFFCURVE",
"311 79 CURVE SMOOTH",
"223 79 OFFCURVE",
"173 129 OFFCURVE",
"173 200 CURVE SMOOTH",
"173 205 OFFCURVE",
"173 209 OFFCURVE",
"176 228 CURVE SMOOTH",
"182 272 LINE SMOOTH",
"190 333 OFFCURVE",
"208 450 OFFCURVE",
"240 686 CURVE",
"142 686 LINE",
"78 218 OFFCURVE",
"74 201 OFFCURVE",
"74 180 CURVE SMOOTH",
"74 63 OFFCURVE",
"156 -10 OFFCURVE",
"292 -10 CURVE SMOOTH",
"305 -10 LINE SMOOTH",
"467 -10 OFFCURVE",
"565 79 OFFCURVE",
"585 219 CURVE SMOOTH",
"650 686 LINE"
);
},
{
closed = 1;
nodes = (
"482 895 LINE",
"367 750 LINE",
"436 750 LINE",
"572 891 LINE",
"572 895 LINE"
);
}
);
};
layerId = UUID0;
name = "Regular Italic";
paths = (
{
closed = 1;
nodes = (
"552 686 LINE",
"487 221 LINE SMOOTH",
"475 137 OFFCURVE",
"408 79 OFFCURVE",
"311 79 CURVE SMOOTH",
"223 79 OFFCURVE",
"173 129 OFFCURVE",
"173 200 CURVE SMOOTH",
"173 205 OFFCURVE",
"173 209 OFFCURVE",
"176 228 CURVE SMOOTH",
"182 272 LINE SMOOTH",
"190 333 OFFCURVE",
"208 450 OFFCURVE",
"240 686 CURVE",
"142 686 LINE",
"78 218 OFFCURVE",
"74 201 OFFCURVE",
"74 180 CURVE SMOOTH",
"74 63 OFFCURVE",
"156 -10 OFFCURVE",
"292 -10 CURVE SMOOTH",
"305 -10 LINE SMOOTH",
"467 -10 OFFCURVE",
"565 79 OFFCURVE",
"585 219 CURVE SMOOTH",
"650 686 LINE"
);
},
{
closed = 1;
nodes = (
"482 895 LINE",
"367 750 LINE",
"436 750 LINE",
"572 891 LINE",
"572 895 LINE"
);
}
);
width = 682;
}
);
leftKerningGroup = U;
rightKerningGroup = U;
unicode = 00DA;
},
{
glyphname = Ucircumflex;
lastChange = "2014-09-05 18:36:11 -0800";
layers = (
{
background = {
paths = (
{
closed = 1;
nodes = (
"552 686 LINE",
"487 221 LINE SMOOTH",
"475 137 OFFCURVE",
"408 79 OFFCURVE",
"311 79 CURVE SMOOTH",
"223 79 OFFCURVE",
"173 129 OFFCURVE",
"173 200 CURVE SMOOTH",
"173 205 OFFCURVE",
"173 209 OFFCURVE",
"176 228 CURVE SMOOTH",
"182 272 LINE SMOOTH",
"190 333 OFFCURVE",
"208 450 OFFCURVE",
"240 686 CURVE",
"142 686 LINE",
"78 218 OFFCURVE",
"74 201 OFFCURVE",
"74 180 CURVE SMOOTH",
"74 63 OFFCURVE",
"156 -10 OFFCURVE",
"292 -10 CURVE SMOOTH",
"305 -10 LINE SMOOTH",
"467 -10 OFFCURVE",
"565 79 OFFCURVE",
"585 219 CURVE SMOOTH",
"650 686 LINE"
);
},
{
closed = 1;
nodes = (
"380 895 LINE",
"223 750 LINE",
"303 750 LINE",
"411 839 LINE",
"492 750 LINE",
"572 750 LINE",
"458 895 LINE"
);
}
);
};
layerId = UUID0;
name = "Regular Italic";
paths = (
{
closed = 1;
nodes = (
"552 686 LINE",
"487 221 LINE SMOOTH",
"475 137 OFFCURVE",
"408 79 OFFCURVE",
"311 79 CURVE SMOOTH",
"223 79 OFFCURVE",
"173 129 OFFCURVE",
"173 200 CURVE SMOOTH",
"173 205 OFFCURVE",
"173 209 OFFCURVE",
"176 228 CURVE SMOOTH",
"182 272 LINE SMOOTH",
"190 333 OFFCURVE",
"208 450 OFFCURVE",
"240 686 CURVE",
"142 686 LINE",
"78 218 OFFCURVE",
"74 201 OFFCURVE",
"74 180 CURVE SMOOTH",
"74 63 OFFCURVE",
"156 -10 OFFCURVE",
"292 -10 CURVE SMOOTH",
"305 -10 LINE SMOOTH",
"467 -10 OFFCURVE",
"565 79 OFFCURVE",
"585 219 CURVE SMOOTH",
"650 686 LINE"
);
},
{
closed = 1;
nodes = (
"380 895 LINE",
"223 750 LINE",
"303 750 LINE",
"411 839 LINE",
"492 750 LINE",
"572 750 LINE",
"458 895 LINE"
);
}
);
width = 682;
}
);
leftKerningGroup = U;
rightKerningGroup = U;
unicode = 00DB;
},
{
glyphname = Udieresis;
lastChange = "2014-09-05 18:36:11 -0800";
layers = (
{
background = {
paths = (
{
closed = 1;
nodes = (
"552 686 LINE",
"487 221 LINE SMOOTH",
"475 137 OFFCURVE",
"408 79 OFFCURVE",
"311 79 CURVE SMOOTH",
"223 79 OFFCURVE",
"173 129 OFFCURVE",
"173 200 CURVE SMOOTH",
"173 205 OFFCURVE",
"173 209 OFFCURVE",
"176 228 CURVE SMOOTH",
"182 272 LINE SMOOTH",
"190 333 OFFCURVE",
"208 450 OFFCURVE",
"240 686 CURVE",
"142 686 LINE",
"78 218 OFFCURVE",
"74 201 OFFCURVE",
"74 180 CURVE SMOOTH",
"74 63 OFFCURVE",
"156 -10 OFFCURVE",
"292 -10 CURVE SMOOTH",
"305 -10 LINE SMOOTH",
"467 -10 OFFCURVE",
"565 79 OFFCURVE",
"585 219 CURVE SMOOTH",
"650 686 LINE"
);
},
{
closed = 1;
nodes = (
"278 847 LINE",
"265 749 LINE",
"355 749 LINE",
"368 847 LINE"
);
},
{
closed = 1;
nodes = (
"466 847 LINE",
"453 749 LINE",
"544 749 LINE",
"557 847 LINE"
);
}
);
};
layerId = UUID0;
name = "Regular Italic";
paths = (
{
closed = 1;
nodes = (
"552 686 LINE",
"487 221 LINE SMOOTH",
"475 137 OFFCURVE",
"408 79 OFFCURVE",
"311 79 CURVE SMOOTH",
"223 79 OFFCURVE",
"173 129 OFFCURVE",
"173 200 CURVE SMOOTH",
"173 205 OFFCURVE",
"173 209 OFFCURVE",
"176 228 CURVE SMOOTH",
"182 272 LINE SMOOTH",
"190 333 OFFCURVE",
"208 450 OFFCURVE",
"240 686 CURVE",
"142 686 LINE",
"78 218 OFFCURVE",
"74 201 OFFCURVE",
"74 180 CURVE SMOOTH",
"74 63 OFFCURVE",
"156 -10 OFFCURVE",
"292 -10 CURVE SMOOTH",
"305 -10 LINE SMOOTH",
"467 -10 OFFCURVE",
"565 79 OFFCURVE",
"585 219 CURVE SMOOTH",
"650 686 LINE"
);
},
{
closed = 1;
nodes = (
"278 847 LINE",
"265 749 LINE",
"355 749 LINE",
"368 847 LINE"
);
},
{
closed = 1;
nodes = (
"466 847 LINE",
"453 749 LINE",
"544 749 LINE",
"557 847 LINE"
);
}
);
width = 682;
}
);
leftKerningGroup = U;
rightKerningGroup = U;
unicode = 00DC;
},
{
glyphname = Ugrave;
lastChange = "2014-09-05 18:36:11 -0800";
layers = (
{
background = {
paths = (
{
closed = 1;
nodes = (
"552 686 LINE",
"487 221 LINE SMOOTH",
"475 137 OFFCURVE",
"408 79 OFFCURVE",
"311 79 CURVE SMOOTH",
"223 79 OFFCURVE",
"173 129 OFFCURVE",
"173 200 CURVE SMOOTH",
"173 205 OFFCURVE",
"173 209 OFFCURVE",
"176 228 CURVE SMOOTH",
"182 272 LINE SMOOTH",
"190 333 OFFCURVE",
"208 450 OFFCURVE",
"240 686 CURVE",
"142 686 LINE",
"78 218 OFFCURVE",
"74 201 OFFCURVE",
"74 180 CURVE SMOOTH",
"74 63 OFFCURVE",
"156 -10 OFFCURVE",
"292 -10 CURVE SMOOTH",
"305 -10 LINE SMOOTH",
"467 -10 OFFCURVE",
"565 79 OFFCURVE",
"585 219 CURVE SMOOTH",
"650 686 LINE"
);
},
{
closed = 1;
nodes = (
"279 895 LINE",
"277 892 LINE",
"372 750 LINE",
"442 750 LINE",
"368 895 LINE"
);
}
);
};
layerId = UUID0;
name = "Regular Italic";
paths = (
{
closed = 1;
nodes = (
"552 686 LINE",
"487 221 LINE SMOOTH",
"475 137 OFFCURVE",
"408 79 OFFCURVE",
"311 79 CURVE SMOOTH",
"223 79 OFFCURVE",
"173 129 OFFCURVE",
"173 200 CURVE SMOOTH",
"173 205 OFFCURVE",
"173 209 OFFCURVE",
"176 228 CURVE SMOOTH",
"182 272 LINE SMOOTH",
"190 333 OFFCURVE",
"208 450 OFFCURVE",
"240 686 CURVE",
"142 686 LINE",
"78 218 OFFCURVE",
"74 201 OFFCURVE",
"74 180 CURVE SMOOTH",
"74 63 OFFCURVE",
"156 -10 OFFCURVE",
"292 -10 CURVE SMOOTH",
"305 -10 LINE SMOOTH",
"467 -10 OFFCURVE",
"565 79 OFFCURVE",
"585 219 CURVE SMOOTH",
"650 686 LINE"
);
},
{
closed = 1;
nodes = (
"279 895 LINE",
"277 892 LINE",
"372 750 LINE",
"442 750 LINE",
"368 895 LINE"
);
}
);
width = 682;
}
);
leftKerningGroup = U;
rightKerningGroup = U;
unicode = 00D9;
},
{
glyphname = V;
lastChange = "2014-09-05 18:36:11 -0800";
layers = (
{
background = {
paths = (
{
closed = 1;
nodes = (
"556 686 LINE",
"284 133 LINE",
"278 133 LINE",
"163 686 LINE",
"59 686 LINE",
"205 0 LINE",
"310 0 LINE",
"651 686 LINE"
);
}
);
};
layerId = UUID0;
name = "Regular Italic";
paths = (
{
closed = 1;
nodes = (
"556 686 LINE",
"284 133 LINE",
"278 133 LINE",
"163 686 LINE",
"59 686 LINE",
"205 0 LINE",
"310 0 LINE",
"651 686 LINE"
);
}
);
width = 602;
}
);
unicode = 0056;
},
{
glyphname = W;
lastChange = "2014-09-05 19:03:31 -0800";
layers = (
{
anchors = (
{
name = top;
position = "{516, 686}";
}
);
background = {
anchors = (
{
name = top;
position = "{457, 686}";
}
);
paths = (
{
closed = 1;
nodes = (
"860 686 LINE",
"641 169 LINE",
"635 169 LINE",
"563 686 LINE",
"468 686 LINE",
"249 169 LINE",
"243 169 LINE",
"171 686 LINE",
"67 686 LINE",
"165 0 LINE",
"265 0 LINE",
"480 496 LINE",
"487 496 LINE",
"557 0 LINE",
"657 0 LINE",
"955 686 LINE"
);
}
);
};
layerId = UUID0;
name = "Regular Italic";
paths = (
{
closed = 1;
nodes = (
"860 686 LINE",
"641 169 LINE",
"635 169 LINE",
"563 686 LINE",
"468 686 LINE",
"249 169 LINE",
"243 169 LINE",
"171 686 LINE",
"67 686 LINE",
"165 0 LINE",
"265 0 LINE",
"480 496 LINE",
"487 496 LINE",
"557 0 LINE",
"657 0 LINE",
"955 686 LINE"
);
}
);
width = 914;
}
);
unicode = 0057;
},
{
glyphname = X;
lastChange = "2014-09-05 18:36:11 -0800";
layers = (
{
background = {
paths = (
{
closed = 1;
nodes = (
"545 685 LINE",
"528 665 LINE SMOOTH",
"495 627 OFFCURVE",
"422 538 OFFCURVE",
"338 440 CURVE",
"205 685 LINE",
"88 685 LINE",
"267 355 LINE",
"-32 0 LINE",
"76 0 LINE",
"135 67 OFFCURVE",
"207 157 OFFCURVE",
"310 276 CURVE",
"461 0 LINE",
"579 0 LINE",
"381 361 LINE",
"486 484 OFFCURVE",
"583 605 OFFCURVE",
"630 658 CURVE SMOOTH",
"654 685 LINE"
);
}
);
};
layerId = UUID0;
name = "Regular Italic";
paths = (
{
closed = 1;
nodes = (
"545 685 LINE",
"528 665 LINE SMOOTH",
"495 627 OFFCURVE",
"422 538 OFFCURVE",
"338 440 CURVE",
"205 685 LINE",
"88 685 LINE",
"267 355 LINE",
"-32 0 LINE",
"76 0 LINE",
"135 67 OFFCURVE",
"207 157 OFFCURVE",
"310 276 CURVE",
"461 0 LINE",
"579 0 LINE",
"381 361 LINE",
"486 484 OFFCURVE",
"583 605 OFFCURVE",
"630 658 CURVE SMOOTH",
"654 685 LINE"
);
}
);
width = 628;
}
);
unicode = 0058;
},
{
glyphname = Y;
lastChange = "2014-09-05 19:03:39 -0800";
layers = (
{
anchors = (
{
name = top;
position = "{344, 686}";
}
);
background = {
anchors = (
{
name = top;
position = "{285, 686}";
}
);
paths = (
{
closed = 1;
nodes = (
"528 686 LINE",
"302 367 LINE",
"298 367 LINE",
"160 686 LINE",
"49 686 LINE",
"231 265 LINE",
"193 0 LINE",
"291 0 LINE",
"329 265 LINE",
"629 686 LINE"
);
}
);
};
layerId = UUID0;
name = "Regular Italic";
paths = (
{
closed = 1;
nodes = (
"528 686 LINE",
"302 367 LINE",
"298 367 LINE",
"160 686 LINE",
"49 686 LINE",
"231 265 LINE",
"193 0 LINE",
"291 0 LINE",
"329 265 LINE",
"629 686 LINE"
);
}
);
width = 570;
}
);
leftKerningGroup = Y;
rightKerningGroup = Y;
unicode = 0059;
},
{
glyphname = Yacute;
lastChange = "2014-09-05 18:36:11 -0800";
layers = (
{
background = {
paths = (
{
closed = 1;
nodes = (
"528 686 LINE",
"302 367 LINE",
"298 367 LINE",
"160 686 LINE",
"49 686 LINE",
"231 265 LINE",
"193 0 LINE",
"291 0 LINE",
"329 265 LINE",
"629 686 LINE"
);
},
{
closed = 1;
nodes = (
"420 895 LINE",
"305 750 LINE",
"374 750 LINE",
"510 891 LINE",
"510 895 LINE"
);
}
);
};
layerId = UUID0;
name = "Regular Italic";
paths = (
{
closed = 1;
nodes = (
"528 686 LINE",
"302 367 LINE",
"298 367 LINE",
"160 686 LINE",
"49 686 LINE",
"231 265 LINE",
"193 0 LINE",
"291 0 LINE",
"329 265 LINE",
"629 686 LINE"
);
},
{
closed = 1;
nodes = (
"420 895 LINE",
"305 750 LINE",
"374 750 LINE",
"510 891 LINE",
"510 895 LINE"
);
}
);
width = 570;
}
);
leftKerningGroup = Y;
rightKerningGroup = Y;
unicode = 00DD;
},
{
glyphname = Ydieresis;
lastChange = "2014-09-05 18:36:11 -0800";
layers = (
{
background = {
paths = (
{
closed = 1;
nodes = (
"528 686 LINE",
"302 367 LINE",
"298 367 LINE",
"160 686 LINE",
"49 686 LINE",
"231 265 LINE",
"193 0 LINE",
"291 0 LINE",
"329 265 LINE",
"629 686 LINE"
);
},
{
closed = 1;
nodes = (
"226 847 LINE",
"213 749 LINE",
"303 749 LINE",
"316 847 LINE"
);
},
{
closed = 1;
nodes = (
"414 847 LINE",
"401 749 LINE",
"492 749 LINE",
"505 847 LINE"
);
}
);
};
layerId = UUID0;
name = "Regular Italic";
paths = (
{
closed = 1;
nodes = (
"528 686 LINE",
"302 367 LINE",
"298 367 LINE",
"160 686 LINE",
"49 686 LINE",
"231 265 LINE",
"193 0 LINE",
"291 0 LINE",
"329 265 LINE",
"629 686 LINE"
);
},
{
closed = 1;
nodes = (
"226 847 LINE",
"213 749 LINE",
"303 749 LINE",
"316 847 LINE"
);
},
{
closed = 1;
nodes = (
"414 847 LINE",
"401 749 LINE",
"492 749 LINE",
"505 847 LINE"
);
}
);
width = 570;
}
);
leftKerningGroup = Y;
rightKerningGroup = Y;
unicode = 0178;
},
{
glyphname = Z;
lastChange = "2014-09-05 19:03:44 -0800";
layers = (
{
anchors = (
{
name = top;
position = "{358, 686}";
}
);
background = {
anchors = (
{
name = top;
position = "{298, 686}";
}
);
paths = (
{
closed = 1;
nodes = (
"112 686 LINE",
"99 597 LINE",
"440 597 LINE",
"-3 38 LINE",
"-9 0 LINE",
"514 0 LINE",
"527 89 LINE",
"153 89 LINE",
"597 648 LINE",
"603 686 LINE"
);
}
);
};
layerId = UUID0;
name = "Regular Italic";
paths = (
{
closed = 1;
nodes = (
"112 686 LINE",
"99 597 LINE",
"440 597 LINE",
"-3 38 LINE",
"-9 0 LINE",
"514 0 LINE",
"527 89 LINE",
"153 89 LINE",
"597 648 LINE",
"603 686 LINE"
);
}
);
width = 595;
}
);
leftKerningGroup = Z;
rightKerningGroup = Z;
unicode = 005A;
},
{
glyphname = Zcaron;
lastChange = "2014-09-05 18:36:11 -0800";
layers = (
{
background = {
paths = (
{
closed = 1;
nodes = (
"112 686 LINE",
"99 597 LINE",
"440 597 LINE",
"-3 38 LINE",
"-9 0 LINE",
"514 0 LINE",
"527 89 LINE",
"153 89 LINE",
"597 648 LINE",
"603 686 LINE"
);
},
{
closed = 1;
nodes = (
"471 895 LINE",
"364 806 LINE",
"282 895 LINE",
"202 895 LINE",
"317 750 LINE",
"395 750 LINE",
"551 895 LINE"
);
}
);
};
layerId = UUID0;
name = "Regular Italic";
paths = (
{
closed = 1;
nodes = (
"112 686 LINE",
"99 597 LINE",
"440 597 LINE",
"-3 38 LINE",
"-9 0 LINE",
"514 0 LINE",
"527 89 LINE",
"153 89 LINE",
"597 648 LINE",
"603 686 LINE"
);
},
{
closed = 1;
nodes = (
"471 895 LINE",
"364 806 LINE",
"282 895 LINE",
"202 895 LINE",
"317 750 LINE",
"395 750 LINE",
"551 895 LINE"
);
}
);
width = 595;
}
);
leftKerningGroup = Z;
rightKerningGroup = Z;
unicode = 017D;
},
{
glyphname = a;
lastChange = "2014-09-05 19:03:50 -0800";
layers = (
{
anchors = (
{
name = ogonek;
position = "{506, 10}";
},
{
name = top;
position = "{304, 511}";
}
);
background = {
anchors = (
{
name = ogonek;
position = "{546, 10}";
},
{
name = top;
position = "{304, 511}";
}
);
paths = (
{
closed = 1;
nodes = (
"153 521 OFFCURVE",
"42 405 OFFCURVE",
"42 190 CURVE SMOOTH",
"42 52 OFFCURVE",
"116 -10 OFFCURVE",
"216 -10 CURVE SMOOTH",
"285 -10 OFFCURVE",
"338 18 OFFCURVE",
"381 65 CURVE",
"381 24 OFFCURVE",
"398 -10 OFFCURVE",
"457 -10 CURVE SMOOTH",
"493 -10 OFFCURVE",
"521 2 OFFCURVE",
"534 10 CURVE",
"543 79 LINE",
"532 72 OFFCURVE",
"511 65 OFFCURVE",
"496 65 CURVE SMOOTH",
"483 65 OFFCURVE",
"472 73 OFFCURVE",
"472 92 CURVE SMOOTH",
"472 95 OFFCURVE",
"502 332 OFFCURVE",
"530 511 CURVE",
"465 511 LINE",
"434 446 LINE",
"427 446 LINE",
"403 490 OFFCURVE",
"353 521 OFFCURVE",
"284 521 CURVE SMOOTH"
);
},
{
closed = 1;
nodes = (
"362 446 OFFCURVE",
"406 414 OFFCURVE",
"406 318 CURVE SMOOTH",
"406 179 OFFCURVE",
"356 65 OFFCURVE",
"244 65 CURVE SMOOTH",
"177 65 OFFCURVE",
"135 97 OFFCURVE",
"135 193 CURVE SMOOTH",
"135 295 OFFCURVE",
"166 446 OFFCURVE",
"297 446 CURVE SMOOTH"
);
}
);
};
layerId = UUID0;
name = "Regular Italic";
paths = (
{
closed = 1;
nodes = (
"153 521 OFFCURVE",
"42 405 OFFCURVE",
"42 190 CURVE SMOOTH",
"42 52 OFFCURVE",
"116 -10 OFFCURVE",
"216 -10 CURVE SMOOTH",
"285 -10 OFFCURVE",
"338 18 OFFCURVE",
"381 65 CURVE",
"381 24 OFFCURVE",
"398 -10 OFFCURVE",
"457 -10 CURVE SMOOTH",
"493 -10 OFFCURVE",
"521 2 OFFCURVE",
"534 10 CURVE",
"543 79 LINE",
"532 72 OFFCURVE",
"511 65 OFFCURVE",
"496 65 CURVE SMOOTH",
"483 65 OFFCURVE",
"472 73 OFFCURVE",
"472 92 CURVE SMOOTH",
"472 95 OFFCURVE",
"502 332 OFFCURVE",
"530 511 CURVE",
"465 511 LINE",
"434 446 LINE",
"427 446 LINE",
"403 490 OFFCURVE",
"353 521 OFFCURVE",
"284 521 CURVE SMOOTH"
);
},
{
closed = 1;
nodes = (
"362 446 OFFCURVE",
"406 414 OFFCURVE",
"406 318 CURVE SMOOTH",
"406 179 OFFCURVE",
"356 65 OFFCURVE",
"244 65 CURVE SMOOTH",
"177 65 OFFCURVE",
"135 97 OFFCURVE",
"135 193 CURVE SMOOTH",
"135 295 OFFCURVE",
"166 446 OFFCURVE",
"297 446 CURVE SMOOTH"
);
}
);
width = 607;
}
);
leftKerningGroup = a;
rightKerningGroup = a;
unicode = 0061;
},
{
glyphname = aacute;
lastChange = "2014-09-05 18:36:11 -0800";
layers = (
{
background = {
paths = (
{
closed = 1;
nodes = (
"153 521 OFFCURVE",
"42 405 OFFCURVE",
"42 190 CURVE SMOOTH",
"42 52 OFFCURVE",
"116 -10 OFFCURVE",
"216 -10 CURVE SMOOTH",
"285 -10 OFFCURVE",
"338 18 OFFCURVE",
"381 65 CURVE",
"381 24 OFFCURVE",
"398 -10 OFFCURVE",
"457 -10 CURVE SMOOTH",
"493 -10 OFFCURVE",
"521 2 OFFCURVE",
"534 10 CURVE",
"543 79 LINE",
"532 72 OFFCURVE",
"511 65 OFFCURVE",
"496 65 CURVE SMOOTH",
"483 65 OFFCURVE",
"472 73 OFFCURVE",
"472 92 CURVE SMOOTH",
"472 95 OFFCURVE",
"502 332 OFFCURVE",
"530 511 CURVE",
"465 511 LINE",
"434 446 LINE",
"427 446 LINE",
"403 490 OFFCURVE",
"353 521 OFFCURVE",
"284 521 CURVE SMOOTH"
);
},
{
closed = 1;
nodes = (
"362 446 OFFCURVE",
"406 414 OFFCURVE",
"406 318 CURVE SMOOTH",
"406 179 OFFCURVE",
"356 65 OFFCURVE",
"244 65 CURVE SMOOTH",
"177 65 OFFCURVE",
"135 97 OFFCURVE",
"135 193 CURVE SMOOTH",
"135 295 OFFCURVE",
"166 446 OFFCURVE",
"297 446 CURVE SMOOTH"
);
},
{
closed = 1;
nodes = (
"377 720 LINE",
"262 575 LINE",
"331 575 LINE",
"467 716 LINE",
"467 720 LINE"
);
}
);
};
layerId = UUID0;
name = "Regular Italic";
paths = (
{
closed = 1;
nodes = (
"153 521 OFFCURVE",
"42 405 OFFCURVE",
"42 190 CURVE SMOOTH",
"42 52 OFFCURVE",
"116 -10 OFFCURVE",
"216 -10 CURVE SMOOTH",
"285 -10 OFFCURVE",
"338 18 OFFCURVE",
"381 65 CURVE",
"381 24 OFFCURVE",
"398 -10 OFFCURVE",
"457 -10 CURVE SMOOTH",
"493 -10 OFFCURVE",
"521 2 OFFCURVE",
"534 10 CURVE",
"543 79 LINE",
"532 72 OFFCURVE",
"511 65 OFFCURVE",
"496 65 CURVE SMOOTH",
"483 65 OFFCURVE",
"472 73 OFFCURVE",
"472 92 CURVE SMOOTH",
"472 95 OFFCURVE",
"502 332 OFFCURVE",
"530 511 CURVE",
"465 511 LINE",
"434 446 LINE",
"427 446 LINE",
"403 490 OFFCURVE",
"353 521 OFFCURVE",
"284 521 CURVE SMOOTH"
);
},
{
closed = 1;
nodes = (
"362 446 OFFCURVE",
"406 414 OFFCURVE",
"406 318 CURVE SMOOTH",
"406 179 OFFCURVE",
"356 65 OFFCURVE",
"244 65 CURVE SMOOTH",
"177 65 OFFCURVE",
"135 97 OFFCURVE",
"135 193 CURVE SMOOTH",
"135 295 OFFCURVE",
"166 446 OFFCURVE",
"297 446 CURVE SMOOTH"
);
},
{
closed = 1;
nodes = (
"377 720 LINE",
"262 575 LINE",
"331 575 LINE",
"467 716 LINE",
"467 720 LINE"
);
}
);
width = 607;
}
);
leftKerningGroup = a;
rightKerningGroup = a;
unicode = 00E1;
},
{
glyphname = acircumflex;
lastChange = "2014-09-05 18:36:11 -0800";
layers = (
{
background = {
paths = (
{
closed = 1;
nodes = (
"153 521 OFFCURVE",
"42 405 OFFCURVE",
"42 190 CURVE SMOOTH",
"42 52 OFFCURVE",
"116 -10 OFFCURVE",
"216 -10 CURVE SMOOTH",
"285 -10 OFFCURVE",
"338 18 OFFCURVE",
"381 65 CURVE",
"381 24 OFFCURVE",
"398 -10 OFFCURVE",
"457 -10 CURVE SMOOTH",
"493 -10 OFFCURVE",
"521 2 OFFCURVE",
"534 10 CURVE",
"543 79 LINE",
"532 72 OFFCURVE",
"511 65 OFFCURVE",
"496 65 CURVE SMOOTH",
"483 65 OFFCURVE",
"472 73 OFFCURVE",
"472 92 CURVE SMOOTH",
"472 95 OFFCURVE",
"502 332 OFFCURVE",
"530 511 CURVE",
"465 511 LINE",
"434 446 LINE",
"427 446 LINE",
"403 490 OFFCURVE",
"353 521 OFFCURVE",
"284 521 CURVE SMOOTH"
);
},
{
closed = 1;
nodes = (
"362 446 OFFCURVE",
"406 414 OFFCURVE",
"406 318 CURVE SMOOTH",
"406 179 OFFCURVE",
"356 65 OFFCURVE",
"244 65 CURVE SMOOTH",
"177 65 OFFCURVE",
"135 97 OFFCURVE",
"135 193 CURVE SMOOTH",
"135 295 OFFCURVE",
"166 446 OFFCURVE",
"297 446 CURVE SMOOTH"
);
},
{
closed = 1;
nodes = (
"302 720 LINE",
"145 575 LINE",
"225 575 LINE",
"333 664 LINE",
"414 575 LINE",
"494 575 LINE",
"380 720 LINE"
);
}
);
};
layerId = UUID0;
name = "Regular Italic";
paths = (
{
closed = 1;
nodes = (
"153 521 OFFCURVE",
"42 405 OFFCURVE",
"42 190 CURVE SMOOTH",
"42 52 OFFCURVE",
"116 -10 OFFCURVE",
"216 -10 CURVE SMOOTH",
"285 -10 OFFCURVE",
"338 18 OFFCURVE",
"381 65 CURVE",
"381 24 OFFCURVE",
"398 -10 OFFCURVE",
"457 -10 CURVE SMOOTH",
"493 -10 OFFCURVE",
"521 2 OFFCURVE",
"534 10 CURVE",
"543 79 LINE",
"532 72 OFFCURVE",
"511 65 OFFCURVE",
"496 65 CURVE SMOOTH",
"483 65 OFFCURVE",
"472 73 OFFCURVE",
"472 92 CURVE SMOOTH",
"472 95 OFFCURVE",
"502 332 OFFCURVE",
"530 511 CURVE",
"465 511 LINE",
"434 446 LINE",
"427 446 LINE",
"403 490 OFFCURVE",
"353 521 OFFCURVE",
"284 521 CURVE SMOOTH"
);
},
{
closed = 1;
nodes = (
"362 446 OFFCURVE",
"406 414 OFFCURVE",
"406 318 CURVE SMOOTH",
"406 179 OFFCURVE",
"356 65 OFFCURVE",
"244 65 CURVE SMOOTH",
"177 65 OFFCURVE",
"135 97 OFFCURVE",
"135 193 CURVE SMOOTH",
"135 295 OFFCURVE",
"166 446 OFFCURVE",
"297 446 CURVE SMOOTH"
);
},
{
closed = 1;
nodes = (
"302 720 LINE",
"145 575 LINE",
"225 575 LINE",
"333 664 LINE",
"414 575 LINE",
"494 575 LINE",
"380 720 LINE"
);
}
);
width = 607;
}
);
leftKerningGroup = a;
rightKerningGroup = a;
unicode = 00E2;
},
{
glyphname = adieresis;
lastChange = "2014-09-05 18:36:11 -0800";
layers = (
{
background = {
paths = (
{
closed = 1;
nodes = (
"153 521 OFFCURVE",
"42 405 OFFCURVE",
"42 190 CURVE SMOOTH",
"42 52 OFFCURVE",
"116 -10 OFFCURVE",
"216 -10 CURVE SMOOTH",
"285 -10 OFFCURVE",
"338 18 OFFCURVE",
"381 65 CURVE",
"381 24 OFFCURVE",
"398 -10 OFFCURVE",
"457 -10 CURVE SMOOTH",
"493 -10 OFFCURVE",
"521 2 OFFCURVE",
"534 10 CURVE",
"543 79 LINE",
"532 72 OFFCURVE",
"511 65 OFFCURVE",
"496 65 CURVE SMOOTH",
"483 65 OFFCURVE",
"472 73 OFFCURVE",
"472 92 CURVE SMOOTH",
"472 95 OFFCURVE",
"502 332 OFFCURVE",
"530 511 CURVE",
"465 511 LINE",
"434 446 LINE",
"427 446 LINE",
"403 490 OFFCURVE",
"353 521 OFFCURVE",
"284 521 CURVE SMOOTH"
);
},
{
closed = 1;
nodes = (
"362 446 OFFCURVE",
"406 414 OFFCURVE",
"406 318 CURVE SMOOTH",
"406 179 OFFCURVE",
"356 65 OFFCURVE",
"244 65 CURVE SMOOTH",
"177 65 OFFCURVE",
"135 97 OFFCURVE",
"135 193 CURVE SMOOTH",
"135 295 OFFCURVE",
"166 446 OFFCURVE",
"297 446 CURVE SMOOTH"
);
},
{
closed = 1;
nodes = (
"193 720 LINE",
"180 622 LINE",
"270 622 LINE",
"283 720 LINE"
);
},
{
closed = 1;
nodes = (
"381 720 LINE",
"368 622 LINE",
"459 622 LINE",
"472 720 LINE"
);
}
);
};
layerId = UUID0;
name = "Regular Italic";
paths = (
{
closed = 1;
nodes = (
"153 521 OFFCURVE",
"42 405 OFFCURVE",
"42 190 CURVE SMOOTH",
"42 52 OFFCURVE",
"116 -10 OFFCURVE",
"216 -10 CURVE SMOOTH",
"285 -10 OFFCURVE",
"338 18 OFFCURVE",
"381 65 CURVE",
"381 24 OFFCURVE",
"398 -10 OFFCURVE",
"457 -10 CURVE SMOOTH",
"493 -10 OFFCURVE",
"521 2 OFFCURVE",
"534 10 CURVE",
"543 79 LINE",
"532 72 OFFCURVE",
"511 65 OFFCURVE",
"496 65 CURVE SMOOTH",
"483 65 OFFCURVE",
"472 73 OFFCURVE",
"472 92 CURVE SMOOTH",
"472 95 OFFCURVE",
"502 332 OFFCURVE",
"530 511 CURVE",
"465 511 LINE",
"434 446 LINE",
"427 446 LINE",
"403 490 OFFCURVE",
"353 521 OFFCURVE",
"284 521 CURVE SMOOTH"
);
},
{
closed = 1;
nodes = (
"362 446 OFFCURVE",
"406 414 OFFCURVE",
"406 318 CURVE SMOOTH",
"406 179 OFFCURVE",
"356 65 OFFCURVE",
"244 65 CURVE SMOOTH",
"177 65 OFFCURVE",
"135 97 OFFCURVE",
"135 193 CURVE SMOOTH",
"135 295 OFFCURVE",
"166 446 OFFCURVE",
"297 446 CURVE SMOOTH"
);
},
{
closed = 1;
nodes = (
"193 720 LINE",
"180 622 LINE",
"270 622 LINE",
"283 720 LINE"
);
},
{
closed = 1;
nodes = (
"381 720 LINE",
"368 622 LINE",
"459 622 LINE",
"472 720 LINE"
);
}
);
width = 607;
}
);
leftKerningGroup = a;
rightKerningGroup = a;
unicode = 00E4;
},
{
glyphname = agrave;
lastChange = "2014-09-05 18:36:11 -0800";
layers = (
{
background = {
paths = (
{
closed = 1;
nodes = (
"153 521 OFFCURVE",
"42 405 OFFCURVE",
"42 190 CURVE SMOOTH",
"42 52 OFFCURVE",
"116 -10 OFFCURVE",
"216 -10 CURVE SMOOTH",
"285 -10 OFFCURVE",
"338 18 OFFCURVE",
"381 65 CURVE",
"381 24 OFFCURVE",
"398 -10 OFFCURVE",
"457 -10 CURVE SMOOTH",
"493 -10 OFFCURVE",
"521 2 OFFCURVE",
"534 10 CURVE",
"543 79 LINE",
"532 72 OFFCURVE",
"511 65 OFFCURVE",
"496 65 CURVE SMOOTH",
"483 65 OFFCURVE",
"472 73 OFFCURVE",
"472 92 CURVE SMOOTH",
"472 95 OFFCURVE",
"502 332 OFFCURVE",
"530 511 CURVE",
"465 511 LINE",
"434 446 LINE",
"427 446 LINE",
"403 490 OFFCURVE",
"353 521 OFFCURVE",
"284 521 CURVE SMOOTH"
);
},
{
closed = 1;
nodes = (
"362 446 OFFCURVE",
"406 414 OFFCURVE",
"406 318 CURVE SMOOTH",
"406 179 OFFCURVE",
"356 65 OFFCURVE",
"244 65 CURVE SMOOTH",
"177 65 OFFCURVE",
"135 97 OFFCURVE",
"135 193 CURVE SMOOTH",
"135 295 OFFCURVE",
"166 446 OFFCURVE",
"297 446 CURVE SMOOTH"
);
},
{
closed = 1;
nodes = (
"181 720 LINE",
"179 717 LINE",
"274 575 LINE",
"344 575 LINE",
"270 720 LINE"
);
}
);
};
layerId = UUID0;
name = "Regular Italic";
paths = (
{
closed = 1;
nodes = (
"153 521 OFFCURVE",
"42 405 OFFCURVE",
"42 190 CURVE SMOOTH",
"42 52 OFFCURVE",
"116 -10 OFFCURVE",
"216 -10 CURVE SMOOTH",
"285 -10 OFFCURVE",
"338 18 OFFCURVE",
"381 65 CURVE",
"381 24 OFFCURVE",
"398 -10 OFFCURVE",
"457 -10 CURVE SMOOTH",
"493 -10 OFFCURVE",
"521 2 OFFCURVE",
"534 10 CURVE",
"543 79 LINE",
"532 72 OFFCURVE",
"511 65 OFFCURVE",
"496 65 CURVE SMOOTH",
"483 65 OFFCURVE",
"472 73 OFFCURVE",
"472 92 CURVE SMOOTH",
"472 95 OFFCURVE",
"502 332 OFFCURVE",
"530 511 CURVE",
"465 511 LINE",
"434 446 LINE",
"427 446 LINE",
"403 490 OFFCURVE",
"353 521 OFFCURVE",
"284 521 CURVE SMOOTH"
);
},
{
closed = 1;
nodes = (
"362 446 OFFCURVE",
"406 414 OFFCURVE",
"406 318 CURVE SMOOTH",
"406 179 OFFCURVE",
"356 65 OFFCURVE",
"244 65 CURVE SMOOTH",
"177 65 OFFCURVE",
"135 97 OFFCURVE",
"135 193 CURVE SMOOTH",
"135 295 OFFCURVE",
"166 446 OFFCURVE",
"297 446 CURVE SMOOTH"
);
},
{
closed = 1;
nodes = (
"181 720 LINE",
"179 717 LINE",
"274 575 LINE",
"344 575 LINE",
"270 720 LINE"
);
}
);
width = 607;
}
);
leftKerningGroup = a;
rightKerningGroup = a;
unicode = 00E0;
},
{
glyphname = aring;
lastChange = "2014-09-05 18:36:11 -0800";
layers = (
{
background = {
paths = (
{
closed = 1;
nodes = (
"153 521 OFFCURVE",
"42 405 OFFCURVE",
"42 190 CURVE SMOOTH",
"42 52 OFFCURVE",
"116 -10 OFFCURVE",
"216 -10 CURVE SMOOTH",
"285 -10 OFFCURVE",
"338 18 OFFCURVE",
"381 65 CURVE",
"381 24 OFFCURVE",
"398 -10 OFFCURVE",
"457 -10 CURVE SMOOTH",
"493 -10 OFFCURVE",
"521 2 OFFCURVE",
"534 10 CURVE",
"543 79 LINE",
"532 72 OFFCURVE",
"511 65 OFFCURVE",
"496 65 CURVE SMOOTH",
"483 65 OFFCURVE",
"472 73 OFFCURVE",
"472 92 CURVE SMOOTH",
"472 95 OFFCURVE",
"502 332 OFFCURVE",
"530 511 CURVE",
"465 511 LINE",
"434 446 LINE",
"427 446 LINE",
"403 490 OFFCURVE",
"353 521 OFFCURVE",
"284 521 CURVE SMOOTH"
);
},
{
closed = 1;
nodes = (
"362 446 OFFCURVE",
"406 414 OFFCURVE",
"406 318 CURVE SMOOTH",
"406 179 OFFCURVE",
"356 65 OFFCURVE",
"244 65 CURVE SMOOTH",
"177 65 OFFCURVE",
"135 97 OFFCURVE",
"135 193 CURVE SMOOTH",
"135 295 OFFCURVE",
"166 446 OFFCURVE",
"297 446 CURVE SMOOTH"
);
},
{
closed = 1;
nodes = (
"279 750 OFFCURVE",
"225 706 OFFCURVE",
"225 642 CURVE SMOOTH",
"225 586 OFFCURVE",
"265 548 OFFCURVE",
"321 548 CURVE SMOOTH",
"377 548 OFFCURVE",
"430 596 OFFCURVE",
"430 656 CURVE SMOOTH",
"430 711 OFFCURVE",
"390 750 OFFCURVE",
"334 750 CURVE SMOOTH"
);
},
{
closed = 1;
nodes = (
"363 709 OFFCURVE",
"385 684 OFFCURVE",
"385 653 CURVE SMOOTH",
"385 617 OFFCURVE",
"355 589 OFFCURVE",
"324 589 CURVE SMOOTH",
"292 589 OFFCURVE",
"270 614 OFFCURVE",
"270 645 CURVE SMOOTH",
"270 682 OFFCURVE",
"299 709 OFFCURVE",
"331 709 CURVE SMOOTH"
);
}
);
};
layerId = UUID0;
name = "Regular Italic";
paths = (
{
closed = 1;
nodes = (
"153 521 OFFCURVE",
"42 405 OFFCURVE",
"42 190 CURVE SMOOTH",
"42 52 OFFCURVE",
"116 -10 OFFCURVE",
"216 -10 CURVE SMOOTH",
"285 -10 OFFCURVE",
"338 18 OFFCURVE",
"381 65 CURVE",
"381 24 OFFCURVE",
"398 -10 OFFCURVE",
"457 -10 CURVE SMOOTH",
"493 -10 OFFCURVE",
"521 2 OFFCURVE",
"534 10 CURVE",
"543 79 LINE",
"532 72 OFFCURVE",
"511 65 OFFCURVE",
"496 65 CURVE SMOOTH",
"483 65 OFFCURVE",
"472 73 OFFCURVE",
"472 92 CURVE SMOOTH",
"472 95 OFFCURVE",
"502 332 OFFCURVE",
"530 511 CURVE",
"465 511 LINE",
"434 446 LINE",
"427 446 LINE",
"403 490 OFFCURVE",
"353 521 OFFCURVE",
"284 521 CURVE SMOOTH"
);
},
{
closed = 1;
nodes = (
"362 446 OFFCURVE",
"406 414 OFFCURVE",
"406 318 CURVE SMOOTH",
"406 179 OFFCURVE",
"356 65 OFFCURVE",
"244 65 CURVE SMOOTH",
"177 65 OFFCURVE",
"135 97 OFFCURVE",
"135 193 CURVE SMOOTH",
"135 295 OFFCURVE",
"166 446 OFFCURVE",
"297 446 CURVE SMOOTH"
);
},
{
closed = 1;
nodes = (
"279 750 OFFCURVE",
"225 706 OFFCURVE",
"225 642 CURVE SMOOTH",
"225 586 OFFCURVE",
"265 548 OFFCURVE",
"321 548 CURVE SMOOTH",
"377 548 OFFCURVE",
"430 596 OFFCURVE",
"430 656 CURVE SMOOTH",
"430 711 OFFCURVE",
"390 750 OFFCURVE",
"334 750 CURVE SMOOTH"
);
},
{
closed = 1;
nodes = (
"363 709 OFFCURVE",
"385 684 OFFCURVE",
"385 653 CURVE SMOOTH",
"385 617 OFFCURVE",
"355 589 OFFCURVE",
"324 589 CURVE SMOOTH",
"292 589 OFFCURVE",
"270 614 OFFCURVE",
"270 645 CURVE SMOOTH",
"270 682 OFFCURVE",
"299 709 OFFCURVE",
"331 709 CURVE SMOOTH"
);
}
);
width = 607;
}
);
leftKerningGroup = a;
rightKerningGroup = a;
unicode = 00E5;
},
{
glyphname = atilde;
lastChange = "2014-09-05 18:36:11 -0800";
layers = (
{
background = {
paths = (
{
closed = 1;
nodes = (
"153 521 OFFCURVE",
"42 405 OFFCURVE",
"42 190 CURVE SMOOTH",
"42 52 OFFCURVE",
"116 -10 OFFCURVE",
"216 -10 CURVE SMOOTH",
"285 -10 OFFCURVE",
"338 18 OFFCURVE",
"381 65 CURVE",
"381 24 OFFCURVE",
"398 -10 OFFCURVE",
"457 -10 CURVE SMOOTH",
"493 -10 OFFCURVE",
"521 2 OFFCURVE",
"534 10 CURVE",
"543 79 LINE",
"532 72 OFFCURVE",
"511 65 OFFCURVE",
"496 65 CURVE SMOOTH",
"483 65 OFFCURVE",
"472 73 OFFCURVE",
"472 92 CURVE SMOOTH",
"472 95 OFFCURVE",
"502 332 OFFCURVE",
"530 511 CURVE",
"465 511 LINE",
"434 446 LINE",
"427 446 LINE",
"403 490 OFFCURVE",
"353 521 OFFCURVE",
"284 521 CURVE SMOOTH"
);
},
{
closed = 1;
nodes = (
"362 446 OFFCURVE",
"406 414 OFFCURVE",
"406 318 CURVE SMOOTH",
"406 179 OFFCURVE",
"356 65 OFFCURVE",
"244 65 CURVE SMOOTH",
"177 65 OFFCURVE",
"135 97 OFFCURVE",
"135 193 CURVE SMOOTH",
"135 295 OFFCURVE",
"166 446 OFFCURVE",
"297 446 CURVE SMOOTH"
);
},
{
closed = 1;
nodes = (
"478 720 LINE",
"468 697 OFFCURVE",
"448 685 OFFCURVE",
"418 685 CURVE SMOOTH",
"365 685 OFFCURVE",
"319 720 OFFCURVE",
"255 720 CURVE SMOOTH",
"177 720 OFFCURVE",
"137 661 OFFCURVE",
"129 616 CURVE",
"177 616 LINE",
"187 639 OFFCURVE",
"207 650 OFFCURVE",
"237 650 CURVE SMOOTH",
"291 650 OFFCURVE",
"337 616 OFFCURVE",
"401 616 CURVE SMOOTH",
"479 616 OFFCURVE",
"520 672 OFFCURVE",
"528 720 CURVE"
);
}
);
};
layerId = UUID0;
name = "Regular Italic";
paths = (
{
closed = 1;
nodes = (
"153 521 OFFCURVE",
"42 405 OFFCURVE",
"42 190 CURVE SMOOTH",
"42 52 OFFCURVE",
"116 -10 OFFCURVE",
"216 -10 CURVE SMOOTH",
"285 -10 OFFCURVE",
"338 18 OFFCURVE",
"381 65 CURVE",
"381 24 OFFCURVE",
"398 -10 OFFCURVE",
"457 -10 CURVE SMOOTH",
"493 -10 OFFCURVE",
"521 2 OFFCURVE",
"534 10 CURVE",
"543 79 LINE",
"532 72 OFFCURVE",
"511 65 OFFCURVE",
"496 65 CURVE SMOOTH",
"483 65 OFFCURVE",
"472 73 OFFCURVE",
"472 92 CURVE SMOOTH",
"472 95 OFFCURVE",
"502 332 OFFCURVE",
"530 511 CURVE",
"465 511 LINE",
"434 446 LINE",
"427 446 LINE",
"403 490 OFFCURVE",
"353 521 OFFCURVE",
"284 521 CURVE SMOOTH"
);
},
{
closed = 1;
nodes = (
"362 446 OFFCURVE",
"406 414 OFFCURVE",
"406 318 CURVE SMOOTH",
"406 179 OFFCURVE",
"356 65 OFFCURVE",
"244 65 CURVE SMOOTH",
"177 65 OFFCURVE",
"135 97 OFFCURVE",
"135 193 CURVE SMOOTH",
"135 295 OFFCURVE",
"166 446 OFFCURVE",
"297 446 CURVE SMOOTH"
);
},
{
closed = 1;
nodes = (
"478 720 LINE",
"468 697 OFFCURVE",
"448 685 OFFCURVE",
"418 685 CURVE SMOOTH",
"365 685 OFFCURVE",
"319 720 OFFCURVE",
"255 720 CURVE SMOOTH",
"177 720 OFFCURVE",
"137 661 OFFCURVE",
"129 616 CURVE",
"177 616 LINE",
"187 639 OFFCURVE",
"207 650 OFFCURVE",
"237 650 CURVE SMOOTH",
"291 650 OFFCURVE",
"337 616 OFFCURVE",
"401 616 CURVE SMOOTH",
"479 616 OFFCURVE",
"520 672 OFFCURVE",
"528 720 CURVE"
);
}
);
width = 607;
}
);
leftKerningGroup = a;
rightKerningGroup = a;
unicode = 00E3;
},
{
glyphname = ae;
lastChange = "2014-09-05 19:03:55 -0800";
layers = (
{
anchors = (
{
name = top;
position = "{498, 511}";
}
);
background = {
anchors = (
{
name = top;
position = "{448, 511}";
}
);
paths = (
{
closed = 1;
nodes = (
"653 521 LINE SMOOTH",
"586 521 OFFCURVE",
"528 500 OFFCURVE",
"481 457 CURVE",
"456 498 OFFCURVE",
"402 521 OFFCURVE",
"317 521 CURVE SMOOTH",
"308 521 LINE SMOOTH",
"176 521 OFFCURVE",
"76 454 OFFCURVE",
"76 354 CURVE",
"168 354 LINE",
"170 366 LINE SMOOTH",
"173 380 OFFCURVE",
"185 446 OFFCURVE",
"295 446 CURVE SMOOTH",
"385 446 OFFCURVE",
"400 408 OFFCURVE",
"400 374 CURVE SMOOTH",
"400 368 LINE SMOOTH",
"400 362 OFFCURVE",
"399 346 OFFCURVE",
"393 307 CURVE",
"186 307 OFFCURVE",
"25 285 OFFCURVE",
"25 117 CURVE SMOOTH",
"25 21 OFFCURVE",
"94 -10 OFFCURVE",
"173 -10 CURVE SMOOTH",
"277 -10 OFFCURVE",
"341 29 OFFCURVE",
"397 101 CURVE",
"428 29 OFFCURVE",
"492 -10 OFFCURVE",
"581 -10 CURVE SMOOTH",
"585 -10 LINE SMOOTH",
"708 -10 OFFCURVE",
"811 67 OFFCURVE",
"827 190 CURVE",
"738 190 LINE",
"732 157 OFFCURVE",
"708 65 OFFCURVE",
"595 65 CURVE SMOOTH",
"507 65 OFFCURVE",
"474 123 OFFCURVE",
"474 202 CURVE SMOOTH",
"474 213 OFFCURVE",
"475 223 OFFCURVE",
"476 234 CURVE",
"833 234 LINE",
"845 297 OFFCURVE",
"846 332 OFFCURVE",
"846 344 CURVE SMOOTH",
"846 455 OFFCURVE",
"773 521 OFFCURVE",
"660 521 CURVE SMOOTH"
);
},
{
closed = 1;
nodes = (
"380 214 LINE",
"367 120 OFFCURVE",
"287 65 OFFCURVE",
"216 65 CURVE SMOOTH",
"149 65 OFFCURVE",
"120 79 OFFCURVE",
"120 135 CURVE SMOOTH",
"120 218 OFFCURVE",
"226 234 OFFCURVE",
"382 234 CURVE"
);
},
{
closed = 1;
nodes = (
"708 446 OFFCURVE",
"754 411 OFFCURVE",
"754 343 CURVE SMOOTH",
"754 335 OFFCURVE",
"754 327 OFFCURVE",
"751 307 CURVE",
"489 307 LINE",
"512 400 OFFCURVE",
"569 446 OFFCURVE",
"645 446 CURVE SMOOTH"
);
}
);
};
layerId = UUID0;
name = "Regular Italic";
paths = (
{
closed = 1;
nodes = (
"653 521 LINE SMOOTH",
"586 521 OFFCURVE",
"528 500 OFFCURVE",
"481 457 CURVE",
"456 498 OFFCURVE",
"402 521 OFFCURVE",
"317 521 CURVE SMOOTH",
"308 521 LINE SMOOTH",
"176 521 OFFCURVE",
"76 454 OFFCURVE",
"76 354 CURVE",
"168 354 LINE",
"170 366 LINE SMOOTH",
"173 380 OFFCURVE",
"185 446 OFFCURVE",
"295 446 CURVE SMOOTH",
"385 446 OFFCURVE",
"400 408 OFFCURVE",
"400 374 CURVE SMOOTH",
"400 368 LINE SMOOTH",
"400 362 OFFCURVE",
"399 346 OFFCURVE",
"393 307 CURVE",
"186 307 OFFCURVE",
"25 285 OFFCURVE",
"25 117 CURVE SMOOTH",
"25 21 OFFCURVE",
"94 -10 OFFCURVE",
"173 -10 CURVE SMOOTH",
"277 -10 OFFCURVE",
"341 29 OFFCURVE",
"397 101 CURVE",
"428 29 OFFCURVE",
"492 -10 OFFCURVE",
"581 -10 CURVE SMOOTH",
"585 -10 LINE SMOOTH",
"708 -10 OFFCURVE",
"811 67 OFFCURVE",
"827 190 CURVE",
"738 190 LINE",
"732 157 OFFCURVE",
"708 65 OFFCURVE",
"595 65 CURVE SMOOTH",
"507 65 OFFCURVE",
"474 123 OFFCURVE",
"474 202 CURVE SMOOTH",
"474 213 OFFCURVE",
"475 223 OFFCURVE",
"476 234 CURVE",
"833 234 LINE",
"845 297 OFFCURVE",
"846 332 OFFCURVE",
"846 344 CURVE SMOOTH",
"846 455 OFFCURVE",
"773 521 OFFCURVE",
"660 521 CURVE SMOOTH"
);
},
{
closed = 1;
nodes = (
"380 214 LINE",
"367 120 OFFCURVE",
"287 65 OFFCURVE",
"216 65 CURVE SMOOTH",
"149 65 OFFCURVE",
"120 79 OFFCURVE",
"120 135 CURVE SMOOTH",
"120 218 OFFCURVE",
"226 234 OFFCURVE",
"382 234 CURVE"
);
},
{
closed = 1;
nodes = (
"708 446 OFFCURVE",
"754 411 OFFCURVE",
"754 343 CURVE SMOOTH",
"754 335 OFFCURVE",
"754 327 OFFCURVE",
"751 307 CURVE",
"489 307 LINE",
"512 400 OFFCURVE",
"569 446 OFFCURVE",
"645 446 CURVE SMOOTH"
);
}
);
width = 895;
}
);
rightKerningGroup = e;
unicode = 00E6;
},
{
glyphname = b;
lastChange = "2014-09-05 18:36:11 -0800";
layers = (
{
background = {
paths = (
{
closed = 1;
nodes = (
"143 720 LINE",
"42 0 LINE",
"78 0 LINE",
"122 81 LINE",
"152 20 OFFCURVE",
"205 -10 OFFCURVE",
"281 -10 CURVE SMOOTH",
"466 -10 OFFCURVE",
"531 184 OFFCURVE",
"531 325 CURVE SMOOTH",
"531 454 OFFCURVE",
"460 521 OFFCURVE",
"363 521 CURVE SMOOTH",
"291 521 OFFCURVE",
"233 487 OFFCURVE",
"198 446 CURVE",
"237 720 LINE"
);
},
{
closed = 1;
nodes = (
"392 446 OFFCURVE",
"436 414 OFFCURVE",
"436 318 CURVE SMOOTH",
"436 151 OFFCURVE",
"374 65 OFFCURVE",
"274 65 CURVE SMOOTH",
"207 65 OFFCURVE",
"165 97 OFFCURVE",
"165 193 CURVE SMOOTH",
"165 313 OFFCURVE",
"204 446 OFFCURVE",
"327 446 CURVE SMOOTH"
);
}
);
};
layerId = UUID0;
name = "Regular Italic";
paths = (
{
closed = 1;
nodes = (
"143 720 LINE",
"42 0 LINE",
"78 0 LINE",
"122 81 LINE",
"152 20 OFFCURVE",
"205 -10 OFFCURVE",
"281 -10 CURVE SMOOTH",
"466 -10 OFFCURVE",
"531 184 OFFCURVE",
"531 325 CURVE SMOOTH",
"531 454 OFFCURVE",
"460 521 OFFCURVE",
"363 521 CURVE SMOOTH",
"291 521 OFFCURVE",
"233 487 OFFCURVE",
"198 446 CURVE",
"237 720 LINE"
);
},
{
closed = 1;
nodes = (
"392 446 OFFCURVE",
"436 414 OFFCURVE",
"436 318 CURVE SMOOTH",
"436 151 OFFCURVE",
"374 65 OFFCURVE",
"274 65 CURVE SMOOTH",
"207 65 OFFCURVE",
"165 97 OFFCURVE",
"165 193 CURVE SMOOTH",
"165 313 OFFCURVE",
"204 446 OFFCURVE",
"327 446 CURVE SMOOTH"
);
}
);
width = 582;
}
);
leftKerningGroup = b;
rightKerningGroup = b;
unicode = 0062;
},
{
glyphname = c;
lastChange = "2014-09-05 19:04:00 -0800";
layers = (
{
anchors = (
{
name = bottom;
position = "{273, 0}";
},
{
name = top;
position = "{303, 511}";
}
);
background = {
anchors = (
{
name = top;
position = "{273, 511}";
},
{
name = bottom;
position = "{273, 0}";
}
);
paths = (
{
closed = 1;
nodes = (
"309 521 LINE SMOOTH",
"124 521 OFFCURVE",
"42 366 OFFCURVE",
"42 191 CURVE SMOOTH",
"42 63 OFFCURVE",
"120 -10 OFFCURVE",
"235 -10 CURVE SMOOTH",
"243 -10 LINE SMOOTH",
"376 -10 OFFCURVE",
"465 64 OFFCURVE",
"484 200 CURVE",
"394 200 LINE",
"383 121 OFFCURVE",
"337 65 OFFCURVE",
"252 65 CURVE SMOOTH",
"180 65 OFFCURVE",
"135 104 OFFCURVE",
"135 192 CURVE SMOOTH",
"135 303 OFFCURVE",
"168 446 OFFCURVE",
"301 446 CURVE SMOOTH",
"374 446 OFFCURVE",
"408 400 OFFCURVE",
"408 337 CURVE SMOOTH",
"408 328 OFFCURVE",
"407 319 OFFCURVE",
"406 310 CURVE",
"499 310 LINE",
"501 323 OFFCURVE",
"502 335 OFFCURVE",
"502 346 CURVE SMOOTH",
"502 454 OFFCURVE",
"429 521 OFFCURVE",
"317 521 CURVE SMOOTH"
);
}
);
};
layerId = UUID0;
name = "Regular Italic";
paths = (
{
closed = 1;
nodes = (
"309 521 LINE SMOOTH",
"124 521 OFFCURVE",
"42 366 OFFCURVE",
"42 191 CURVE SMOOTH",
"42 63 OFFCURVE",
"120 -10 OFFCURVE",
"235 -10 CURVE SMOOTH",
"243 -10 LINE SMOOTH",
"376 -10 OFFCURVE",
"465 64 OFFCURVE",
"484 200 CURVE",
"394 200 LINE",
"383 121 OFFCURVE",
"337 65 OFFCURVE",
"252 65 CURVE SMOOTH",
"180 65 OFFCURVE",
"135 104 OFFCURVE",
"135 192 CURVE SMOOTH",
"135 303 OFFCURVE",
"168 446 OFFCURVE",
"301 446 CURVE SMOOTH",
"374 446 OFFCURVE",
"408 400 OFFCURVE",
"408 337 CURVE SMOOTH",
"408 328 OFFCURVE",
"407 319 OFFCURVE",
"406 310 CURVE",
"499 310 LINE",
"501 323 OFFCURVE",
"502 335 OFFCURVE",
"502 346 CURVE SMOOTH",
"502 454 OFFCURVE",
"429 521 OFFCURVE",
"317 521 CURVE SMOOTH"
);
}
);
width = 546;
}
);
leftKerningGroup = c;
rightKerningGroup = c;
unicode = 0063;
},
{
glyphname = ccedilla;
lastChange = "2014-09-05 18:36:11 -0800";
layers = (
{
background = {
paths = (
{
closed = 1;
nodes = (
"309 521 LINE SMOOTH",
"124 521 OFFCURVE",
"42 366 OFFCURVE",
"42 191 CURVE SMOOTH",
"42 63 OFFCURVE",
"120 -10 OFFCURVE",
"235 -10 CURVE SMOOTH",
"243 -10 LINE SMOOTH",
"376 -10 OFFCURVE",
"465 64 OFFCURVE",
"484 200 CURVE",
"394 200 LINE",
"383 121 OFFCURVE",
"337 65 OFFCURVE",
"252 65 CURVE SMOOTH",
"180 65 OFFCURVE",
"135 104 OFFCURVE",
"135 192 CURVE SMOOTH",
"135 303 OFFCURVE",
"168 446 OFFCURVE",
"301 446 CURVE SMOOTH",
"374 446 OFFCURVE",
"408 400 OFFCURVE",
"408 337 CURVE SMOOTH",
"408 328 OFFCURVE",
"407 319 OFFCURVE",
"406 310 CURVE",
"499 310 LINE",
"501 323 OFFCURVE",
"502 335 OFFCURVE",
"502 346 CURVE SMOOTH",
"502 454 OFFCURVE",
"429 521 OFFCURVE",
"317 521 CURVE SMOOTH"
);
},
{
closed = 1;
nodes = (
"204 -17 LINE",
"198 -60 LINE",
"219 -60 LINE SMOOTH",
"246 -60 OFFCURVE",
"265 -72 OFFCURVE",
"265 -95 CURVE SMOOTH",
"265 -131 OFFCURVE",
"234 -146 OFFCURVE",
"202 -146 CURVE SMOOTH",
"159 -146 OFFCURVE",
"132 -131 OFFCURVE",
"123 -126 CURVE",
"107 -175 LINE",
"132 -190 OFFCURVE",
"167 -197 OFFCURVE",
"199 -197 CURVE SMOOTH",
"245 -197 OFFCURVE",
"328 -176 OFFCURVE",
"328 -90 CURVE SMOOTH",
"328 -32 OFFCURVE",
"279 -17 OFFCURVE",
"228 -17 CURVE SMOOTH"
);
}
);
};
layerId = UUID0;
name = "Regular Italic";
paths = (
{
closed = 1;
nodes = (
"309 521 LINE SMOOTH",
"124 521 OFFCURVE",
"42 366 OFFCURVE",
"42 191 CURVE SMOOTH",
"42 63 OFFCURVE",
"120 -10 OFFCURVE",
"235 -10 CURVE SMOOTH",
"243 -10 LINE SMOOTH",
"376 -10 OFFCURVE",
"465 64 OFFCURVE",
"484 200 CURVE",
"394 200 LINE",
"383 121 OFFCURVE",
"337 65 OFFCURVE",
"252 65 CURVE SMOOTH",
"180 65 OFFCURVE",
"135 104 OFFCURVE",
"135 192 CURVE SMOOTH",
"135 303 OFFCURVE",
"168 446 OFFCURVE",
"301 446 CURVE SMOOTH",
"374 446 OFFCURVE",
"408 400 OFFCURVE",
"408 337 CURVE SMOOTH",
"408 328 OFFCURVE",
"407 319 OFFCURVE",
"406 310 CURVE",
"499 310 LINE",
"501 323 OFFCURVE",
"502 335 OFFCURVE",
"502 346 CURVE SMOOTH",
"502 454 OFFCURVE",
"429 521 OFFCURVE",
"317 521 CURVE SMOOTH"
);
},
{
closed = 1;
nodes = (
"204 -17 LINE",
"198 -60 LINE",
"219 -60 LINE SMOOTH",
"246 -60 OFFCURVE",
"265 -72 OFFCURVE",
"265 -95 CURVE SMOOTH",
"265 -131 OFFCURVE",
"234 -146 OFFCURVE",
"202 -146 CURVE SMOOTH",
"159 -146 OFFCURVE",
"132 -131 OFFCURVE",
"123 -126 CURVE",
"107 -175 LINE",
"132 -190 OFFCURVE",
"167 -197 OFFCURVE",
"199 -197 CURVE SMOOTH",
"245 -197 OFFCURVE",
"328 -176 OFFCURVE",
"328 -90 CURVE SMOOTH",
"328 -32 OFFCURVE",
"279 -17 OFFCURVE",
"228 -17 CURVE SMOOTH"
);
}
);
width = 546;
}
);
leftKerningGroup = c;
rightKerningGroup = c;
unicode = 00E7;
},
{
glyphname = d;
lastChange = "2014-09-08 21:29:58 -0800";
layers = (
{
anchors = (
{
name = center;
position = "{306, 256}";
},
{
name = topright;
position = "{653, 686}";
}
);
background = {
anchors = (
{
name = center;
position = "{306, 256}";
},
{
name = topright;
position = "{628, 511}";
}
);
paths = (
{
closed = 1;
nodes = (
"466 720 LINE",
"427 446 LINE",
"403 490 OFFCURVE",
"353 521 OFFCURVE",
"284 521 CURVE SMOOTH",
"153 521 OFFCURVE",
"42 405 OFFCURVE",
"42 190 CURVE SMOOTH",
"42 52 OFFCURVE",
"116 -10 OFFCURVE",
"216 -10 CURVE SMOOTH",
"285 -10 OFFCURVE",
"338 18 OFFCURVE",
"381 65 CURVE",
"381 24 OFFCURVE",
"398 -10 OFFCURVE",
"457 -10 CURVE SMOOTH",
"493 -10 OFFCURVE",
"521 2 OFFCURVE",
"534 10 CURVE",
"543 79 LINE",
"532 72 OFFCURVE",
"511 65 OFFCURVE",
"496 65 CURVE SMOOTH",
"483 65 OFFCURVE",
"472 73 OFFCURVE",
"472 92 CURVE SMOOTH",
"472 121 OFFCURVE",
"517 424 OFFCURVE",
"560 720 CURVE"
);
},
{
closed = 1;
nodes = (
"362 446 OFFCURVE",
"406 414 OFFCURVE",
"406 318 CURVE SMOOTH",
"406 179 OFFCURVE",
"356 65 OFFCURVE",
"244 65 CURVE SMOOTH",
"177 65 OFFCURVE",
"135 97 OFFCURVE",
"135 193 CURVE SMOOTH",
"135 295 OFFCURVE",
"166 446 OFFCURVE",
"297 446 CURVE SMOOTH"
);
}
);
};
layerId = UUID0;
name = "Regular Italic";
paths = (
{
closed = 1;
nodes = (
"466 720 LINE",
"427 446 LINE",
"403 490 OFFCURVE",
"353 521 OFFCURVE",
"284 521 CURVE SMOOTH",
"153 521 OFFCURVE",
"42 405 OFFCURVE",
"42 190 CURVE SMOOTH",
"42 52 OFFCURVE",
"116 -10 OFFCURVE",
"216 -10 CURVE SMOOTH",
"285 -10 OFFCURVE",
"338 18 OFFCURVE",
"381 65 CURVE",
"381 24 OFFCURVE",
"398 -10 OFFCURVE",
"457 -10 CURVE SMOOTH",
"493 -10 OFFCURVE",
"521 2 OFFCURVE",
"534 10 CURVE",
"543 79 LINE",
"532 72 OFFCURVE",
"511 65 OFFCURVE",
"496 65 CURVE SMOOTH",
"483 65 OFFCURVE",
"472 73 OFFCURVE",
"472 92 CURVE SMOOTH",
"472 121 OFFCURVE",
"517 424 OFFCURVE",
"560 720 CURVE"
);
},
{
closed = 1;
nodes = (
"362 446 OFFCURVE",
"406 414 OFFCURVE",
"406 318 CURVE SMOOTH",
"406 179 OFFCURVE",
"356 65 OFFCURVE",
"244 65 CURVE SMOOTH",
"177 65 OFFCURVE",
"135 97 OFFCURVE",
"135 193 CURVE SMOOTH",
"135 295 OFFCURVE",
"166 446 OFFCURVE",
"297 446 CURVE SMOOTH"
);
}
);
width = 612;
}
);
leftKerningGroup = d;
unicode = 0064;
},
{
glyphname = eth;
lastChange = "2014-09-05 18:36:11 -0800";
layers = (
{
background = {
paths = (
{
closed = 1;
nodes = (
"214 718 OFFCURVE",
"194 711 OFFCURVE",
"171 700 CURVE",
"190 685 OFFCURVE",
"224 666 OFFCURVE",
"252 639 CURVE",
"152 595 LINE",
"183 562 LINE",
"215 577 OFFCURVE",
"248 590 OFFCURVE",
"280 605 CURVE",
"307 577 OFFCURVE",
"331 547 OFFCURVE",
"351 518 CURVE",
"340 520 OFFCURVE",
"329 521 OFFCURVE",
"319 521 CURVE SMOOTH",
"123 521 OFFCURVE",
"40 352 OFFCURVE",
"40 188 CURVE SMOOTH",
"40 54 OFFCURVE",
"128 -10 OFFCURVE",
"245 -10 CURVE SMOOTH",
"439 -10 OFFCURVE",
"522 132 OFFCURVE",
"522 322 CURVE SMOOTH",
"522 453 OFFCURVE",
"444 563 OFFCURVE",
"356 643 CURVE",
"449 683 LINE",
"441 695 OFFCURVE",
"431 705 OFFCURVE",
"422 717 CURVE",
"322 673 LINE",
"293 694 OFFCURVE",
"264 712 OFFCURVE",
"234 729 CURVE"
);
},
{
closed = 1;
nodes = (
"377 446 OFFCURVE",
"427 407 OFFCURVE",
"427 311 CURVE SMOOTH",
"427 195 OFFCURVE",
"379 65 OFFCURVE",
"255 65 CURVE SMOOTH",
"187 65 OFFCURVE",
"136 103 OFFCURVE",
"136 198 CURVE SMOOTH",
"136 310 OFFCURVE",
"181 446 OFFCURVE",
"309 446 CURVE SMOOTH"
);
}
);
};
layerId = UUID0;
name = "Regular Italic";
paths = (
{
closed = 1;
nodes = (
"214 718 OFFCURVE",
"194 711 OFFCURVE",
"171 700 CURVE",
"190 685 OFFCURVE",
"224 666 OFFCURVE",
"252 639 CURVE",
"152 595 LINE",
"183 562 LINE",
"215 577 OFFCURVE",
"248 590 OFFCURVE",
"280 605 CURVE",
"307 577 OFFCURVE",
"331 547 OFFCURVE",
"351 518 CURVE",
"340 520 OFFCURVE",
"329 521 OFFCURVE",
"319 521 CURVE SMOOTH",
"123 521 OFFCURVE",
"40 352 OFFCURVE",
"40 188 CURVE SMOOTH",
"40 54 OFFCURVE",
"128 -10 OFFCURVE",
"245 -10 CURVE SMOOTH",
"439 -10 OFFCURVE",
"522 132 OFFCURVE",
"522 322 CURVE SMOOTH",
"522 453 OFFCURVE",
"444 563 OFFCURVE",
"356 643 CURVE",
"449 683 LINE",
"441 695 OFFCURVE",
"431 705 OFFCURVE",
"422 717 CURVE",
"322 673 LINE",
"293 694 OFFCURVE",
"264 712 OFFCURVE",
"234 729 CURVE"
);
},
{
closed = 1;
nodes = (
"377 446 OFFCURVE",
"427 407 OFFCURVE",
"427 311 CURVE SMOOTH",
"427 195 OFFCURVE",
"379 65 OFFCURVE",
"255 65 CURVE SMOOTH",
"187 65 OFFCURVE",
"136 103 OFFCURVE",
"136 198 CURVE SMOOTH",
"136 310 OFFCURVE",
"181 446 OFFCURVE",
"309 446 CURVE SMOOTH"
);
}
);
width = 576;
}
);
leftKerningGroup = c;
unicode = 00F0;
},
{
glyphname = e;
lastChange = "2014-09-05 19:04:08 -0800";
layers = (
{
anchors = (
{
name = bottom;
position = "{278, 0}";
},
{
name = ogonek;
position = "{350, 10}";
},
{
name = top;
position = "{308, 511}";
}
);
background = {
anchors = (
{
name = ogonek;
position = "{500, 10}";
},
{
name = bottom;
position = "{278, 0}";
},
{
name = top;
position = "{278, 511}";
}
);
paths = (
{
closed = 1;
nodes = (
"314 521 LINE SMOOTH",
"129 521 OFFCURVE",
"41 366 OFFCURVE",
"41 193 CURVE SMOOTH",
"41 62 OFFCURVE",
"121 -10 OFFCURVE",
"242 -10 CURVE SMOOTH",
"246 -10 LINE SMOOTH",
"383 -10 OFFCURVE",
"471 66 OFFCURVE",
"488 190 CURVE",
"399 190 LINE",
"393 157 OFFCURVE",
"369 65 OFFCURVE",
"256 65 CURVE SMOOTH",
"168 65 OFFCURVE",
"135 123 OFFCURVE",
"135 202 CURVE SMOOTH",
"135 213 OFFCURVE",
"136 223 OFFCURVE",
"137 234 CURVE",
"494 234 LINE",
"504 294 OFFCURVE",
"507 321 OFFCURVE",
"507 333 CURVE SMOOTH",
"507 344 LINE SMOOTH",
"507 455 OFFCURVE",
"434 521 OFFCURVE",
"321 521 CURVE SMOOTH"
);
},
{
closed = 1;
nodes = (
"369 446 OFFCURVE",
"415 411 OFFCURVE",
"415 343 CURVE SMOOTH",
"415 335 OFFCURVE",
"415 327 OFFCURVE",
"412 307 CURVE",
"150 307 LINE",
"173 400 OFFCURVE",
"230 446 OFFCURVE",
"306 446 CURVE SMOOTH"
);
}
);
};
layerId = UUID0;
name = "Regular Italic";
paths = (
{
closed = 1;
nodes = (
"314 521 LINE SMOOTH",
"129 521 OFFCURVE",
"41 366 OFFCURVE",
"41 193 CURVE SMOOTH",
"41 62 OFFCURVE",
"121 -10 OFFCURVE",
"242 -10 CURVE SMOOTH",
"246 -10 LINE SMOOTH",
"383 -10 OFFCURVE",
"471 66 OFFCURVE",
"488 190 CURVE",
"399 190 LINE",
"393 157 OFFCURVE",
"369 65 OFFCURVE",
"256 65 CURVE SMOOTH",
"168 65 OFFCURVE",
"135 123 OFFCURVE",
"135 202 CURVE SMOOTH",
"135 213 OFFCURVE",
"136 223 OFFCURVE",
"137 234 CURVE",
"494 234 LINE",
"504 294 OFFCURVE",
"507 321 OFFCURVE",
"507 333 CURVE SMOOTH",
"507 344 LINE SMOOTH",
"507 455 OFFCURVE",
"434 521 OFFCURVE",
"321 521 CURVE SMOOTH"
);
},
{
closed = 1;
nodes = (
"369 446 OFFCURVE",
"415 411 OFFCURVE",
"415 343 CURVE SMOOTH",
"415 335 OFFCURVE",
"415 327 OFFCURVE",
"412 307 CURVE",
"150 307 LINE",
"173 400 OFFCURVE",
"230 446 OFFCURVE",
"306 446 CURVE SMOOTH"
);
}
);
width = 556;
}
);
leftKerningGroup = c;
rightKerningGroup = e;
unicode = 0065;
},
{
glyphname = eacute;
lastChange = "2014-09-05 18:36:11 -0800";
layers = (
{
background = {
paths = (
{
closed = 1;
nodes = (
"314 521 LINE SMOOTH",
"129 521 OFFCURVE",
"41 366 OFFCURVE",
"41 193 CURVE SMOOTH",
"41 62 OFFCURVE",
"121 -10 OFFCURVE",
"242 -10 CURVE SMOOTH",
"246 -10 LINE SMOOTH",
"383 -10 OFFCURVE",
"471 66 OFFCURVE",
"488 190 CURVE",
"399 190 LINE",
"393 157 OFFCURVE",
"369 65 OFFCURVE",
"256 65 CURVE SMOOTH",
"168 65 OFFCURVE",
"135 123 OFFCURVE",
"135 202 CURVE SMOOTH",
"135 213 OFFCURVE",
"136 223 OFFCURVE",
"137 234 CURVE",
"494 234 LINE",
"504 294 OFFCURVE",
"507 321 OFFCURVE",
"507 333 CURVE SMOOTH",
"507 344 LINE SMOOTH",
"507 455 OFFCURVE",
"434 521 OFFCURVE",
"321 521 CURVE SMOOTH"
);
},
{
closed = 1;
nodes = (
"369 446 OFFCURVE",
"415 411 OFFCURVE",
"415 343 CURVE SMOOTH",
"415 335 OFFCURVE",
"415 327 OFFCURVE",
"412 307 CURVE",
"150 307 LINE",
"173 400 OFFCURVE",
"230 446 OFFCURVE",
"306 446 CURVE SMOOTH"
);
},
{
closed = 1;
nodes = (
"390 720 LINE",
"275 575 LINE",
"344 575 LINE",
"480 716 LINE",
"480 720 LINE"
);
}
);
};
layerId = UUID0;
name = "Regular Italic";
paths = (
{
closed = 1;
nodes = (
"314 521 LINE SMOOTH",
"129 521 OFFCURVE",
"41 366 OFFCURVE",
"41 193 CURVE SMOOTH",
"41 62 OFFCURVE",
"121 -10 OFFCURVE",
"242 -10 CURVE SMOOTH",
"246 -10 LINE SMOOTH",
"383 -10 OFFCURVE",
"471 66 OFFCURVE",
"488 190 CURVE",
"399 190 LINE",
"393 157 OFFCURVE",
"369 65 OFFCURVE",
"256 65 CURVE SMOOTH",
"168 65 OFFCURVE",
"135 123 OFFCURVE",
"135 202 CURVE SMOOTH",
"135 213 OFFCURVE",
"136 223 OFFCURVE",
"137 234 CURVE",
"494 234 LINE",
"504 294 OFFCURVE",
"507 321 OFFCURVE",
"507 333 CURVE SMOOTH",
"507 344 LINE SMOOTH",
"507 455 OFFCURVE",
"434 521 OFFCURVE",
"321 521 CURVE SMOOTH"
);
},
{
closed = 1;
nodes = (
"369 446 OFFCURVE",
"415 411 OFFCURVE",
"415 343 CURVE SMOOTH",
"415 335 OFFCURVE",
"415 327 OFFCURVE",
"412 307 CURVE",
"150 307 LINE",
"173 400 OFFCURVE",
"230 446 OFFCURVE",
"306 446 CURVE SMOOTH"
);
},
{
closed = 1;
nodes = (
"390 720 LINE",
"275 575 LINE",
"344 575 LINE",
"480 716 LINE",
"480 720 LINE"
);
}
);
width = 556;
}
);
leftKerningGroup = c;
rightKerningGroup = e;
unicode = 00E9;
},
{
glyphname = ecircumflex;
lastChange = "2014-09-05 18:36:11 -0800";
layers = (
{
background = {
paths = (
{
closed = 1;
nodes = (
"314 521 LINE SMOOTH",
"129 521 OFFCURVE",
"41 366 OFFCURVE",
"41 193 CURVE SMOOTH",
"41 62 OFFCURVE",
"121 -10 OFFCURVE",
"242 -10 CURVE SMOOTH",
"246 -10 LINE SMOOTH",
"383 -10 OFFCURVE",
"471 66 OFFCURVE",
"488 190 CURVE",
"399 190 LINE",
"393 157 OFFCURVE",
"369 65 OFFCURVE",
"256 65 CURVE SMOOTH",
"168 65 OFFCURVE",
"135 123 OFFCURVE",
"135 202 CURVE SMOOTH",
"135 213 OFFCURVE",
"136 223 OFFCURVE",
"137 234 CURVE",
"494 234 LINE",
"504 294 OFFCURVE",
"507 321 OFFCURVE",
"507 333 CURVE SMOOTH",
"507 344 LINE SMOOTH",
"507 455 OFFCURVE",
"434 521 OFFCURVE",
"321 521 CURVE SMOOTH"
);
},
{
closed = 1;
nodes = (
"369 446 OFFCURVE",
"415 411 OFFCURVE",
"415 343 CURVE SMOOTH",
"415 335 OFFCURVE",
"415 327 OFFCURVE",
"412 307 CURVE",
"150 307 LINE",
"173 400 OFFCURVE",
"230 446 OFFCURVE",
"306 446 CURVE SMOOTH"
);
},
{
closed = 1;
nodes = (
"299 720 LINE",
"142 575 LINE",
"222 575 LINE",
"330 664 LINE",
"411 575 LINE",
"491 575 LINE",
"377 720 LINE"
);
}
);
};
layerId = UUID0;
name = "Regular Italic";
paths = (
{
closed = 1;
nodes = (
"314 521 LINE SMOOTH",
"129 521 OFFCURVE",
"41 366 OFFCURVE",
"41 193 CURVE SMOOTH",
"41 62 OFFCURVE",
"121 -10 OFFCURVE",
"242 -10 CURVE SMOOTH",
"246 -10 LINE SMOOTH",
"383 -10 OFFCURVE",
"471 66 OFFCURVE",
"488 190 CURVE",
"399 190 LINE",
"393 157 OFFCURVE",
"369 65 OFFCURVE",
"256 65 CURVE SMOOTH",
"168 65 OFFCURVE",
"135 123 OFFCURVE",
"135 202 CURVE SMOOTH",
"135 213 OFFCURVE",
"136 223 OFFCURVE",
"137 234 CURVE",
"494 234 LINE",
"504 294 OFFCURVE",
"507 321 OFFCURVE",
"507 333 CURVE SMOOTH",
"507 344 LINE SMOOTH",
"507 455 OFFCURVE",
"434 521 OFFCURVE",
"321 521 CURVE SMOOTH"
);
},
{
closed = 1;
nodes = (
"369 446 OFFCURVE",
"415 411 OFFCURVE",
"415 343 CURVE SMOOTH",
"415 335 OFFCURVE",
"415 327 OFFCURVE",
"412 307 CURVE",
"150 307 LINE",
"173 400 OFFCURVE",
"230 446 OFFCURVE",
"306 446 CURVE SMOOTH"
);
},
{
closed = 1;
nodes = (
"299 720 LINE",
"142 575 LINE",
"222 575 LINE",
"330 664 LINE",
"411 575 LINE",
"491 575 LINE",
"377 720 LINE"
);
}
);
width = 556;
}
);
leftKerningGroup = c;
rightKerningGroup = e;
unicode = 00EA;
},
{
glyphname = edieresis;
lastChange = "2014-09-05 18:36:11 -0800";
layers = (
{
background = {
paths = (
{
closed = 1;
nodes = (
"314 521 LINE SMOOTH",
"129 521 OFFCURVE",
"41 366 OFFCURVE",
"41 193 CURVE SMOOTH",
"41 62 OFFCURVE",
"121 -10 OFFCURVE",
"242 -10 CURVE SMOOTH",
"246 -10 LINE SMOOTH",
"383 -10 OFFCURVE",
"471 66 OFFCURVE",
"488 190 CURVE",
"399 190 LINE",
"393 157 OFFCURVE",
"369 65 OFFCURVE",
"256 65 CURVE SMOOTH",
"168 65 OFFCURVE",
"135 123 OFFCURVE",
"135 202 CURVE SMOOTH",
"135 213 OFFCURVE",
"136 223 OFFCURVE",
"137 234 CURVE",
"494 234 LINE",
"504 294 OFFCURVE",
"507 321 OFFCURVE",
"507 333 CURVE SMOOTH",
"507 344 LINE SMOOTH",
"507 455 OFFCURVE",
"434 521 OFFCURVE",
"321 521 CURVE SMOOTH"
);
},
{
closed = 1;
nodes = (
"369 446 OFFCURVE",
"415 411 OFFCURVE",
"415 343 CURVE SMOOTH",
"415 335 OFFCURVE",
"415 327 OFFCURVE",
"412 307 CURVE",
"150 307 LINE",
"173 400 OFFCURVE",
"230 446 OFFCURVE",
"306 446 CURVE SMOOTH"
);
},
{
closed = 1;
nodes = (
"196 720 LINE",
"183 622 LINE",
"273 622 LINE",
"286 720 LINE"
);
},
{
closed = 1;
nodes = (
"384 720 LINE",
"371 622 LINE",
"462 622 LINE",
"475 720 LINE"
);
}
);
};
layerId = UUID0;
name = "Regular Italic";
paths = (
{
closed = 1;
nodes = (
"314 521 LINE SMOOTH",
"129 521 OFFCURVE",
"41 366 OFFCURVE",
"41 193 CURVE SMOOTH",
"41 62 OFFCURVE",
"121 -10 OFFCURVE",
"242 -10 CURVE SMOOTH",
"246 -10 LINE SMOOTH",
"383 -10 OFFCURVE",
"471 66 OFFCURVE",
"488 190 CURVE",
"399 190 LINE",
"393 157 OFFCURVE",
"369 65 OFFCURVE",
"256 65 CURVE SMOOTH",
"168 65 OFFCURVE",
"135 123 OFFCURVE",
"135 202 CURVE SMOOTH",
"135 213 OFFCURVE",
"136 223 OFFCURVE",
"137 234 CURVE",
"494 234 LINE",
"504 294 OFFCURVE",
"507 321 OFFCURVE",
"507 333 CURVE SMOOTH",
"507 344 LINE SMOOTH",
"507 455 OFFCURVE",
"434 521 OFFCURVE",
"321 521 CURVE SMOOTH"
);
},
{
closed = 1;
nodes = (
"369 446 OFFCURVE",
"415 411 OFFCURVE",
"415 343 CURVE SMOOTH",
"415 335 OFFCURVE",
"415 327 OFFCURVE",
"412 307 CURVE",
"150 307 LINE",
"173 400 OFFCURVE",
"230 446 OFFCURVE",
"306 446 CURVE SMOOTH"
);
},
{
closed = 1;
nodes = (
"196 720 LINE",
"183 622 LINE",
"273 622 LINE",
"286 720 LINE"
);
},
{
closed = 1;
nodes = (
"384 720 LINE",
"371 622 LINE",
"462 622 LINE",
"475 720 LINE"
);
}
);
width = 556;
}
);
leftKerningGroup = c;
rightKerningGroup = e;
unicode = 00EB;
},
{
glyphname = egrave;
lastChange = "2014-09-05 18:36:11 -0800";
layers = (
{
background = {
paths = (
{
closed = 1;
nodes = (
"314 521 LINE SMOOTH",
"129 521 OFFCURVE",
"41 366 OFFCURVE",
"41 193 CURVE SMOOTH",
"41 62 OFFCURVE",
"121 -10 OFFCURVE",
"242 -10 CURVE SMOOTH",
"246 -10 LINE SMOOTH",
"383 -10 OFFCURVE",
"471 66 OFFCURVE",
"488 190 CURVE",
"399 190 LINE",
"393 157 OFFCURVE",
"369 65 OFFCURVE",
"256 65 CURVE SMOOTH",
"168 65 OFFCURVE",
"135 123 OFFCURVE",
"135 202 CURVE SMOOTH",
"135 213 OFFCURVE",
"136 223 OFFCURVE",
"137 234 CURVE",
"494 234 LINE",
"504 294 OFFCURVE",
"507 321 OFFCURVE",
"507 333 CURVE SMOOTH",
"507 344 LINE SMOOTH",
"507 455 OFFCURVE",
"434 521 OFFCURVE",
"321 521 CURVE SMOOTH"
);
},
{
closed = 1;
nodes = (
"369 446 OFFCURVE",
"415 411 OFFCURVE",
"415 343 CURVE SMOOTH",
"415 335 OFFCURVE",
"415 327 OFFCURVE",
"412 307 CURVE",
"150 307 LINE",
"173 400 OFFCURVE",
"230 446 OFFCURVE",
"306 446 CURVE SMOOTH"
);
},
{
closed = 1;
nodes = (
"193 720 LINE",
"191 717 LINE",
"286 575 LINE",
"356 575 LINE",
"282 720 LINE"
);
}
);
};
layerId = UUID0;
name = "Regular Italic";
paths = (
{
closed = 1;
nodes = (
"314 521 LINE SMOOTH",
"129 521 OFFCURVE",
"41 366 OFFCURVE",
"41 193 CURVE SMOOTH",
"41 62 OFFCURVE",
"121 -10 OFFCURVE",
"242 -10 CURVE SMOOTH",
"246 -10 LINE SMOOTH",
"383 -10 OFFCURVE",
"471 66 OFFCURVE",
"488 190 CURVE",
"399 190 LINE",
"393 157 OFFCURVE",
"369 65 OFFCURVE",
"256 65 CURVE SMOOTH",
"168 65 OFFCURVE",
"135 123 OFFCURVE",
"135 202 CURVE SMOOTH",
"135 213 OFFCURVE",
"136 223 OFFCURVE",
"137 234 CURVE",
"494 234 LINE",
"504 294 OFFCURVE",
"507 321 OFFCURVE",
"507 333 CURVE SMOOTH",
"507 344 LINE SMOOTH",
"507 455 OFFCURVE",
"434 521 OFFCURVE",
"321 521 CURVE SMOOTH"
);
},
{
closed = 1;
nodes = (
"369 446 OFFCURVE",
"415 411 OFFCURVE",
"415 343 CURVE SMOOTH",
"415 335 OFFCURVE",
"415 327 OFFCURVE",
"412 307 CURVE",
"150 307 LINE",
"173 400 OFFCURVE",
"230 446 OFFCURVE",
"306 446 CURVE SMOOTH"
);
},
{
closed = 1;
nodes = (
"193 720 LINE",
"191 717 LINE",
"286 575 LINE",
"356 575 LINE",
"282 720 LINE"
);
}
);
width = 556;
}
);
leftKerningGroup = c;
rightKerningGroup = e;
unicode = 00E8;
},
{
glyphname = f;
lastChange = "2014-09-05 18:36:11 -0800";
layers = (
{
background = {
paths = (
{
closed = 1;
nodes = (
"214 728 OFFCURVE",
"160 691 OFFCURVE",
"147 602 CURVE SMOOTH",
"134 511 LINE",
"76 511 LINE",
"66 436 LINE",
"125 436 LINE",
"54 -46 LINE SMOOTH",
"45 -104 OFFCURVE",
"15 -110 OFFCURVE",
"-11 -110 CURVE SMOOTH",
"-26 -110 OFFCURVE",
"-57 -103 OFFCURVE",
"-72 -96 CURVE",
"-80 -165 LINE",
"-61 -177 OFFCURVE",
"-24 -184 OFFCURVE",
"4 -184 CURVE SMOOTH",
"77 -184 OFFCURVE",
"134 -147 OFFCURVE",
"147 -58 CURVE SMOOTH",
"218 436 LINE",
"338 436 LINE",
"347 511 LINE",
"227 511 LINE",
"239 590 LINE SMOOTH",
"248 648 OFFCURVE",
"276 654 OFFCURVE",
"305 654 CURVE SMOOTH",
"320 654 OFFCURVE",
"350 647 OFFCURVE",
"365 640 CURVE",
"374 709 LINE",
"354 721 OFFCURVE",
"318 728 OFFCURVE",
"290 728 CURVE SMOOTH"
);
}
);
};
layerId = UUID0;
name = "Regular Italic";
paths = (
{
closed = 1;
nodes = (
"214 728 OFFCURVE",
"160 691 OFFCURVE",
"147 602 CURVE SMOOTH",
"134 511 LINE",
"76 511 LINE",
"66 436 LINE",
"125 436 LINE",
"54 -46 LINE SMOOTH",
"45 -104 OFFCURVE",
"15 -110 OFFCURVE",
"-11 -110 CURVE SMOOTH",
"-26 -110 OFFCURVE",
"-57 -103 OFFCURVE",
"-72 -96 CURVE",
"-80 -165 LINE",
"-61 -177 OFFCURVE",
"-24 -184 OFFCURVE",
"4 -184 CURVE SMOOTH",
"77 -184 OFFCURVE",
"134 -147 OFFCURVE",
"147 -58 CURVE SMOOTH",
"218 436 LINE",
"338 436 LINE",
"347 511 LINE",
"227 511 LINE",
"239 590 LINE SMOOTH",
"248 648 OFFCURVE",
"276 654 OFFCURVE",
"305 654 CURVE SMOOTH",
"320 654 OFFCURVE",
"350 647 OFFCURVE",
"365 640 CURVE",
"374 709 LINE",
"354 721 OFFCURVE",
"318 728 OFFCURVE",
"290 728 CURVE SMOOTH"
);
}
);
width = 340;
}
);
leftKerningGroup = f;
unicode = 0066;
},
{
glyphname = g;
lastChange = "2014-09-05 18:36:11 -0800";
layers = (
{
anchors = (
{
name = top;
position = "{292, 511}";
}
);
background = {
anchors = (
{
name = top;
position = "{292, 511}";
}
);
paths = (
{
closed = 1;
nodes = (
"124 521 OFFCURVE",
"44 368 OFFCURVE",
"44 208 CURVE SMOOTH",
"44 85 OFFCURVE",
"117 20 OFFCURVE",
"215 20 CURVE SMOOTH",
"287 20 OFFCURVE",
"344 52 OFFCURVE",
"379 95 CURVE",
"368 15 LINE SMOOTH",
"358 -54 OFFCURVE",
"305 -111 OFFCURVE",
"223 -111 CURVE SMOOTH",
"154 -111 OFFCURVE",
"114 -75 OFFCURVE",
"114 -19 CURVE",
"21 -19 LINE",
"21 -111 OFFCURVE",
"81 -186 OFFCURVE",
"213 -186 CURVE SMOOTH",
"375 -186 OFFCURVE",
"449 -89 OFFCURVE",
"465 34 CURVE",
"532 511 LINE",
"496 511 LINE",
"451 430 LINE",
"422 491 OFFCURVE",
"369 521 OFFCURVE",
"292 521 CURVE SMOOTH"
);
},
{
closed = 1;
nodes = (
"366 446 OFFCURVE",
"409 417 OFFCURVE",
"409 326 CURVE SMOOTH",
"409 219 OFFCURVE",
"367 95 OFFCURVE",
"250 95 CURVE SMOOTH",
"184 95 OFFCURVE",
"140 127 OFFCURVE",
"140 217 CURVE SMOOTH",
"140 394 OFFCURVE",
"219 446 OFFCURVE",
"300 446 CURVE SMOOTH"
);
}
);
};
layerId = UUID0;
name = "Regular Italic";
paths = (
{
closed = 1;
nodes = (
"124 521 OFFCURVE",
"44 368 OFFCURVE",
"44 208 CURVE SMOOTH",
"44 85 OFFCURVE",
"117 20 OFFCURVE",
"215 20 CURVE SMOOTH",
"287 20 OFFCURVE",
"344 52 OFFCURVE",
"379 95 CURVE",
"368 15 LINE SMOOTH",
"358 -54 OFFCURVE",
"305 -111 OFFCURVE",
"223 -111 CURVE SMOOTH",
"154 -111 OFFCURVE",
"114 -75 OFFCURVE",
"114 -19 CURVE",
"21 -19 LINE",
"21 -111 OFFCURVE",
"81 -186 OFFCURVE",
"213 -186 CURVE SMOOTH",
"375 -186 OFFCURVE",
"449 -89 OFFCURVE",
"465 34 CURVE",
"532 511 LINE",
"496 511 LINE",
"451 430 LINE",
"422 491 OFFCURVE",
"369 521 OFFCURVE",
"292 521 CURVE SMOOTH"
);
},
{
closed = 1;
nodes = (
"366 446 OFFCURVE",
"409 417 OFFCURVE",
"409 326 CURVE SMOOTH",
"409 219 OFFCURVE",
"367 95 OFFCURVE",
"250 95 CURVE SMOOTH",
"184 95 OFFCURVE",
"140 127 OFFCURVE",
"140 217 CURVE SMOOTH",
"140 394 OFFCURVE",
"219 446 OFFCURVE",
"300 446 CURVE SMOOTH"
);
}
);
width = 583;
}
);
unicode = 0067;
},
{
glyphname = h;
lastChange = "2014-09-05 19:04:18 -0800";
layers = (
{
anchors = (
{
name = center;
position = "{297, 256}";
},
{
name = top;
position = "{187, 686}";
}
);
background = {
anchors = (
{
name = center;
position = "{297, 256}";
},
{
name = top;
position = "{297, 511}";
}
);
paths = (
{
closed = 1;
nodes = (
"143 720 LINE",
"42 0 LINE",
"136 0 LINE",
"179 304 LINE SMOOTH",
"190 384 OFFCURVE",
"264 446 OFFCURVE",
"335 446 CURVE SMOOTH",
"391 446 OFFCURVE",
"428 420 OFFCURVE",
"428 356 CURVE",
"427 342 OFFCURVE",
"416 252 OFFCURVE",
"404 167 CURVE SMOOTH",
"380 0 LINE",
"474 0 LINE",
"499 177 LINE SMOOTH",
"512 268 OFFCURVE",
"525 362 OFFCURVE",
"525 380 CURVE SMOOTH",
"525 478 OFFCURVE",
"458 521 OFFCURVE",
"367 521 CURVE SMOOTH",
"310 521 OFFCURVE",
"251 500 OFFCURVE",
"199 447 CURVE",
"237 720 LINE"
);
}
);
};
layerId = UUID0;
name = "Regular Italic";
paths = (
{
closed = 1;
nodes = (
"143 720 LINE",
"42 0 LINE",
"136 0 LINE",
"179 304 LINE SMOOTH",
"190 384 OFFCURVE",
"264 446 OFFCURVE",
"335 446 CURVE SMOOTH",
"391 446 OFFCURVE",
"428 420 OFFCURVE",
"428 356 CURVE",
"427 342 OFFCURVE",
"416 252 OFFCURVE",
"404 167 CURVE SMOOTH",
"380 0 LINE",
"474 0 LINE",
"499 177 LINE SMOOTH",
"512 268 OFFCURVE",
"525 362 OFFCURVE",
"525 380 CURVE SMOOTH",
"525 478 OFFCURVE",
"458 521 OFFCURVE",
"367 521 CURVE SMOOTH",
"310 521 OFFCURVE",
"251 500 OFFCURVE",
"199 447 CURVE",
"237 720 LINE"
);
}
);
width = 593;
}
);
leftKerningGroup = b;
rightKerningGroup = h;
unicode = 0068;
},
{
glyphname = i;
lastChange = "2014-09-05 18:36:11 -0800";
layers = (
{
background = {
paths = (
{
closed = 1;
nodes = (
"114 511 LINE",
"42 0 LINE",
"136 0 LINE",
"208 511 LINE"
);
},
{
closed = 1;
nodes = (
"141 720 LINE",
"129 633 LINE",
"227 633 LINE",
"239 720 LINE"
);
}
);
};
layerId = UUID0;
name = "Regular Italic";
paths = (
{
closed = 1;
nodes = (
"114 511 LINE",
"42 0 LINE",
"136 0 LINE",
"208 511 LINE"
);
},
{
closed = 1;
nodes = (
"141 720 LINE",
"129 633 LINE",
"227 633 LINE",
"239 720 LINE"
);
}
);
width = 260;
}
);
leftKerningGroup = i;
rightKerningGroup = i;
unicode = 0069;
},
{
glyphname = dotlessi;
lastChange = "2014-09-05 19:04:25 -0800";
layers = (
{
anchors = (
{
name = ogonek;
position = "{135, 10}";
},
{
name = top;
position = "{161, 511}";
}
);
background = {
anchors = (
{
name = ogonek;
position = "{235, 10}";
},
{
name = top;
position = "{131, 511}";
}
);
paths = (
{
closed = 1;
nodes = (
"114 511 LINE",
"43 0 LINE",
"137 0 LINE",
"208 511 LINE"
);
}
);
};
layerId = UUID0;
name = "Regular Italic";
paths = (
{
closed = 1;
nodes = (
"114 511 LINE",
"43 0 LINE",
"137 0 LINE",
"208 511 LINE"
);
}
);
width = 261;
}
);
leftKerningGroup = i;
rightKerningGroup = i;
unicode = 0131;
},
{
glyphname = iacute;
lastChange = "2014-09-05 18:36:11 -0800";
layers = (
{
background = {
paths = (
{
closed = 1;
nodes = (
"114 511 LINE",
"43 0 LINE",
"137 0 LINE",
"208 511 LINE"
);
},
{
closed = 1;
nodes = (
"232 720 LINE",
"117 575 LINE",
"186 575 LINE",
"322 716 LINE",
"322 720 LINE"
);
}
);
};
layerId = UUID0;
name = "Regular Italic";
paths = (
{
closed = 1;
nodes = (
"114 511 LINE",
"43 0 LINE",
"137 0 LINE",
"208 511 LINE"
);
},
{
closed = 1;
nodes = (
"232 720 LINE",
"117 575 LINE",
"186 575 LINE",
"322 716 LINE",
"322 720 LINE"
);
}
);
width = 261;
}
);
leftKerningGroup = i;
rightKerningGroup = i;
unicode = 00ED;
},
{
glyphname = icircumflex;
lastChange = "2014-09-05 18:36:11 -0800";
layers = (
{
background = {
paths = (
{
closed = 1;
nodes = (
"114 511 LINE",
"43 0 LINE",
"137 0 LINE",
"208 511 LINE"
);
},
{
closed = 1;
nodes = (
"147 720 LINE",
"-10 575 LINE",
"70 575 LINE",
"178 664 LINE",
"259 575 LINE",
"339 575 LINE",
"225 720 LINE"
);
}
);
};
layerId = UUID0;
name = "Regular Italic";
paths = (
{
closed = 1;
nodes = (
"114 511 LINE",
"43 0 LINE",
"137 0 LINE",
"208 511 LINE"
);
},
{
closed = 1;
nodes = (
"147 720 LINE",
"-10 575 LINE",
"70 575 LINE",
"178 664 LINE",
"259 575 LINE",
"339 575 LINE",
"225 720 LINE"
);
}
);
width = 261;
}
);
leftKerningGroup = i;
rightKerningGroup = i;
unicode = 00EE;
},
{
glyphname = idieresis;
lastChange = "2014-09-05 18:36:11 -0800";
layers = (
{
background = {
paths = (
{
closed = 1;
nodes = (
"114 511 LINE",
"43 0 LINE",
"137 0 LINE",
"208 511 LINE"
);
},
{
closed = 1;
nodes = (
"46 719 LINE",
"33 621 LINE",
"123 621 LINE",
"136 719 LINE"
);
},
{
closed = 1;
nodes = (
"234 719 LINE",
"221 621 LINE",
"312 621 LINE",
"325 719 LINE"
);
}
);
};
layerId = UUID0;
name = "Regular Italic";
paths = (
{
closed = 1;
nodes = (
"114 511 LINE",
"43 0 LINE",
"137 0 LINE",
"208 511 LINE"
);
},
{
closed = 1;
nodes = (
"46 719 LINE",
"33 621 LINE",
"123 621 LINE",
"136 719 LINE"
);
},
{
closed = 1;
nodes = (
"234 719 LINE",
"221 621 LINE",
"312 621 LINE",
"325 719 LINE"
);
}
);
width = 261;
}
);
leftKerningGroup = i;
rightKerningGroup = i;
unicode = 00EF;
},
{
glyphname = igrave;
lastChange = "2014-09-05 18:36:11 -0800";
layers = (
{
background = {
paths = (
{
closed = 1;
nodes = (
"114 511 LINE",
"43 0 LINE",
"137 0 LINE",
"208 511 LINE"
);
},
{
closed = 1;
nodes = (
"37 720 LINE",
"35 717 LINE",
"130 575 LINE",
"200 575 LINE",
"126 720 LINE"
);
}
);
};
layerId = UUID0;
name = "Regular Italic";
paths = (
{
closed = 1;
nodes = (
"114 511 LINE",
"43 0 LINE",
"137 0 LINE",
"208 511 LINE"
);
},
{
closed = 1;
nodes = (
"37 720 LINE",
"35 717 LINE",
"130 575 LINE",
"200 575 LINE",
"126 720 LINE"
);
}
);
width = 261;
}
);
leftKerningGroup = i;
rightKerningGroup = i;
unicode = 00EC;
},
{
color = 3;
glyphname = iogonek;
lastChange = "2014-09-09 17:34:34 -0800";
layers = (
{
components = (
{
name = dotlessi;
transform = "{1, 0, 0, 1, 0, 0}";
},
{
name = ogonek;
transform = "{1, 0, 0, 1, -53, 0}";
}
);
layerId = UUID0;
name = "Regular Italic";
paths = (
{
closed = 1;
nodes = (
"141 720 LINE",
"129 633 LINE",
"227 633 LINE",
"239 720 LINE"
);
}
);
width = 261;
}
);
unicode = 012F;
},
{
glyphname = j;
lastChange = "2014-09-05 18:36:11 -0800";
layers = (
{
background = {
paths = (
{
closed = 1;
nodes = (
"114 511 LINE",
"36 -44 LINE SMOOTH",
"28 -103 OFFCURVE",
"-3 -112 OFFCURVE",
"-29 -112 CURVE SMOOTH",
"-44 -112 OFFCURVE",
"-72 -104 OFFCURVE",
"-87 -97 CURVE",
"-96 -167 LINE",
"-77 -179 OFFCURVE",
"-42 -186 OFFCURVE",
"-14 -186 CURVE SMOOTH",
"78 -186 OFFCURVE",
"117 -134 OFFCURVE",
"134 -15 CURVE SMOOTH",
"208 511 LINE"
);
},
{
closed = 1;
nodes = (
"141 720 LINE",
"129 633 LINE",
"227 633 LINE",
"239 720 LINE"
);
}
);
};
layerId = UUID0;
name = "Regular Italic";
paths = (
{
closed = 1;
nodes = (
"114 511 LINE",
"36 -44 LINE SMOOTH",
"28 -103 OFFCURVE",
"-3 -112 OFFCURVE",
"-29 -112 CURVE SMOOTH",
"-44 -112 OFFCURVE",
"-72 -104 OFFCURVE",
"-87 -97 CURVE",
"-96 -167 LINE",
"-77 -179 OFFCURVE",
"-42 -186 OFFCURVE",
"-14 -186 CURVE SMOOTH",
"78 -186 OFFCURVE",
"117 -134 OFFCURVE",
"134 -15 CURVE SMOOTH",
"208 511 LINE"
);
},
{
closed = 1;
nodes = (
"141 720 LINE",
"129 633 LINE",
"227 633 LINE",
"239 720 LINE"
);
}
);
width = 260;
}
);
leftKerningGroup = i;
rightKerningGroup = i;
unicode = 006A;
},
{
glyphname = k;
lastChange = "2014-09-05 18:36:11 -0800";
layers = (
{
anchors = (
{
name = bottom;
position = "{267, 0}";
}
);
background = {
anchors = (
{
name = bottom;
position = "{267, 0}";
}
);
paths = (
{
closed = 1;
nodes = (
"143 720 LINE",
"42 0 LINE",
"136 0 LINE",
"151 110 LINE",
"240 190 LINE",
"366 0 LINE",
"480 0 LINE",
"307 263 LINE",
"539 511 LINE",
"436 511 LINE",
"168 226 LINE",
"237 720 LINE"
);
}
);
};
layerId = UUID0;
name = "Regular Italic";
paths = (
{
closed = 1;
nodes = (
"143 720 LINE",
"42 0 LINE",
"136 0 LINE",
"151 110 LINE",
"240 190 LINE",
"366 0 LINE",
"480 0 LINE",
"307 263 LINE",
"539 511 LINE",
"436 511 LINE",
"168 226 LINE",
"237 720 LINE"
);
}
);
width = 534;
}
);
leftKerningGroup = b;
unicode = 006B;
},
{
glyphname = l;
lastChange = "2014-09-08 21:33:55 -0800";
layers = (
{
anchors = (
{
name = bottom;
position = "{93, 0}";
},
{
name = top;
position = "{197, 686}";
},
{
name = topright;
position = "{339, 686}";
}
);
background = {
anchors = (
{
name = top;
position = "{134, 511}";
},
{
name = bottom;
position = "{134, 0}";
},
{
name = topright;
position = "{248, 511}";
}
);
paths = (
{
closed = 1;
nodes = (
"147 720 LINE",
"46 0 LINE",
"140 0 LINE",
"241 720 LINE"
);
}
);
};
layerId = UUID0;
name = "Regular Italic";
paths = (
{
closed = 1;
nodes = (
"147 720 LINE",
"46 0 LINE",
"140 0 LINE",
"241 720 LINE"
);
}
);
width = 268;
}
);
leftKerningGroup = l;
rightKerningGroup = l;
unicode = 006C;
},
{
glyphname = lslash;
lastChange = "2014-09-05 18:36:11 -0800";
layers = (
{
background = {
paths = (
{
closed = 1;
nodes = (
"161 720 LINE",
"115 392 LINE",
"27 351 LINE",
"18 281 LINE",
"105 322 LINE",
"60 0 LINE",
"154 0 LINE",
"206 370 LINE",
"294 411 LINE",
"304 481 LINE",
"216 440 LINE",
"255 720 LINE"
);
}
);
};
layerId = UUID0;
name = "Regular Italic";
paths = (
{
closed = 1;
nodes = (
"161 720 LINE",
"115 392 LINE",
"27 351 LINE",
"18 281 LINE",
"105 322 LINE",
"60 0 LINE",
"154 0 LINE",
"206 370 LINE",
"294 411 LINE",
"304 481 LINE",
"216 440 LINE",
"255 720 LINE"
);
}
);
width = 297;
}
);
leftKerningGroup = l;
rightKerningGroup = l;
unicode = 0142;
},
{
glyphname = m;
lastChange = "2014-09-05 18:36:11 -0800";
layers = (
{
background = {
paths = (
{
closed = 1;
nodes = (
"601 521 OFFCURVE",
"544 505 OFFCURVE",
"485 436 CURVE",
"466 495 OFFCURVE",
"418 521 OFFCURVE",
"351 521 CURVE SMOOTH",
"294 521 OFFCURVE",
"236 497 OFFCURVE",
"184 436 CURVE",
"184 511 LINE",
"114 511 LINE",
"42 0 LINE",
"136 0 LINE",
"179 304 LINE SMOOTH",
"190 384 OFFCURVE",
"255 446 OFFCURVE",
"319 446 CURVE SMOOTH",
"367 446 OFFCURVE",
"397 422 OFFCURVE",
"397 361 CURVE",
"396 348 OFFCURVE",
"384 258 OFFCURVE",
"372 171 CURVE SMOOTH",
"348 0 LINE",
"442 0 LINE",
"485 304 LINE SMOOTH",
"496 384 OFFCURVE",
"561 446 OFFCURVE",
"625 446 CURVE SMOOTH",
"673 446 OFFCURVE",
"702 428 OFFCURVE",
"702 361 CURVE SMOOTH",
"702 346 OFFCURVE",
"689 258 OFFCURVE",
"678 170 CURVE",
"654 0 LINE",
"748 0 LINE",
"773 177 LINE SMOOTH",
"786 268 OFFCURVE",
"799 364 OFFCURVE",
"799 384 CURVE SMOOTH",
"799 479 OFFCURVE",
"740 521 OFFCURVE",
"657 521 CURVE SMOOTH"
);
}
);
};
layerId = UUID0;
name = "Regular Italic";
paths = (
{
closed = 1;
nodes = (
"601 521 OFFCURVE",
"544 505 OFFCURVE",
"485 436 CURVE",
"466 495 OFFCURVE",
"418 521 OFFCURVE",
"351 521 CURVE SMOOTH",
"294 521 OFFCURVE",
"236 497 OFFCURVE",
"184 436 CURVE",
"184 511 LINE",
"114 511 LINE",
"42 0 LINE",
"136 0 LINE",
"179 304 LINE SMOOTH",
"190 384 OFFCURVE",
"255 446 OFFCURVE",
"319 446 CURVE SMOOTH",
"367 446 OFFCURVE",
"397 422 OFFCURVE",
"397 361 CURVE",
"396 348 OFFCURVE",
"384 258 OFFCURVE",
"372 171 CURVE SMOOTH",
"348 0 LINE",
"442 0 LINE",
"485 304 LINE SMOOTH",
"496 384 OFFCURVE",
"561 446 OFFCURVE",
"625 446 CURVE SMOOTH",
"673 446 OFFCURVE",
"702 428 OFFCURVE",
"702 361 CURVE SMOOTH",
"702 346 OFFCURVE",
"689 258 OFFCURVE",
"678 170 CURVE",
"654 0 LINE",
"748 0 LINE",
"773 177 LINE SMOOTH",
"786 268 OFFCURVE",
"799 364 OFFCURVE",
"799 384 CURVE SMOOTH",
"799 479 OFFCURVE",
"740 521 OFFCURVE",
"657 521 CURVE SMOOTH"
);
}
);
width = 867;
}
);
leftKerningGroup = m;
rightKerningGroup = h;
unicode = 006D;
},
{
glyphname = n;
lastChange = "2014-09-05 19:04:55 -0800";
layers = (
{
anchors = (
{
name = bottom;
position = "{258, 0}";
},
{
name = top;
position = "{337, 511}";
}
);
background = {
anchors = (
{
name = top;
position = "{297, 511}";
},
{
name = bottom;
position = "{297, 0}";
}
);
paths = (
{
closed = 1;
nodes = (
"304 521 OFFCURVE",
"240 497 OFFCURVE",
"184 436 CURVE",
"184 511 LINE",
"114 511 LINE",
"42 0 LINE",
"136 0 LINE",
"179 304 LINE SMOOTH",
"190 384 OFFCURVE",
"264 446 OFFCURVE",
"335 446 CURVE SMOOTH",
"391 446 OFFCURVE",
"428 420 OFFCURVE",
"428 356 CURVE SMOOTH",
"428 340 OFFCURVE",
"415 253 OFFCURVE",
"404 167 CURVE",
"380 0 LINE",
"474 0 LINE",
"499 178 LINE SMOOTH",
"512 268 OFFCURVE",
"525 364 OFFCURVE",
"525 380 CURVE SMOOTH",
"525 478 OFFCURVE",
"458 521 OFFCURVE",
"367 521 CURVE SMOOTH"
);
}
);
};
layerId = UUID0;
name = "Regular Italic";
paths = (
{
closed = 1;
nodes = (
"304 521 OFFCURVE",
"240 497 OFFCURVE",
"184 436 CURVE",
"184 511 LINE",
"114 511 LINE",
"42 0 LINE",
"136 0 LINE",
"179 304 LINE SMOOTH",
"190 384 OFFCURVE",
"264 446 OFFCURVE",
"335 446 CURVE SMOOTH",
"391 446 OFFCURVE",
"428 420 OFFCURVE",
"428 356 CURVE SMOOTH",
"428 340 OFFCURVE",
"415 253 OFFCURVE",
"404 167 CURVE",
"380 0 LINE",
"474 0 LINE",
"499 178 LINE SMOOTH",
"512 268 OFFCURVE",
"525 364 OFFCURVE",
"525 380 CURVE SMOOTH",
"525 478 OFFCURVE",
"458 521 OFFCURVE",
"367 521 CURVE SMOOTH"
);
}
);
width = 593;
}
);
leftKerningGroup = m;
rightKerningGroup = h;
unicode = 006E;
},
{
glyphname = ntilde;
lastChange = "2014-09-05 18:36:11 -0800";
layers = (
{
background = {
paths = (
{
closed = 1;
nodes = (
"304 521 OFFCURVE",
"240 497 OFFCURVE",
"184 436 CURVE",
"184 511 LINE",
"114 511 LINE",
"42 0 LINE",
"136 0 LINE",
"179 304 LINE SMOOTH",
"190 384 OFFCURVE",
"264 446 OFFCURVE",
"335 446 CURVE SMOOTH",
"391 446 OFFCURVE",
"428 420 OFFCURVE",
"428 356 CURVE SMOOTH",
"428 340 OFFCURVE",
"415 253 OFFCURVE",
"404 167 CURVE",
"380 0 LINE",
"474 0 LINE",
"499 178 LINE SMOOTH",
"512 268 OFFCURVE",
"525 364 OFFCURVE",
"525 380 CURVE SMOOTH",
"525 478 OFFCURVE",
"458 521 OFFCURVE",
"367 521 CURVE SMOOTH"
);
},
{
closed = 1;
nodes = (
"503 720 LINE",
"493 697 OFFCURVE",
"473 685 OFFCURVE",
"443 685 CURVE SMOOTH",
"390 685 OFFCURVE",
"344 720 OFFCURVE",
"280 720 CURVE SMOOTH",
"202 720 OFFCURVE",
"162 661 OFFCURVE",
"154 616 CURVE",
"202 616 LINE",
"212 639 OFFCURVE",
"232 650 OFFCURVE",
"262 650 CURVE SMOOTH",
"316 650 OFFCURVE",
"362 616 OFFCURVE",
"426 616 CURVE SMOOTH",
"504 616 OFFCURVE",
"545 672 OFFCURVE",
"553 720 CURVE"
);
}
);
};
layerId = UUID0;
name = "Regular Italic";
paths = (
{
closed = 1;
nodes = (
"304 521 OFFCURVE",
"240 497 OFFCURVE",
"184 436 CURVE",
"184 511 LINE",
"114 511 LINE",
"42 0 LINE",
"136 0 LINE",
"179 304 LINE SMOOTH",
"190 384 OFFCURVE",
"264 446 OFFCURVE",
"335 446 CURVE SMOOTH",
"391 446 OFFCURVE",
"428 420 OFFCURVE",
"428 356 CURVE SMOOTH",
"428 340 OFFCURVE",
"415 253 OFFCURVE",
"404 167 CURVE",
"380 0 LINE",
"474 0 LINE",
"499 178 LINE SMOOTH",
"512 268 OFFCURVE",
"525 364 OFFCURVE",
"525 380 CURVE SMOOTH",
"525 478 OFFCURVE",
"458 521 OFFCURVE",
"367 521 CURVE SMOOTH"
);
},
{
closed = 1;
nodes = (
"503 720 LINE",
"493 697 OFFCURVE",
"473 685 OFFCURVE",
"443 685 CURVE SMOOTH",
"390 685 OFFCURVE",
"344 720 OFFCURVE",
"280 720 CURVE SMOOTH",
"202 720 OFFCURVE",
"162 661 OFFCURVE",
"154 616 CURVE",
"202 616 LINE",
"212 639 OFFCURVE",
"232 650 OFFCURVE",
"262 650 CURVE SMOOTH",
"316 650 OFFCURVE",
"362 616 OFFCURVE",
"426 616 CURVE SMOOTH",
"504 616 OFFCURVE",
"545 672 OFFCURVE",
"553 720 CURVE"
);
}
);
width = 593;
}
);
leftKerningGroup = m;
rightKerningGroup = h;
unicode = 00F1;
},
{
glyphname = o;
lastChange = "2014-09-05 19:05:01 -0800";
layers = (
{
anchors = (
{
name = top;
position = "{338, 511}";
}
);
background = {
anchors = (
{
name = top;
position = "{288, 511}";
}
);
paths = (
{
closed = 1;
nodes = (
"109 521 OFFCURVE",
"41 351 OFFCURVE",
"41 187 CURVE SMOOTH",
"41 54 OFFCURVE",
"129 -10 OFFCURVE",
"245 -10 CURVE SMOOTH",
"456 -10 OFFCURVE",
"524 159 OFFCURVE",
"524 324 CURVE SMOOTH",
"524 457 OFFCURVE",
"436 521 OFFCURVE",
"320 521 CURVE SMOOTH"
);
},
{
closed = 1;
nodes = (
"377 446 OFFCURVE",
"428 406 OFFCURVE",
"428 310 CURVE SMOOTH",
"428 201 OFFCURVE",
"387 65 OFFCURVE",
"256 65 CURVE SMOOTH",
"188 65 OFFCURVE",
"136 105 OFFCURVE",
"136 200 CURVE SMOOTH",
"136 309 OFFCURVE",
"173 446 OFFCURVE",
"309 446 CURVE SMOOTH"
);
}
);
};
layerId = UUID0;
name = "Regular Italic";
paths = (
{
closed = 1;
nodes = (
"109 521 OFFCURVE",
"41 351 OFFCURVE",
"41 187 CURVE SMOOTH",
"41 54 OFFCURVE",
"129 -10 OFFCURVE",
"245 -10 CURVE SMOOTH",
"456 -10 OFFCURVE",
"524 159 OFFCURVE",
"524 324 CURVE SMOOTH",
"524 457 OFFCURVE",
"436 521 OFFCURVE",
"320 521 CURVE SMOOTH"
);
},
{
closed = 1;
nodes = (
"377 446 OFFCURVE",
"428 406 OFFCURVE",
"428 310 CURVE SMOOTH",
"428 201 OFFCURVE",
"387 65 OFFCURVE",
"256 65 CURVE SMOOTH",
"188 65 OFFCURVE",
"136 105 OFFCURVE",
"136 200 CURVE SMOOTH",
"136 309 OFFCURVE",
"173 446 OFFCURVE",
"309 446 CURVE SMOOTH"
);
}
);
width = 576;
}
);
leftKerningGroup = c;
rightKerningGroup = o;
unicode = 006F;
},
{
glyphname = oacute;
lastChange = "2014-09-05 18:36:11 -0800";
layers = (
{
background = {
paths = (
{
closed = 1;
nodes = (
"109 521 OFFCURVE",
"41 351 OFFCURVE",
"41 187 CURVE SMOOTH",
"41 54 OFFCURVE",
"129 -10 OFFCURVE",
"245 -10 CURVE SMOOTH",
"456 -10 OFFCURVE",
"524 159 OFFCURVE",
"524 324 CURVE SMOOTH",
"524 457 OFFCURVE",
"436 521 OFFCURVE",
"320 521 CURVE SMOOTH"
);
},
{
closed = 1;
nodes = (
"377 446 OFFCURVE",
"428 406 OFFCURVE",
"428 310 CURVE SMOOTH",
"428 201 OFFCURVE",
"387 65 OFFCURVE",
"256 65 CURVE SMOOTH",
"188 65 OFFCURVE",
"136 105 OFFCURVE",
"136 200 CURVE SMOOTH",
"136 309 OFFCURVE",
"173 446 OFFCURVE",
"309 446 CURVE SMOOTH"
);
},
{
closed = 1;
nodes = (
"409 720 LINE",
"294 575 LINE",
"363 575 LINE",
"499 716 LINE",
"499 720 LINE"
);
}
);
};
layerId = UUID0;
name = "Regular Italic";
paths = (
{
closed = 1;
nodes = (
"109 521 OFFCURVE",
"41 351 OFFCURVE",
"41 187 CURVE SMOOTH",
"41 54 OFFCURVE",
"129 -10 OFFCURVE",
"245 -10 CURVE SMOOTH",
"456 -10 OFFCURVE",
"524 159 OFFCURVE",
"524 324 CURVE SMOOTH",
"524 457 OFFCURVE",
"436 521 OFFCURVE",
"320 521 CURVE SMOOTH"
);
},
{
closed = 1;
nodes = (
"377 446 OFFCURVE",
"428 406 OFFCURVE",
"428 310 CURVE SMOOTH",
"428 201 OFFCURVE",
"387 65 OFFCURVE",
"256 65 CURVE SMOOTH",
"188 65 OFFCURVE",
"136 105 OFFCURVE",
"136 200 CURVE SMOOTH",
"136 309 OFFCURVE",
"173 446 OFFCURVE",
"309 446 CURVE SMOOTH"
);
},
{
closed = 1;
nodes = (
"409 720 LINE",
"294 575 LINE",
"363 575 LINE",
"499 716 LINE",
"499 720 LINE"
);
}
);
width = 576;
}
);
leftKerningGroup = c;
rightKerningGroup = o;
unicode = 00F3;
},
{
glyphname = ocircumflex;
lastChange = "2014-09-05 18:36:11 -0800";
layers = (
{
background = {
paths = (
{
closed = 1;
nodes = (
"109 521 OFFCURVE",
"41 351 OFFCURVE",
"41 187 CURVE SMOOTH",
"41 54 OFFCURVE",
"129 -10 OFFCURVE",
"245 -10 CURVE SMOOTH",
"456 -10 OFFCURVE",
"524 159 OFFCURVE",
"524 324 CURVE SMOOTH",
"524 457 OFFCURVE",
"436 521 OFFCURVE",
"320 521 CURVE SMOOTH"
);
},
{
closed = 1;
nodes = (
"377 446 OFFCURVE",
"428 406 OFFCURVE",
"428 310 CURVE SMOOTH",
"428 201 OFFCURVE",
"387 65 OFFCURVE",
"256 65 CURVE SMOOTH",
"188 65 OFFCURVE",
"136 105 OFFCURVE",
"136 200 CURVE SMOOTH",
"136 309 OFFCURVE",
"173 446 OFFCURVE",
"309 446 CURVE SMOOTH"
);
},
{
closed = 1;
nodes = (
"318 720 LINE",
"161 575 LINE",
"241 575 LINE",
"349 664 LINE",
"430 575 LINE",
"510 575 LINE",
"396 720 LINE"
);
}
);
};
layerId = UUID0;
name = "Regular Italic";
paths = (
{
closed = 1;
nodes = (
"109 521 OFFCURVE",
"41 351 OFFCURVE",
"41 187 CURVE SMOOTH",
"41 54 OFFCURVE",
"129 -10 OFFCURVE",
"245 -10 CURVE SMOOTH",
"456 -10 OFFCURVE",
"524 159 OFFCURVE",
"524 324 CURVE SMOOTH",
"524 457 OFFCURVE",
"436 521 OFFCURVE",
"320 521 CURVE SMOOTH"
);
},
{
closed = 1;
nodes = (
"377 446 OFFCURVE",
"428 406 OFFCURVE",
"428 310 CURVE SMOOTH",
"428 201 OFFCURVE",
"387 65 OFFCURVE",
"256 65 CURVE SMOOTH",
"188 65 OFFCURVE",
"136 105 OFFCURVE",
"136 200 CURVE SMOOTH",
"136 309 OFFCURVE",
"173 446 OFFCURVE",
"309 446 CURVE SMOOTH"
);
},
{
closed = 1;
nodes = (
"318 720 LINE",
"161 575 LINE",
"241 575 LINE",
"349 664 LINE",
"430 575 LINE",
"510 575 LINE",
"396 720 LINE"
);
}
);
width = 576;
}
);
leftKerningGroup = c;
rightKerningGroup = o;
unicode = 00F4;
},
{
glyphname = odieresis;
lastChange = "2014-09-05 18:36:11 -0800";
layers = (
{
background = {
paths = (
{
closed = 1;
nodes = (
"109 521 OFFCURVE",
"41 351 OFFCURVE",
"41 187 CURVE SMOOTH",
"41 54 OFFCURVE",
"129 -10 OFFCURVE",
"245 -10 CURVE SMOOTH",
"456 -10 OFFCURVE",
"524 159 OFFCURVE",
"524 324 CURVE SMOOTH",
"524 457 OFFCURVE",
"436 521 OFFCURVE",
"320 521 CURVE SMOOTH"
);
},
{
closed = 1;
nodes = (
"377 446 OFFCURVE",
"428 406 OFFCURVE",
"428 310 CURVE SMOOTH",
"428 201 OFFCURVE",
"387 65 OFFCURVE",
"256 65 CURVE SMOOTH",
"188 65 OFFCURVE",
"136 105 OFFCURVE",
"136 200 CURVE SMOOTH",
"136 309 OFFCURVE",
"173 446 OFFCURVE",
"309 446 CURVE SMOOTH"
);
},
{
closed = 1;
nodes = (
"205 719 LINE",
"192 621 LINE",
"282 621 LINE",
"295 719 LINE"
);
},
{
closed = 1;
nodes = (
"393 719 LINE",
"380 621 LINE",
"471 621 LINE",
"484 719 LINE"
);
}
);
};
layerId = UUID0;
name = "Regular Italic";
paths = (
{
closed = 1;
nodes = (
"109 521 OFFCURVE",
"41 351 OFFCURVE",
"41 187 CURVE SMOOTH",
"41 54 OFFCURVE",
"129 -10 OFFCURVE",
"245 -10 CURVE SMOOTH",
"456 -10 OFFCURVE",
"524 159 OFFCURVE",
"524 324 CURVE SMOOTH",
"524 457 OFFCURVE",
"436 521 OFFCURVE",
"320 521 CURVE SMOOTH"
);
},
{
closed = 1;
nodes = (
"377 446 OFFCURVE",
"428 406 OFFCURVE",
"428 310 CURVE SMOOTH",
"428 201 OFFCURVE",
"387 65 OFFCURVE",
"256 65 CURVE SMOOTH",
"188 65 OFFCURVE",
"136 105 OFFCURVE",
"136 200 CURVE SMOOTH",
"136 309 OFFCURVE",
"173 446 OFFCURVE",
"309 446 CURVE SMOOTH"
);
},
{
closed = 1;
nodes = (
"205 719 LINE",
"192 621 LINE",
"282 621 LINE",
"295 719 LINE"
);
},
{
closed = 1;
nodes = (
"393 719 LINE",
"380 621 LINE",
"471 621 LINE",
"484 719 LINE"
);
}
);
width = 576;
}
);
leftKerningGroup = c;
rightKerningGroup = o;
unicode = 00F6;
},
{
glyphname = ograve;
lastChange = "2014-09-05 18:36:11 -0800";
layers = (
{
background = {
paths = (
{
closed = 1;
nodes = (
"109 521 OFFCURVE",
"41 351 OFFCURVE",
"41 187 CURVE SMOOTH",
"41 54 OFFCURVE",
"129 -10 OFFCURVE",
"245 -10 CURVE SMOOTH",
"456 -10 OFFCURVE",
"524 159 OFFCURVE",
"524 324 CURVE SMOOTH",
"524 457 OFFCURVE",
"436 521 OFFCURVE",
"320 521 CURVE SMOOTH"
);
},
{
closed = 1;
nodes = (
"377 446 OFFCURVE",
"428 406 OFFCURVE",
"428 310 CURVE SMOOTH",
"428 201 OFFCURVE",
"387 65 OFFCURVE",
"256 65 CURVE SMOOTH",
"188 65 OFFCURVE",
"136 105 OFFCURVE",
"136 200 CURVE SMOOTH",
"136 309 OFFCURVE",
"173 446 OFFCURVE",
"309 446 CURVE SMOOTH"
);
},
{
closed = 1;
nodes = (
"203 720 LINE",
"201 717 LINE",
"296 575 LINE",
"366 575 LINE",
"292 720 LINE"
);
}
);
};
layerId = UUID0;
name = "Regular Italic";
paths = (
{
closed = 1;
nodes = (
"109 521 OFFCURVE",
"41 351 OFFCURVE",
"41 187 CURVE SMOOTH",
"41 54 OFFCURVE",
"129 -10 OFFCURVE",
"245 -10 CURVE SMOOTH",
"456 -10 OFFCURVE",
"524 159 OFFCURVE",
"524 324 CURVE SMOOTH",
"524 457 OFFCURVE",
"436 521 OFFCURVE",
"320 521 CURVE SMOOTH"
);
},
{
closed = 1;
nodes = (
"377 446 OFFCURVE",
"428 406 OFFCURVE",
"428 310 CURVE SMOOTH",
"428 201 OFFCURVE",
"387 65 OFFCURVE",
"256 65 CURVE SMOOTH",
"188 65 OFFCURVE",
"136 105 OFFCURVE",
"136 200 CURVE SMOOTH",
"136 309 OFFCURVE",
"173 446 OFFCURVE",
"309 446 CURVE SMOOTH"
);
},
{
closed = 1;
nodes = (
"203 720 LINE",
"201 717 LINE",
"296 575 LINE",
"366 575 LINE",
"292 720 LINE"
);
}
);
width = 576;
}
);
leftKerningGroup = c;
rightKerningGroup = o;
unicode = 00F2;
},
{
glyphname = oslash;
lastChange = "2014-09-05 19:05:06 -0800";
layers = (
{
anchors = (
{
name = top;
position = "{328, 511}";
}
);
background = {
anchors = (
{
name = top;
position = "{288, 511}";
}
);
paths = (
{
closed = 1;
nodes = (
"491 568 LINE",
"434 494 LINE",
"402 512 OFFCURVE",
"364 521 OFFCURVE",
"320 521 CURVE SMOOTH",
"109 521 OFFCURVE",
"41 351 OFFCURVE",
"41 187 CURVE SMOOTH",
"41 123 OFFCURVE",
"60 78 OFFCURVE",
"92 45 CURVE",
"15 -55 LINE",
"74 -55 LINE",
"129 17 LINE",
"161 -1 OFFCURVE",
"200 -10 OFFCURVE",
"245 -10 CURVE SMOOTH",
"456 -10 OFFCURVE",
"524 159 OFFCURVE",
"524 324 CURVE SMOOTH",
"524 387 OFFCURVE",
"504 433 OFFCURVE",
"472 466 CURVE",
"550 568 LINE"
);
},
{
closed = 1;
nodes = (
"423 367 OFFCURVE",
"428 341 OFFCURVE",
"428 310 CURVE SMOOTH",
"428 201 OFFCURVE",
"387 65 OFFCURVE",
"256 65 CURVE SMOOTH",
"225 65 OFFCURVE",
"201 72 OFFCURVE",
"182 86 CURVE",
"412 388 LINE"
);
},
{
closed = 1;
nodes = (
"337 446 OFFCURVE",
"361 439 OFFCURVE",
"381 425 CURVE",
"151 123 LINE",
"141 143 OFFCURVE",
"136 169 OFFCURVE",
"136 200 CURVE",
"144 309 OFFCURVE",
"172 446 OFFCURVE",
"309 446 CURVE SMOOTH"
);
}
);
};
layerId = UUID0;
name = "Regular Italic";
paths = (
{
closed = 1;
nodes = (
"491 568 LINE",
"434 494 LINE",
"402 512 OFFCURVE",
"364 521 OFFCURVE",
"320 521 CURVE SMOOTH",
"109 521 OFFCURVE",
"41 351 OFFCURVE",
"41 187 CURVE SMOOTH",
"41 123 OFFCURVE",
"60 78 OFFCURVE",
"92 45 CURVE",
"15 -55 LINE",
"74 -55 LINE",
"129 17 LINE",
"161 -1 OFFCURVE",
"200 -10 OFFCURVE",
"245 -10 CURVE SMOOTH",
"456 -10 OFFCURVE",
"524 159 OFFCURVE",
"524 324 CURVE SMOOTH",
"524 387 OFFCURVE",
"504 433 OFFCURVE",
"472 466 CURVE",
"550 568 LINE"
);
},
{
closed = 1;
nodes = (
"423 367 OFFCURVE",
"428 341 OFFCURVE",
"428 310 CURVE SMOOTH",
"428 201 OFFCURVE",
"387 65 OFFCURVE",
"256 65 CURVE SMOOTH",
"225 65 OFFCURVE",
"201 72 OFFCURVE",
"182 86 CURVE",
"412 388 LINE"
);
},
{
closed = 1;
nodes = (
"337 446 OFFCURVE",
"361 439 OFFCURVE",
"381 425 CURVE",
"151 123 LINE",
"141 143 OFFCURVE",
"136 169 OFFCURVE",
"136 200 CURVE",
"144 309 OFFCURVE",
"172 446 OFFCURVE",
"309 446 CURVE SMOOTH"
);
}
);
width = 576;
}
);
leftKerningGroup = c;
rightKerningGroup = o;
unicode = 00F8;
},
{
glyphname = otilde;
lastChange = "2014-09-05 18:36:11 -0800";
layers = (
{
background = {
paths = (
{
closed = 1;
nodes = (
"109 521 OFFCURVE",
"41 351 OFFCURVE",
"41 187 CURVE SMOOTH",
"41 54 OFFCURVE",
"129 -10 OFFCURVE",
"245 -10 CURVE SMOOTH",
"456 -10 OFFCURVE",
"524 159 OFFCURVE",
"524 324 CURVE SMOOTH",
"524 457 OFFCURVE",
"436 521 OFFCURVE",
"320 521 CURVE SMOOTH"
);
},
{
closed = 1;
nodes = (
"377 446 OFFCURVE",
"428 406 OFFCURVE",
"428 310 CURVE SMOOTH",
"428 201 OFFCURVE",
"387 65 OFFCURVE",
"256 65 CURVE SMOOTH",
"188 65 OFFCURVE",
"136 105 OFFCURVE",
"136 200 CURVE SMOOTH",
"136 309 OFFCURVE",
"173 446 OFFCURVE",
"309 446 CURVE SMOOTH"
);
},
{
closed = 1;
nodes = (
"482 719 LINE",
"472 696 OFFCURVE",
"452 684 OFFCURVE",
"422 684 CURVE SMOOTH",
"369 684 OFFCURVE",
"323 719 OFFCURVE",
"259 719 CURVE SMOOTH",
"181 719 OFFCURVE",
"141 660 OFFCURVE",
"133 615 CURVE",
"181 615 LINE",
"191 638 OFFCURVE",
"211 649 OFFCURVE",
"241 649 CURVE SMOOTH",
"295 649 OFFCURVE",
"341 615 OFFCURVE",
"405 615 CURVE SMOOTH",
"483 615 OFFCURVE",
"524 671 OFFCURVE",
"532 719 CURVE"
);
}
);
};
layerId = UUID0;
name = "Regular Italic";
paths = (
{
closed = 1;
nodes = (
"109 521 OFFCURVE",
"41 351 OFFCURVE",
"41 187 CURVE SMOOTH",
"41 54 OFFCURVE",
"129 -10 OFFCURVE",
"245 -10 CURVE SMOOTH",
"456 -10 OFFCURVE",
"524 159 OFFCURVE",
"524 324 CURVE SMOOTH",
"524 457 OFFCURVE",
"436 521 OFFCURVE",
"320 521 CURVE SMOOTH"
);
},
{
closed = 1;
nodes = (
"377 446 OFFCURVE",
"428 406 OFFCURVE",
"428 310 CURVE SMOOTH",
"428 201 OFFCURVE",
"387 65 OFFCURVE",
"256 65 CURVE SMOOTH",
"188 65 OFFCURVE",
"136 105 OFFCURVE",
"136 200 CURVE SMOOTH",
"136 309 OFFCURVE",
"173 446 OFFCURVE",
"309 446 CURVE SMOOTH"
);
},
{
closed = 1;
nodes = (
"482 719 LINE",
"472 696 OFFCURVE",
"452 684 OFFCURVE",
"422 684 CURVE SMOOTH",
"369 684 OFFCURVE",
"323 719 OFFCURVE",
"259 719 CURVE SMOOTH",
"181 719 OFFCURVE",
"141 660 OFFCURVE",
"133 615 CURVE",
"181 615 LINE",
"191 638 OFFCURVE",
"211 649 OFFCURVE",
"241 649 CURVE SMOOTH",
"295 649 OFFCURVE",
"341 615 OFFCURVE",
"405 615 CURVE SMOOTH",
"483 615 OFFCURVE",
"524 671 OFFCURVE",
"532 719 CURVE"
);
}
);
width = 576;
}
);
leftKerningGroup = c;
rightKerningGroup = o;
unicode = 00F5;
},
{
glyphname = oe;
lastChange = "2014-09-05 18:36:11 -0800";
layers = (
{
anchors = (
{
name = top;
position = "{467, 511}";
}
);
background = {
anchors = (
{
name = top;
position = "{467, 511}";
}
);
paths = (
{
closed = 1;
nodes = (
"691 521 LINE SMOOTH",
"606 521 OFFCURVE",
"541 488 OFFCURVE",
"496 436 CURVE",
"461 493 OFFCURVE",
"397 521 OFFCURVE",
"320 521 CURVE SMOOTH",
"109 521 OFFCURVE",
"41 351 OFFCURVE",
"41 187 CURVE SMOOTH",
"41 54 OFFCURVE",
"129 -10 OFFCURVE",
"245 -10 CURVE SMOOTH",
"338 -10 OFFCURVE",
"404 23 OFFCURVE",
"448 75 CURVE",
"481 19 OFFCURVE",
"540 -10 OFFCURVE",
"619 -10 CURVE SMOOTH",
"623 -10 LINE SMOOTH",
"760 -10 OFFCURVE",
"848 66 OFFCURVE",
"865 190 CURVE",
"776 190 LINE",
"770 157 OFFCURVE",
"746 65 OFFCURVE",
"633 65 CURVE SMOOTH",
"545 65 OFFCURVE",
"512 123 OFFCURVE",
"512 202 CURVE SMOOTH",
"512 213 OFFCURVE",
"513 223 OFFCURVE",
"514 234 CURVE",
"871 234 LINE",
"881 294 OFFCURVE",
"884 321 OFFCURVE",
"884 333 CURVE SMOOTH",
"884 344 LINE SMOOTH",
"884 455 OFFCURVE",
"811 521 OFFCURVE",
"698 521 CURVE SMOOTH"
);
},
{
closed = 1;
nodes = (
"377 446 OFFCURVE",
"428 406 OFFCURVE",
"428 310 CURVE SMOOTH",
"428 201 OFFCURVE",
"387 65 OFFCURVE",
"256 65 CURVE SMOOTH",
"188 65 OFFCURVE",
"136 105 OFFCURVE",
"136 200 CURVE",
"144 309 OFFCURVE",
"172 446 OFFCURVE",
"309 446 CURVE SMOOTH"
);
},
{
closed = 1;
nodes = (
"746 446 OFFCURVE",
"792 411 OFFCURVE",
"792 343 CURVE SMOOTH",
"792 335 OFFCURVE",
"792 327 OFFCURVE",
"789 307 CURVE",
"527 307 LINE",
"550 400 OFFCURVE",
"607 446 OFFCURVE",
"683 446 CURVE SMOOTH"
);
}
);
};
layerId = UUID0;
name = "Regular Italic";
paths = (
{
closed = 1;
nodes = (
"691 521 LINE SMOOTH",
"606 521 OFFCURVE",
"541 488 OFFCURVE",
"496 436 CURVE",
"461 493 OFFCURVE",
"397 521 OFFCURVE",
"320 521 CURVE SMOOTH",
"109 521 OFFCURVE",
"41 351 OFFCURVE",
"41 187 CURVE SMOOTH",
"41 54 OFFCURVE",
"129 -10 OFFCURVE",
"245 -10 CURVE SMOOTH",
"338 -10 OFFCURVE",
"404 23 OFFCURVE",
"448 75 CURVE",
"481 19 OFFCURVE",
"540 -10 OFFCURVE",
"619 -10 CURVE SMOOTH",
"623 -10 LINE SMOOTH",
"760 -10 OFFCURVE",
"848 66 OFFCURVE",
"865 190 CURVE",
"776 190 LINE",
"770 157 OFFCURVE",
"746 65 OFFCURVE",
"633 65 CURVE SMOOTH",
"545 65 OFFCURVE",
"512 123 OFFCURVE",
"512 202 CURVE SMOOTH",
"512 213 OFFCURVE",
"513 223 OFFCURVE",
"514 234 CURVE",
"871 234 LINE",
"881 294 OFFCURVE",
"884 321 OFFCURVE",
"884 333 CURVE SMOOTH",
"884 344 LINE SMOOTH",
"884 455 OFFCURVE",
"811 521 OFFCURVE",
"698 521 CURVE SMOOTH"
);
},
{
closed = 1;
nodes = (
"377 446 OFFCURVE",
"428 406 OFFCURVE",
"428 310 CURVE SMOOTH",
"428 201 OFFCURVE",
"387 65 OFFCURVE",
"256 65 CURVE SMOOTH",
"188 65 OFFCURVE",
"136 105 OFFCURVE",
"136 200 CURVE",
"144 309 OFFCURVE",
"172 446 OFFCURVE",
"309 446 CURVE SMOOTH"
);
},
{
closed = 1;
nodes = (
"746 446 OFFCURVE",
"792 411 OFFCURVE",
"792 343 CURVE SMOOTH",
"792 335 OFFCURVE",
"792 327 OFFCURVE",
"789 307 CURVE",
"527 307 LINE",
"550 400 OFFCURVE",
"607 446 OFFCURVE",
"683 446 CURVE SMOOTH"
);
}
);
width = 933;
}
);
leftKerningGroup = c;
rightKerningGroup = e;
unicode = 0153;
},
{
glyphname = p;
lastChange = "2014-09-05 18:36:11 -0800";
layers = (
{
background = {
paths = (
{
closed = 1;
nodes = (
"285 521 OFFCURVE",
"231 492 OFFCURVE",
"188 441 CURVE",
"188 511 LINE",
"114 511 LINE",
"17 -181 LINE",
"111 -181 LINE",
"146 65 LINE",
"170 21 OFFCURVE",
"217 -10 OFFCURVE",
"289 -10 CURVE SMOOTH",
"469 -10 OFFCURVE",
"531 181 OFFCURVE",
"531 320 CURVE SMOOTH",
"531 459 OFFCURVE",
"456 521 OFFCURVE",
"357 521 CURVE SMOOTH"
);
},
{
closed = 1;
nodes = (
"394 446 OFFCURVE",
"438 414 OFFCURVE",
"438 317 CURVE SMOOTH",
"438 210 OFFCURVE",
"409 65 OFFCURVE",
"276 65 CURVE SMOOTH",
"209 65 OFFCURVE",
"167 97 OFFCURVE",
"167 193 CURVE SMOOTH",
"167 388 OFFCURVE",
"248 446 OFFCURVE",
"329 446 CURVE SMOOTH"
);
}
);
};
layerId = UUID0;
name = "Regular Italic";
paths = (
{
closed = 1;
nodes = (
"285 521 OFFCURVE",
"231 492 OFFCURVE",
"188 441 CURVE",
"188 511 LINE",
"114 511 LINE",
"17 -181 LINE",
"111 -181 LINE",
"146 65 LINE",
"170 21 OFFCURVE",
"217 -10 OFFCURVE",
"289 -10 CURVE SMOOTH",
"469 -10 OFFCURVE",
"531 181 OFFCURVE",
"531 320 CURVE SMOOTH",
"531 459 OFFCURVE",
"456 521 OFFCURVE",
"357 521 CURVE SMOOTH"
);
},
{
closed = 1;
nodes = (
"394 446 OFFCURVE",
"438 414 OFFCURVE",
"438 317 CURVE SMOOTH",
"438 210 OFFCURVE",
"409 65 OFFCURVE",
"276 65 CURVE SMOOTH",
"209 65 OFFCURVE",
"167 97 OFFCURVE",
"167 193 CURVE SMOOTH",
"167 388 OFFCURVE",
"248 446 OFFCURVE",
"329 446 CURVE SMOOTH"
);
}
);
width = 583;
}
);
leftKerningGroup = m;
rightKerningGroup = b;
unicode = 0070;
},
{
glyphname = thorn;
lastChange = "2014-09-05 18:36:11 -0800";
layers = (
{
background = {
paths = (
{
closed = 1;
nodes = (
"144 720 LINE",
"17 -181 LINE",
"111 -181 LINE",
"146 65 LINE",
"170 21 OFFCURVE",
"217 -10 OFFCURVE",
"289 -10 CURVE SMOOTH",
"469 -10 OFFCURVE",
"531 184 OFFCURVE",
"531 320 CURVE SMOOTH",
"531 459 OFFCURVE",
"456 521 OFFCURVE",
"357 521 CURVE SMOOTH",
"293 521 OFFCURVE",
"241 498 OFFCURVE",
"201 455 CURVE",
"238 720 LINE"
);
},
{
closed = 1;
nodes = (
"394 446 OFFCURVE",
"438 414 OFFCURVE",
"438 317 CURVE SMOOTH",
"438 210 OFFCURVE",
"402 65 OFFCURVE",
"276 65 CURVE SMOOTH",
"209 65 OFFCURVE",
"167 97 OFFCURVE",
"167 193 CURVE SMOOTH",
"167 376 OFFCURVE",
"241 446 OFFCURVE",
"329 446 CURVE SMOOTH"
);
}
);
};
layerId = UUID0;
name = "Regular Italic";
paths = (
{
closed = 1;
nodes = (
"144 720 LINE",
"17 -181 LINE",
"111 -181 LINE",
"146 65 LINE",
"170 21 OFFCURVE",
"217 -10 OFFCURVE",
"289 -10 CURVE SMOOTH",
"469 -10 OFFCURVE",
"531 184 OFFCURVE",
"531 320 CURVE SMOOTH",
"531 459 OFFCURVE",
"456 521 OFFCURVE",
"357 521 CURVE SMOOTH",
"293 521 OFFCURVE",
"241 498 OFFCURVE",
"201 455 CURVE",
"238 720 LINE"
);
},
{
closed = 1;
nodes = (
"394 446 OFFCURVE",
"438 414 OFFCURVE",
"438 317 CURVE SMOOTH",
"438 210 OFFCURVE",
"402 65 OFFCURVE",
"276 65 CURVE SMOOTH",
"209 65 OFFCURVE",
"167 97 OFFCURVE",
"167 193 CURVE SMOOTH",
"167 376 OFFCURVE",
"241 446 OFFCURVE",
"329 446 CURVE SMOOTH"
);
}
);
width = 582;
}
);
leftKerningGroup = b;
rightKerningGroup = b;
unicode = 00FE;
},
{
glyphname = q;
lastChange = "2014-09-05 18:36:11 -0800";
layers = (
{
background = {
paths = (
{
closed = 1;
nodes = (
"104 521 OFFCURVE",
"40 328 OFFCURVE",
"40 185 CURVE SMOOTH",
"40 57 OFFCURVE",
"113 -10 OFFCURVE",
"209 -10 CURVE SMOOTH",
"281 -10 OFFCURVE",
"339 24 OFFCURVE",
"374 65 CURVE",
"339 -180 LINE",
"433 -180 LINE",
"530 511 LINE",
"494 511 LINE",
"450 430 LINE",
"419 491 OFFCURVE",
"366 521 OFFCURVE",
"291 521 CURVE SMOOTH"
);
},
{
closed = 1;
nodes = (
"363 446 OFFCURVE",
"407 414 OFFCURVE",
"407 317 CURVE SMOOTH",
"407 210 OFFCURVE",
"374 65 OFFCURVE",
"245 65 CURVE SMOOTH",
"178 65 OFFCURVE",
"136 97 OFFCURVE",
"136 193 CURVE SMOOTH",
"136 364 OFFCURVE",
"203 446 OFFCURVE",
"298 446 CURVE SMOOTH"
);
}
);
};
layerId = UUID0;
name = "Regular Italic";
paths = (
{
closed = 1;
nodes = (
"104 521 OFFCURVE",
"40 328 OFFCURVE",
"40 185 CURVE SMOOTH",
"40 57 OFFCURVE",
"113 -10 OFFCURVE",
"209 -10 CURVE SMOOTH",
"281 -10 OFFCURVE",
"339 24 OFFCURVE",
"374 65 CURVE",
"339 -180 LINE",
"433 -180 LINE",
"530 511 LINE",
"494 511 LINE",
"450 430 LINE",
"419 491 OFFCURVE",
"366 521 OFFCURVE",
"291 521 CURVE SMOOTH"
);
},
{
closed = 1;
nodes = (
"363 446 OFFCURVE",
"407 414 OFFCURVE",
"407 317 CURVE SMOOTH",
"407 210 OFFCURVE",
"374 65 OFFCURVE",
"245 65 CURVE SMOOTH",
"178 65 OFFCURVE",
"136 97 OFFCURVE",
"136 193 CURVE SMOOTH",
"136 364 OFFCURVE",
"203 446 OFFCURVE",
"298 446 CURVE SMOOTH"
);
}
);
width = 582;
}
);
leftKerningGroup = d;
unicode = 0071;
},
{
glyphname = r;
lastChange = "2014-09-05 19:05:15 -0800";
layers = (
{
anchors = (
{
name = bottom;
position = "{89, 0}";
},
{
name = top;
position = "{185, 511}";
}
);
background = {
anchors = (
{
name = top;
position = "{245, 511}";
},
{
name = bottom;
position = "{245, 0}";
}
);
paths = (
{
closed = 1;
nodes = (
"232 521 OFFCURVE",
"187 443 OFFCURVE",
"184 435 CURVE",
"184 511 LINE",
"114 511 LINE",
"42 0 LINE",
"136 0 LINE",
"179 305 LINE SMOOTH",
"188 369 OFFCURVE",
"223 446 OFFCURVE",
"301 446 CURVE SMOOTH",
"363 446 OFFCURVE",
"386 395 OFFCURVE",
"386 358 CURVE SMOOTH",
"386 353 OFFCURVE",
"386 350 OFFCURVE",
"382 323 CURVE",
"465 323 LINE",
"468 328 OFFCURVE",
"476 368 OFFCURVE",
"476 389 CURVE SMOOTH",
"476 465 OFFCURVE",
"432 521 OFFCURVE",
"348 521 CURVE SMOOTH"
);
}
);
};
layerId = UUID0;
name = "Regular Italic";
paths = (
{
closed = 1;
nodes = (
"232 521 OFFCURVE",
"187 443 OFFCURVE",
"184 435 CURVE",
"184 511 LINE",
"114 511 LINE",
"42 0 LINE",
"136 0 LINE",
"179 305 LINE SMOOTH",
"188 369 OFFCURVE",
"223 446 OFFCURVE",
"301 446 CURVE SMOOTH",
"363 446 OFFCURVE",
"386 395 OFFCURVE",
"386 358 CURVE SMOOTH",
"386 353 OFFCURVE",
"386 350 OFFCURVE",
"382 323 CURVE",
"465 323 LINE",
"468 328 OFFCURVE",
"476 368 OFFCURVE",
"476 389 CURVE SMOOTH",
"476 465 OFFCURVE",
"432 521 OFFCURVE",
"348 521 CURVE SMOOTH"
);
}
);
width = 489;
}
);
leftKerningGroup = m;
unicode = 0072;
},
{
glyphname = s;
lastChange = "2014-09-05 19:05:18 -0800";
layers = (
{
anchors = (
{
name = bottom;
position = "{268, 0}";
},
{
name = top;
position = "{278, 511}";
}
);
background = {
anchors = (
{
name = top;
position = "{268, 511}";
},
{
name = bottom;
position = "{268, 0}";
}
);
paths = (
{
closed = 1;
nodes = (
"302 521 LINE SMOOTH",
"153 521 OFFCURVE",
"69 458 OFFCURVE",
"69 355 CURVE SMOOTH",
"69 180 OFFCURVE",
"371 261 OFFCURVE",
"371 147 CURVE SMOOTH",
"371 93 OFFCURVE",
"311 65 OFFCURVE",
"239 65 CURVE SMOOTH",
"171 65 OFFCURVE",
"119 86 OFFCURVE",
"119 137 CURVE SMOOTH",
"119 144 LINE SMOOTH",
"119 147 OFFCURVE",
"120 152 OFFCURVE",
"121 160 CURVE",
"28 160 LINE",
"28 157 OFFCURVE",
"23 144 OFFCURVE",
"23 121 CURVE SMOOTH",
"23 53 OFFCURVE",
"79 -10 OFFCURVE",
"211 -10 CURVE SMOOTH",
"226 -10 LINE SMOOTH",
"359 -10 OFFCURVE",
"468 35 OFFCURVE",
"468 168 CURVE SMOOTH",
"468 343 OFFCURVE",
"166 269 OFFCURVE",
"166 371 CURVE SMOOTH",
"166 398 OFFCURVE",
"186 446 OFFCURVE",
"288 446 CURVE SMOOTH",
"367 446 OFFCURVE",
"392 416 OFFCURVE",
"392 383 CURVE SMOOTH",
"392 378 OFFCURVE",
"390 370 OFFCURVE",
"390 364 CURVE",
"483 364 LINE",
"486 373 OFFCURVE",
"487 387 OFFCURVE",
"487 398 CURVE SMOOTH",
"487 466 OFFCURVE",
"423 521 OFFCURVE",
"311 521 CURVE SMOOTH"
);
}
);
};
layerId = UUID0;
name = "Regular Italic";
paths = (
{
closed = 1;
nodes = (
"302 521 LINE SMOOTH",
"153 521 OFFCURVE",
"69 458 OFFCURVE",
"69 355 CURVE SMOOTH",
"69 180 OFFCURVE",
"371 261 OFFCURVE",
"371 147 CURVE SMOOTH",
"371 93 OFFCURVE",
"311 65 OFFCURVE",
"239 65 CURVE SMOOTH",
"171 65 OFFCURVE",
"119 86 OFFCURVE",
"119 137 CURVE SMOOTH",
"119 144 LINE SMOOTH",
"119 147 OFFCURVE",
"120 152 OFFCURVE",
"121 160 CURVE",
"28 160 LINE",
"28 157 OFFCURVE",
"23 144 OFFCURVE",
"23 121 CURVE SMOOTH",
"23 53 OFFCURVE",
"79 -10 OFFCURVE",
"211 -10 CURVE SMOOTH",
"226 -10 LINE SMOOTH",
"359 -10 OFFCURVE",
"468 35 OFFCURVE",
"468 168 CURVE SMOOTH",
"468 343 OFFCURVE",
"166 269 OFFCURVE",
"166 371 CURVE SMOOTH",
"166 398 OFFCURVE",
"186 446 OFFCURVE",
"288 446 CURVE SMOOTH",
"367 446 OFFCURVE",
"392 416 OFFCURVE",
"392 383 CURVE SMOOTH",
"392 378 OFFCURVE",
"390 370 OFFCURVE",
"390 364 CURVE",
"483 364 LINE",
"486 373 OFFCURVE",
"487 387 OFFCURVE",
"487 398 CURVE SMOOTH",
"487 466 OFFCURVE",
"423 521 OFFCURVE",
"311 521 CURVE SMOOTH"
);
}
);
width = 536;
}
);
leftKerningGroup = s;
rightKerningGroup = s;
unicode = 0073;
},
{
glyphname = scaron;
lastChange = "2014-09-05 18:36:11 -0800";
layers = (
{
background = {
paths = (
{
closed = 1;
nodes = (
"302 521 LINE SMOOTH",
"153 521 OFFCURVE",
"69 458 OFFCURVE",
"69 355 CURVE SMOOTH",
"69 180 OFFCURVE",
"371 261 OFFCURVE",
"371 147 CURVE SMOOTH",
"371 93 OFFCURVE",
"311 65 OFFCURVE",
"239 65 CURVE SMOOTH",
"171 65 OFFCURVE",
"119 86 OFFCURVE",
"119 137 CURVE SMOOTH",
"119 144 LINE SMOOTH",
"119 147 OFFCURVE",
"120 153 OFFCURVE",
"121 160 CURVE",
"28 160 LINE",
"28 157 OFFCURVE",
"23 144 OFFCURVE",
"23 121 CURVE SMOOTH",
"23 53 OFFCURVE",
"79 -10 OFFCURVE",
"211 -10 CURVE SMOOTH",
"226 -10 LINE SMOOTH",
"359 -10 OFFCURVE",
"468 35 OFFCURVE",
"468 168 CURVE SMOOTH",
"468 343 OFFCURVE",
"166 269 OFFCURVE",
"166 371 CURVE SMOOTH",
"166 398 OFFCURVE",
"186 446 OFFCURVE",
"288 446 CURVE SMOOTH",
"367 446 OFFCURVE",
"392 416 OFFCURVE",
"392 383 CURVE SMOOTH",
"392 378 OFFCURVE",
"390 370 OFFCURVE",
"390 364 CURVE",
"483 364 LINE",
"486 373 OFFCURVE",
"487 387 OFFCURVE",
"487 398 CURVE SMOOTH",
"487 466 OFFCURVE",
"423 521 OFFCURVE",
"311 521 CURVE SMOOTH"
);
},
{
closed = 1;
nodes = (
"422 720 LINE",
"315 631 LINE",
"233 720 LINE",
"153 720 LINE",
"268 575 LINE",
"346 575 LINE",
"502 720 LINE"
);
}
);
};
layerId = UUID0;
name = "Regular Italic";
paths = (
{
closed = 1;
nodes = (
"302 521 LINE SMOOTH",
"153 521 OFFCURVE",
"69 458 OFFCURVE",
"69 355 CURVE SMOOTH",
"69 180 OFFCURVE",
"371 261 OFFCURVE",
"371 147 CURVE SMOOTH",
"371 93 OFFCURVE",
"311 65 OFFCURVE",
"239 65 CURVE SMOOTH",
"171 65 OFFCURVE",
"119 86 OFFCURVE",
"119 137 CURVE SMOOTH",
"119 144 LINE SMOOTH",
"119 147 OFFCURVE",
"120 153 OFFCURVE",
"121 160 CURVE",
"28 160 LINE",
"28 157 OFFCURVE",
"23 144 OFFCURVE",
"23 121 CURVE SMOOTH",
"23 53 OFFCURVE",
"79 -10 OFFCURVE",
"211 -10 CURVE SMOOTH",
"226 -10 LINE SMOOTH",
"359 -10 OFFCURVE",
"468 35 OFFCURVE",
"468 168 CURVE SMOOTH",
"468 343 OFFCURVE",
"166 269 OFFCURVE",
"166 371 CURVE SMOOTH",
"166 398 OFFCURVE",
"186 446 OFFCURVE",
"288 446 CURVE SMOOTH",
"367 446 OFFCURVE",
"392 416 OFFCURVE",
"392 383 CURVE SMOOTH",
"392 378 OFFCURVE",
"390 370 OFFCURVE",
"390 364 CURVE",
"483 364 LINE",
"486 373 OFFCURVE",
"487 387 OFFCURVE",
"487 398 CURVE SMOOTH",
"487 466 OFFCURVE",
"423 521 OFFCURVE",
"311 521 CURVE SMOOTH"
);
},
{
closed = 1;
nodes = (
"422 720 LINE",
"315 631 LINE",
"233 720 LINE",
"153 720 LINE",
"268 575 LINE",
"346 575 LINE",
"502 720 LINE"
);
}
);
width = 536;
}
);
leftKerningGroup = s;
rightKerningGroup = s;
unicode = 0161;
},
{
glyphname = germandbls;
lastChange = "2014-09-05 18:36:11 -0800";
layers = (
{
background = {
paths = (
{
closed = 1;
nodes = (
"251 728 OFFCURVE",
"156 647 OFFCURVE",
"135 511 CURVE",
"77 511 LINE",
"66 436 LINE",
"124 436 LINE",
"54 -66 LINE",
"148 -66 LINE",
"229 513 LINE SMOOTH",
"241 597 OFFCURVE",
"300 653 OFFCURVE",
"382 653 CURVE SMOOTH",
"446 653 OFFCURVE",
"483 617 OFFCURVE",
"483 557 CURVE SMOOTH",
"483 484 OFFCURVE",
"419 420 OFFCURVE",
"342 420 CURVE SMOOTH",
"277 420 LINE",
"267 346 LINE",
"340 346 LINE SMOOTH",
"411 346 OFFCURVE",
"461 296 OFFCURVE",
"461 232 CURVE SMOOTH",
"461 145 OFFCURVE",
"384 75 OFFCURVE",
"302 75 CURVE SMOOTH",
"229 75 LINE",
"218 0 LINE",
"301 0 LINE SMOOTH",
"437 0 OFFCURVE",
"555 91 OFFCURVE",
"555 235 CURVE SMOOTH",
"555 303 OFFCURVE",
"517 364 OFFCURVE",
"457 387 CURVE",
"456 391 LINE",
"528 418 OFFCURVE",
"579 482 OFFCURVE",
"579 571 CURVE SMOOTH",
"579 670 OFFCURVE",
"497 728 OFFCURVE",
"392 728 CURVE SMOOTH"
);
}
);
};
layerId = UUID0;
name = "Regular Italic";
paths = (
{
closed = 1;
nodes = (
"251 728 OFFCURVE",
"156 647 OFFCURVE",
"135 511 CURVE",
"77 511 LINE",
"66 436 LINE",
"124 436 LINE",
"54 -66 LINE",
"148 -66 LINE",
"229 513 LINE SMOOTH",
"241 597 OFFCURVE",
"300 653 OFFCURVE",
"382 653 CURVE SMOOTH",
"446 653 OFFCURVE",
"483 617 OFFCURVE",
"483 557 CURVE SMOOTH",
"483 484 OFFCURVE",
"419 420 OFFCURVE",
"342 420 CURVE SMOOTH",
"277 420 LINE",
"267 346 LINE",
"340 346 LINE SMOOTH",
"411 346 OFFCURVE",
"461 296 OFFCURVE",
"461 232 CURVE SMOOTH",
"461 145 OFFCURVE",
"384 75 OFFCURVE",
"302 75 CURVE SMOOTH",
"229 75 LINE",
"218 0 LINE",
"301 0 LINE SMOOTH",
"437 0 OFFCURVE",
"555 91 OFFCURVE",
"555 235 CURVE SMOOTH",
"555 303 OFFCURVE",
"517 364 OFFCURVE",
"457 387 CURVE",
"456 391 LINE",
"528 418 OFFCURVE",
"579 482 OFFCURVE",
"579 571 CURVE SMOOTH",
"579 670 OFFCURVE",
"497 728 OFFCURVE",
"392 728 CURVE SMOOTH"
);
}
);
width = 614;
}
);
leftKerningGroup = f;
unicode = 00DF;
},
{
glyphname = t;
lastChange = "2014-09-09 03:37:02 -0800";
layers = (
{
anchors = (
{
name = bottom;
position = "{172, 0}";
},
{
name = center;
position = "{138, 256}";
},
{
name = topright;
position = "{430, 686}";
}
);
background = {
anchors = (
{
name = center;
position = "{172, 256}";
},
{
name = bottom;
position = "{172, 0}";
},
{
name = topright;
position = "{360, 511}";
}
);
paths = (
{
closed = 1;
nodes = (
"150 674 LINE",
"128 511 LINE",
"73 511 LINE",
"62 436 LINE",
"118 436 LINE",
"109 379 OFFCURVE",
"101 328 OFFCURVE",
"95 281 CURVE SMOOTH",
"87 221 LINE SMOOTH",
"79 162 OFFCURVE",
"73 109 OFFCURVE",
"73 93 CURVE SMOOTH",
"73 20 OFFCURVE",
"108 -10 OFFCURVE",
"183 -10 CURVE SMOOTH",
"212 -10 OFFCURVE",
"248 -3 OFFCURVE",
"271 8 CURVE",
"281 78 LINE",
"264 71 OFFCURVE",
"232 63 OFFCURVE",
"217 63 CURVE SMOOTH",
"193 63 OFFCURVE",
"167 69 OFFCURVE",
"167 112 CURVE SMOOTH",
"167 120 OFFCURVE",
"173 169 OFFCURVE",
"181 225 CURVE SMOOTH",
"189 283 LINE SMOOTH",
"195 329 OFFCURVE",
"203 380 OFFCURVE",
"212 436 CURVE",
"331 436 LINE",
"342 511 LINE",
"223 511 LINE",
"253 674 LINE"
);
}
);
};
layerId = UUID0;
name = "Regular Italic";
paths = (
{
closed = 1;
nodes = (
"150 674 LINE",
"128 511 LINE",
"73 511 LINE",
"62 436 LINE",
"118 436 LINE",
"109 379 OFFCURVE",
"101 328 OFFCURVE",
"95 281 CURVE SMOOTH",
"87 221 LINE SMOOTH",
"79 162 OFFCURVE",
"73 109 OFFCURVE",
"73 93 CURVE SMOOTH",
"73 20 OFFCURVE",
"108 -10 OFFCURVE",
"183 -10 CURVE SMOOTH",
"212 -10 OFFCURVE",
"248 -3 OFFCURVE",
"271 8 CURVE",
"281 78 LINE",
"264 71 OFFCURVE",
"232 63 OFFCURVE",
"217 63 CURVE SMOOTH",
"193 63 OFFCURVE",
"167 69 OFFCURVE",
"167 112 CURVE SMOOTH",
"167 120 OFFCURVE",
"173 169 OFFCURVE",
"181 225 CURVE SMOOTH",
"189 283 LINE SMOOTH",
"195 329 OFFCURVE",
"203 380 OFFCURVE",
"212 436 CURVE",
"331 436 LINE",
"342 511 LINE",
"223 511 LINE",
"253 674 LINE"
);
}
);
width = 344;
}
);
unicode = 0074;
},
{
glyphname = u;
lastChange = "2014-09-05 19:05:25 -0800";
layers = (
{
anchors = (
{
name = ogonek;
position = "{525, 10}";
},
{
name = top;
position = "{349, 511}";
}
);
background = {
anchors = (
{
name = ogonek;
position = "{555, 10}";
},
{
name = top;
position = "{309, 511}";
}
);
paths = (
{
closed = 1;
nodes = (
"447 511 LINE",
"404 207 LINE",
"391 127 OFFCURVE",
"318 65 OFFCURVE",
"248 65 CURVE SMOOTH",
"192 65 OFFCURVE",
"155 90 OFFCURVE",
"155 155 CURVE",
"154 172 OFFCURVE",
"166 261 OFFCURVE",
"179 346 CURVE SMOOTH",
"203 511 LINE",
"109 511 LINE",
"83 337 OFFCURVE",
"58 165 OFFCURVE",
"58 131 CURVE SMOOTH",
"58 32 OFFCURVE",
"125 -10 OFFCURVE",
"217 -10 CURVE SMOOTH",
"290 -10 OFFCURVE",
"354 32 OFFCURVE",
"391 74 CURVE",
"391 64 LINE SMOOTH",
"391 24 OFFCURVE",
"408 -10 OFFCURVE",
"467 -10 CURVE SMOOTH",
"503 -10 OFFCURVE",
"531 2 OFFCURVE",
"544 10 CURVE",
"553 79 LINE",
"542 72 OFFCURVE",
"521 65 OFFCURVE",
"506 65 CURVE SMOOTH",
"493 65 OFFCURVE",
"482 73 OFFCURVE",
"482 92 CURVE",
"481 95 OFFCURVE",
"496 200 OFFCURVE",
"511 304 CURVE SMOOTH",
"541 511 LINE"
);
}
);
};
layerId = UUID0;
name = "Regular Italic";
paths = (
{
closed = 1;
nodes = (
"447 511 LINE",
"404 207 LINE",
"391 127 OFFCURVE",
"318 65 OFFCURVE",
"248 65 CURVE SMOOTH",
"192 65 OFFCURVE",
"155 90 OFFCURVE",
"155 155 CURVE",
"154 172 OFFCURVE",
"166 261 OFFCURVE",
"179 346 CURVE SMOOTH",
"203 511 LINE",
"109 511 LINE",
"83 337 OFFCURVE",
"58 165 OFFCURVE",
"58 131 CURVE SMOOTH",
"58 32 OFFCURVE",
"125 -10 OFFCURVE",
"217 -10 CURVE SMOOTH",
"290 -10 OFFCURVE",
"354 32 OFFCURVE",
"391 74 CURVE",
"391 64 LINE SMOOTH",
"391 24 OFFCURVE",
"408 -10 OFFCURVE",
"467 -10 CURVE SMOOTH",
"503 -10 OFFCURVE",
"531 2 OFFCURVE",
"544 10 CURVE",
"553 79 LINE",
"542 72 OFFCURVE",
"521 65 OFFCURVE",
"506 65 CURVE SMOOTH",
"493 65 OFFCURVE",
"482 73 OFFCURVE",
"482 92 CURVE",
"481 95 OFFCURVE",
"496 200 OFFCURVE",
"511 304 CURVE SMOOTH",
"541 511 LINE"
);
}
);
width = 617;
}
);
leftKerningGroup = u;
rightKerningGroup = u;
unicode = 0075;
},
{
glyphname = uacute;
lastChange = "2014-09-05 18:36:11 -0800";
layers = (
{
background = {
paths = (
{
closed = 1;
nodes = (
"447 511 LINE",
"404 207 LINE",
"391 127 OFFCURVE",
"318 65 OFFCURVE",
"248 65 CURVE SMOOTH",
"192 65 OFFCURVE",
"155 90 OFFCURVE",
"155 155 CURVE",
"154 172 OFFCURVE",
"166 261 OFFCURVE",
"179 346 CURVE SMOOTH",
"203 511 LINE",
"109 511 LINE",
"83 337 OFFCURVE",
"58 165 OFFCURVE",
"58 131 CURVE SMOOTH",
"58 32 OFFCURVE",
"125 -10 OFFCURVE",
"217 -10 CURVE SMOOTH",
"290 -10 OFFCURVE",
"354 32 OFFCURVE",
"391 74 CURVE",
"391 64 LINE SMOOTH",
"391 24 OFFCURVE",
"408 -10 OFFCURVE",
"467 -10 CURVE SMOOTH",
"503 -10 OFFCURVE",
"531 2 OFFCURVE",
"544 10 CURVE",
"553 79 LINE",
"542 72 OFFCURVE",
"521 65 OFFCURVE",
"506 65 CURVE SMOOTH",
"493 65 OFFCURVE",
"482 73 OFFCURVE",
"482 92 CURVE",
"481 95 OFFCURVE",
"496 200 OFFCURVE",
"511 304 CURVE SMOOTH",
"541 511 LINE"
);
},
{
closed = 1;
nodes = (
"407 720 LINE",
"292 575 LINE",
"361 575 LINE",
"497 716 LINE",
"497 720 LINE"
);
}
);
};
layerId = UUID0;
name = "Regular Italic";
paths = (
{
closed = 1;
nodes = (
"447 511 LINE",
"404 207 LINE",
"391 127 OFFCURVE",
"318 65 OFFCURVE",
"248 65 CURVE SMOOTH",
"192 65 OFFCURVE",
"155 90 OFFCURVE",
"155 155 CURVE",
"154 172 OFFCURVE",
"166 261 OFFCURVE",
"179 346 CURVE SMOOTH",
"203 511 LINE",
"109 511 LINE",
"83 337 OFFCURVE",
"58 165 OFFCURVE",
"58 131 CURVE SMOOTH",
"58 32 OFFCURVE",
"125 -10 OFFCURVE",
"217 -10 CURVE SMOOTH",
"290 -10 OFFCURVE",
"354 32 OFFCURVE",
"391 74 CURVE",
"391 64 LINE SMOOTH",
"391 24 OFFCURVE",
"408 -10 OFFCURVE",
"467 -10 CURVE SMOOTH",
"503 -10 OFFCURVE",
"531 2 OFFCURVE",
"544 10 CURVE",
"553 79 LINE",
"542 72 OFFCURVE",
"521 65 OFFCURVE",
"506 65 CURVE SMOOTH",
"493 65 OFFCURVE",
"482 73 OFFCURVE",
"482 92 CURVE",
"481 95 OFFCURVE",
"496 200 OFFCURVE",
"511 304 CURVE SMOOTH",
"541 511 LINE"
);
},
{
closed = 1;
nodes = (
"407 720 LINE",
"292 575 LINE",
"361 575 LINE",
"497 716 LINE",
"497 720 LINE"
);
}
);
width = 617;
}
);
leftKerningGroup = u;
rightKerningGroup = u;
unicode = 00FA;
},
{
glyphname = ucircumflex;
lastChange = "2014-09-05 18:36:11 -0800";
layers = (
{
background = {
paths = (
{
closed = 1;
nodes = (
"447 511 LINE",
"404 207 LINE",
"391 127 OFFCURVE",
"318 65 OFFCURVE",
"248 65 CURVE SMOOTH",
"192 65 OFFCURVE",
"155 90 OFFCURVE",
"155 155 CURVE",
"154 172 OFFCURVE",
"166 261 OFFCURVE",
"179 346 CURVE SMOOTH",
"203 511 LINE",
"109 511 LINE",
"83 337 OFFCURVE",
"58 165 OFFCURVE",
"58 131 CURVE SMOOTH",
"58 32 OFFCURVE",
"125 -10 OFFCURVE",
"217 -10 CURVE SMOOTH",
"290 -10 OFFCURVE",
"354 32 OFFCURVE",
"391 74 CURVE",
"391 64 LINE SMOOTH",
"391 24 OFFCURVE",
"408 -10 OFFCURVE",
"467 -10 CURVE SMOOTH",
"503 -10 OFFCURVE",
"531 2 OFFCURVE",
"544 10 CURVE",
"553 79 LINE",
"542 72 OFFCURVE",
"521 65 OFFCURVE",
"506 65 CURVE SMOOTH",
"493 65 OFFCURVE",
"482 73 OFFCURVE",
"482 92 CURVE",
"481 95 OFFCURVE",
"496 200 OFFCURVE",
"511 304 CURVE SMOOTH",
"541 511 LINE"
);
},
{
closed = 1;
nodes = (
"315 720 LINE",
"158 575 LINE",
"238 575 LINE",
"346 664 LINE",
"427 575 LINE",
"507 575 LINE",
"393 720 LINE"
);
}
);
};
layerId = UUID0;
name = "Regular Italic";
paths = (
{
closed = 1;
nodes = (
"447 511 LINE",
"404 207 LINE",
"391 127 OFFCURVE",
"318 65 OFFCURVE",
"248 65 CURVE SMOOTH",
"192 65 OFFCURVE",
"155 90 OFFCURVE",
"155 155 CURVE",
"154 172 OFFCURVE",
"166 261 OFFCURVE",
"179 346 CURVE SMOOTH",
"203 511 LINE",
"109 511 LINE",
"83 337 OFFCURVE",
"58 165 OFFCURVE",
"58 131 CURVE SMOOTH",
"58 32 OFFCURVE",
"125 -10 OFFCURVE",
"217 -10 CURVE SMOOTH",
"290 -10 OFFCURVE",
"354 32 OFFCURVE",
"391 74 CURVE",
"391 64 LINE SMOOTH",
"391 24 OFFCURVE",
"408 -10 OFFCURVE",
"467 -10 CURVE SMOOTH",
"503 -10 OFFCURVE",
"531 2 OFFCURVE",
"544 10 CURVE",
"553 79 LINE",
"542 72 OFFCURVE",
"521 65 OFFCURVE",
"506 65 CURVE SMOOTH",
"493 65 OFFCURVE",
"482 73 OFFCURVE",
"482 92 CURVE",
"481 95 OFFCURVE",
"496 200 OFFCURVE",
"511 304 CURVE SMOOTH",
"541 511 LINE"
);
},
{
closed = 1;
nodes = (
"315 720 LINE",
"158 575 LINE",
"238 575 LINE",
"346 664 LINE",
"427 575 LINE",
"507 575 LINE",
"393 720 LINE"
);
}
);
width = 617;
}
);
leftKerningGroup = u;
rightKerningGroup = u;
unicode = 00FB;
},
{
glyphname = udieresis;
lastChange = "2014-09-05 18:36:11 -0800";
layers = (
{
background = {
paths = (
{
closed = 1;
nodes = (
"447 511 LINE",
"404 207 LINE",
"391 127 OFFCURVE",
"318 65 OFFCURVE",
"248 65 CURVE SMOOTH",
"192 65 OFFCURVE",
"155 90 OFFCURVE",
"155 155 CURVE",
"154 172 OFFCURVE",
"166 261 OFFCURVE",
"179 346 CURVE SMOOTH",
"203 511 LINE",
"109 511 LINE",
"83 337 OFFCURVE",
"58 165 OFFCURVE",
"58 131 CURVE SMOOTH",
"58 32 OFFCURVE",
"125 -10 OFFCURVE",
"217 -10 CURVE SMOOTH",
"290 -10 OFFCURVE",
"354 32 OFFCURVE",
"391 74 CURVE",
"391 64 LINE SMOOTH",
"391 24 OFFCURVE",
"408 -10 OFFCURVE",
"467 -10 CURVE SMOOTH",
"503 -10 OFFCURVE",
"531 2 OFFCURVE",
"544 10 CURVE",
"553 79 LINE",
"542 72 OFFCURVE",
"521 65 OFFCURVE",
"506 65 CURVE SMOOTH",
"493 65 OFFCURVE",
"482 73 OFFCURVE",
"482 92 CURVE",
"481 95 OFFCURVE",
"496 200 OFFCURVE",
"511 304 CURVE SMOOTH",
"541 511 LINE"
);
},
{
closed = 1;
nodes = (
"208 720 LINE",
"195 622 LINE",
"285 622 LINE",
"298 720 LINE"
);
},
{
closed = 1;
nodes = (
"396 720 LINE",
"383 622 LINE",
"474 622 LINE",
"487 720 LINE"
);
}
);
};
layerId = UUID0;
name = "Regular Italic";
paths = (
{
closed = 1;
nodes = (
"447 511 LINE",
"404 207 LINE",
"391 127 OFFCURVE",
"318 65 OFFCURVE",
"248 65 CURVE SMOOTH",
"192 65 OFFCURVE",
"155 90 OFFCURVE",
"155 155 CURVE",
"154 172 OFFCURVE",
"166 261 OFFCURVE",
"179 346 CURVE SMOOTH",
"203 511 LINE",
"109 511 LINE",
"83 337 OFFCURVE",
"58 165 OFFCURVE",
"58 131 CURVE SMOOTH",
"58 32 OFFCURVE",
"125 -10 OFFCURVE",
"217 -10 CURVE SMOOTH",
"290 -10 OFFCURVE",
"354 32 OFFCURVE",
"391 74 CURVE",
"391 64 LINE SMOOTH",
"391 24 OFFCURVE",
"408 -10 OFFCURVE",
"467 -10 CURVE SMOOTH",
"503 -10 OFFCURVE",
"531 2 OFFCURVE",
"544 10 CURVE",
"553 79 LINE",
"542 72 OFFCURVE",
"521 65 OFFCURVE",
"506 65 CURVE SMOOTH",
"493 65 OFFCURVE",
"482 73 OFFCURVE",
"482 92 CURVE",
"481 95 OFFCURVE",
"496 200 OFFCURVE",
"511 304 CURVE SMOOTH",
"541 511 LINE"
);
},
{
closed = 1;
nodes = (
"208 720 LINE",
"195 622 LINE",
"285 622 LINE",
"298 720 LINE"
);
},
{
closed = 1;
nodes = (
"396 720 LINE",
"383 622 LINE",
"474 622 LINE",
"487 720 LINE"
);
}
);
width = 617;
}
);
leftKerningGroup = u;
rightKerningGroup = u;
unicode = 00FC;
},
{
glyphname = ugrave;
lastChange = "2014-09-05 18:36:11 -0800";
layers = (
{
background = {
paths = (
{
closed = 1;
nodes = (
"447 511 LINE",
"404 207 LINE",
"391 127 OFFCURVE",
"318 65 OFFCURVE",
"248 65 CURVE SMOOTH",
"192 65 OFFCURVE",
"155 90 OFFCURVE",
"155 155 CURVE",
"154 172 OFFCURVE",
"166 261 OFFCURVE",
"179 346 CURVE SMOOTH",
"203 511 LINE",
"109 511 LINE",
"83 337 OFFCURVE",
"58 165 OFFCURVE",
"58 131 CURVE SMOOTH",
"58 32 OFFCURVE",
"125 -10 OFFCURVE",
"217 -10 CURVE SMOOTH",
"290 -10 OFFCURVE",
"354 32 OFFCURVE",
"391 74 CURVE",
"391 64 LINE SMOOTH",
"391 24 OFFCURVE",
"408 -10 OFFCURVE",
"467 -10 CURVE SMOOTH",
"503 -10 OFFCURVE",
"531 2 OFFCURVE",
"544 10 CURVE",
"553 79 LINE",
"542 72 OFFCURVE",
"521 65 OFFCURVE",
"506 65 CURVE SMOOTH",
"493 65 OFFCURVE",
"482 73 OFFCURVE",
"482 92 CURVE",
"481 95 OFFCURVE",
"496 200 OFFCURVE",
"511 304 CURVE SMOOTH",
"541 511 LINE"
);
},
{
closed = 1;
nodes = (
"205 720 LINE",
"203 717 LINE",
"298 575 LINE",
"368 575 LINE",
"294 720 LINE"
);
}
);
};
layerId = UUID0;
name = "Regular Italic";
paths = (
{
closed = 1;
nodes = (
"447 511 LINE",
"404 207 LINE",
"391 127 OFFCURVE",
"318 65 OFFCURVE",
"248 65 CURVE SMOOTH",
"192 65 OFFCURVE",
"155 90 OFFCURVE",
"155 155 CURVE",
"154 172 OFFCURVE",
"166 261 OFFCURVE",
"179 346 CURVE SMOOTH",
"203 511 LINE",
"109 511 LINE",
"83 337 OFFCURVE",
"58 165 OFFCURVE",
"58 131 CURVE SMOOTH",
"58 32 OFFCURVE",
"125 -10 OFFCURVE",
"217 -10 CURVE SMOOTH",
"290 -10 OFFCURVE",
"354 32 OFFCURVE",
"391 74 CURVE",
"391 64 LINE SMOOTH",
"391 24 OFFCURVE",
"408 -10 OFFCURVE",
"467 -10 CURVE SMOOTH",
"503 -10 OFFCURVE",
"531 2 OFFCURVE",
"544 10 CURVE",
"553 79 LINE",
"542 72 OFFCURVE",
"521 65 OFFCURVE",
"506 65 CURVE SMOOTH",
"493 65 OFFCURVE",
"482 73 OFFCURVE",
"482 92 CURVE",
"481 95 OFFCURVE",
"496 200 OFFCURVE",
"511 304 CURVE SMOOTH",
"541 511 LINE"
);
},
{
closed = 1;
nodes = (
"205 720 LINE",
"203 717 LINE",
"298 575 LINE",
"368 575 LINE",
"294 720 LINE"
);
}
);
width = 617;
}
);
leftKerningGroup = u;
rightKerningGroup = u;
unicode = 00F9;
},
{
glyphname = v;
lastChange = "2014-09-05 18:36:11 -0800";
layers = (
{
background = {
paths = (
{
closed = 1;
nodes = (
"438 511 LINE",
"237 120 LINE",
"233 120 LINE",
"142 511 LINE",
"43 511 LINE",
"165 0 LINE",
"265 0 LINE",
"530 511 LINE"
);
}
);
};
layerId = UUID0;
name = "Regular Italic";
paths = (
{
closed = 1;
nodes = (
"438 511 LINE",
"237 120 LINE",
"233 120 LINE",
"142 511 LINE",
"43 511 LINE",
"165 0 LINE",
"265 0 LINE",
"530 511 LINE"
);
}
);
width = 512;
}
);
unicode = 0076;
},
{
glyphname = w;
lastChange = "2014-09-05 19:05:30 -0800";
layers = (
{
anchors = (
{
name = top;
position = "{435, 511}";
}
);
background = {
anchors = (
{
name = top;
position = "{405, 511}";
}
);
paths = (
{
closed = 1;
nodes = (
"726 511 LINE",
"553 137 LINE",
"549 137 LINE",
"482 511 LINE",
"390 511 LINE",
"217 137 LINE",
"213 137 LINE",
"146 511 LINE",
"50 511 LINE",
"146 0 LINE",
"244 0 LINE",
"410 357 LINE",
"414 357 LINE",
"482 0 LINE",
"580 0 LINE",
"818 511 LINE"
);
}
);
};
layerId = UUID0;
name = "Regular Italic";
paths = (
{
closed = 1;
nodes = (
"726 511 LINE",
"553 137 LINE",
"549 137 LINE",
"482 511 LINE",
"390 511 LINE",
"217 137 LINE",
"213 137 LINE",
"146 511 LINE",
"50 511 LINE",
"146 0 LINE",
"244 0 LINE",
"410 357 LINE",
"414 357 LINE",
"482 0 LINE",
"580 0 LINE",
"818 511 LINE"
);
}
);
width = 809;
}
);
unicode = 0077;
},
{
glyphname = x;
lastChange = "2014-09-05 18:36:11 -0800";
layers = (
{
background = {
paths = (
{
closed = 1;
nodes = (
"418 511 LINE",
"268 337 LINE",
"169 511 LINE",
"58 511 LINE",
"200 259 LINE",
"-23 0 LINE",
"79 0 LINE",
"240 187 LINE",
"347 0 LINE",
"459 0 LINE",
"308 265 LINE",
"521 511 LINE"
);
}
);
};
layerId = UUID0;
name = "Regular Italic";
paths = (
{
closed = 1;
nodes = (
"418 511 LINE",
"268 337 LINE",
"169 511 LINE",
"58 511 LINE",
"200 259 LINE",
"-23 0 LINE",
"79 0 LINE",
"240 187 LINE",
"347 0 LINE",
"459 0 LINE",
"308 265 LINE",
"521 511 LINE"
);
}
);
width = 517;
}
);
unicode = 0078;
},
{
glyphname = y;
lastChange = "2014-09-05 19:05:33 -0800";
layers = (
{
anchors = (
{
name = top;
position = "{285, 511}";
}
);
background = {
anchors = (
{
name = top;
position = "{255, 511}";
}
);
paths = (
{
closed = 1;
nodes = (
"437 511 LINE",
"239 134 LINE",
"235 134 LINE",
"141 511 LINE",
"42 511 LINE",
"169 5 LINE",
"124 -96 OFFCURVE",
"73 -109 OFFCURVE",
"49 -109 CURVE SMOOTH",
"28 -109 OFFCURVE",
"4 -102 OFFCURVE",
"-9 -95 CURVE",
"-19 -172 LINE",
"0 -181 OFFCURVE",
"23 -186 OFFCURVE",
"52 -186 CURVE SMOOTH",
"145 -186 OFFCURVE",
"210 -92 OFFCURVE",
"269 20 CURVE SMOOTH",
"529 511 LINE"
);
}
);
};
layerId = UUID0;
name = "Regular Italic";
paths = (
{
closed = 1;
nodes = (
"437 511 LINE",
"239 134 LINE",
"235 134 LINE",
"141 511 LINE",
"42 511 LINE",
"169 5 LINE",
"124 -96 OFFCURVE",
"73 -109 OFFCURVE",
"49 -109 CURVE SMOOTH",
"28 -109 OFFCURVE",
"4 -102 OFFCURVE",
"-9 -95 CURVE",
"-19 -172 LINE",
"0 -181 OFFCURVE",
"23 -186 OFFCURVE",
"52 -186 CURVE SMOOTH",
"145 -186 OFFCURVE",
"210 -92 OFFCURVE",
"269 20 CURVE SMOOTH",
"529 511 LINE"
);
}
);
width = 510;
}
);
leftKerningGroup = y;
rightKerningGroup = y;
unicode = 0079;
},
{
glyphname = yacute;
lastChange = "2014-09-05 18:36:11 -0800";
layers = (
{
background = {
paths = (
{
closed = 1;
nodes = (
"437 511 LINE",
"239 134 LINE",
"235 134 LINE",
"141 511 LINE",
"42 511 LINE",
"169 5 LINE",
"124 -96 OFFCURVE",
"73 -109 OFFCURVE",
"49 -109 CURVE SMOOTH",
"28 -109 OFFCURVE",
"4 -102 OFFCURVE",
"-9 -95 CURVE",
"-19 -172 LINE",
"0 -181 OFFCURVE",
"23 -186 OFFCURVE",
"52 -186 CURVE SMOOTH",
"145 -186 OFFCURVE",
"210 -92 OFFCURVE",
"269 20 CURVE SMOOTH",
"529 511 LINE"
);
},
{
closed = 1;
nodes = (
"369 720 LINE",
"254 575 LINE",
"323 575 LINE",
"459 716 LINE",
"459 720 LINE"
);
}
);
};
layerId = UUID0;
name = "Regular Italic";
paths = (
{
closed = 1;
nodes = (
"437 511 LINE",
"239 134 LINE",
"235 134 LINE",
"141 511 LINE",
"42 511 LINE",
"169 5 LINE",
"124 -96 OFFCURVE",
"73 -109 OFFCURVE",
"49 -109 CURVE SMOOTH",
"28 -109 OFFCURVE",
"4 -102 OFFCURVE",
"-9 -95 CURVE",
"-19 -172 LINE",
"0 -181 OFFCURVE",
"23 -186 OFFCURVE",
"52 -186 CURVE SMOOTH",
"145 -186 OFFCURVE",
"210 -92 OFFCURVE",
"269 20 CURVE SMOOTH",
"529 511 LINE"
);
},
{
closed = 1;
nodes = (
"369 720 LINE",
"254 575 LINE",
"323 575 LINE",
"459 716 LINE",
"459 720 LINE"
);
}
);
width = 510;
}
);
leftKerningGroup = y;
rightKerningGroup = y;
unicode = 00FD;
},
{
glyphname = ydieresis;
lastChange = "2014-09-05 18:36:11 -0800";
layers = (
{
background = {
paths = (
{
closed = 1;
nodes = (
"437 511 LINE",
"239 134 LINE",
"235 134 LINE",
"141 511 LINE",
"42 511 LINE",
"169 5 LINE",
"124 -96 OFFCURVE",
"73 -109 OFFCURVE",
"49 -109 CURVE SMOOTH",
"28 -109 OFFCURVE",
"4 -102 OFFCURVE",
"-9 -95 CURVE",
"-19 -172 LINE",
"0 -181 OFFCURVE",
"23 -186 OFFCURVE",
"52 -186 CURVE SMOOTH",
"145 -186 OFFCURVE",
"210 -92 OFFCURVE",
"269 20 CURVE SMOOTH",
"529 511 LINE"
);
},
{
closed = 1;
nodes = (
"170 719 LINE",
"157 621 LINE",
"247 621 LINE",
"260 719 LINE"
);
},
{
closed = 1;
nodes = (
"358 719 LINE",
"345 621 LINE",
"436 621 LINE",
"449 719 LINE"
);
}
);
};
layerId = UUID0;
name = "Regular Italic";
paths = (
{
closed = 1;
nodes = (
"437 511 LINE",
"239 134 LINE",
"235 134 LINE",
"141 511 LINE",
"42 511 LINE",
"169 5 LINE",
"124 -96 OFFCURVE",
"73 -109 OFFCURVE",
"49 -109 CURVE SMOOTH",
"28 -109 OFFCURVE",
"4 -102 OFFCURVE",
"-9 -95 CURVE",
"-19 -172 LINE",
"0 -181 OFFCURVE",
"23 -186 OFFCURVE",
"52 -186 CURVE SMOOTH",
"145 -186 OFFCURVE",
"210 -92 OFFCURVE",
"269 20 CURVE SMOOTH",
"529 511 LINE"
);
},
{
closed = 1;
nodes = (
"170 719 LINE",
"157 621 LINE",
"247 621 LINE",
"260 719 LINE"
);
},
{
closed = 1;
nodes = (
"358 719 LINE",
"345 621 LINE",
"436 621 LINE",
"449 719 LINE"
);
}
);
width = 510;
}
);
leftKerningGroup = y;
rightKerningGroup = y;
unicode = 00FF;
},
{
glyphname = z;
lastChange = "2014-09-05 19:05:38 -0800";
layers = (
{
anchors = (
{
name = top;
position = "{262, 511}";
}
);
background = {
anchors = (
{
name = top;
position = "{232, 511}";
}
);
paths = (
{
closed = 1;
nodes = (
"82 511 LINE",
"72 436 LINE",
"306 436 LINE",
"1 38 LINE",
"-4 0 LINE",
"383 0 LINE",
"393 75 LINE",
"135 75 LINE",
"441 474 LINE",
"446 511 LINE"
);
}
);
};
layerId = UUID0;
name = "Regular Italic";
paths = (
{
closed = 1;
nodes = (
"82 511 LINE",
"72 436 LINE",
"306 436 LINE",
"1 38 LINE",
"-4 0 LINE",
"383 0 LINE",
"393 75 LINE",
"135 75 LINE",
"441 474 LINE",
"446 511 LINE"
);
}
);
width = 463;
}
);
leftKerningGroup = z;
rightKerningGroup = z;
unicode = 007A;
},
{
glyphname = zcaron;
lastChange = "2014-09-05 18:36:11 -0800";
layers = (
{
background = {
paths = (
{
closed = 1;
nodes = (
"82 511 LINE",
"72 436 LINE",
"306 436 LINE",
"1 38 LINE",
"-4 0 LINE",
"383 0 LINE",
"393 75 LINE",
"135 75 LINE",
"441 474 LINE",
"446 511 LINE"
);
},
{
closed = 1;
nodes = (
"371 720 LINE",
"264 631 LINE",
"182 720 LINE",
"102 720 LINE",
"217 575 LINE",
"295 575 LINE",
"451 720 LINE"
);
}
);
};
layerId = UUID0;
name = "Regular Italic";
paths = (
{
closed = 1;
nodes = (
"82 511 LINE",
"72 436 LINE",
"306 436 LINE",
"1 38 LINE",
"-4 0 LINE",
"383 0 LINE",
"393 75 LINE",
"135 75 LINE",
"441 474 LINE",
"446 511 LINE"
);
},
{
closed = 1;
nodes = (
"371 720 LINE",
"264 631 LINE",
"182 720 LINE",
"102 720 LINE",
"217 575 LINE",
"295 575 LINE",
"451 720 LINE"
);
}
);
width = 463;
}
);
leftKerningGroup = z;
rightKerningGroup = z;
unicode = 017E;
},
{
glyphname = fi;
lastChange = "2014-09-05 18:36:11 -0800";
layers = (
{
background = {
paths = (
{
closed = 1;
nodes = (
"214 728 OFFCURVE",
"160 691 OFFCURVE",
"147 602 CURVE SMOOTH",
"134 511 LINE",
"76 511 LINE",
"66 436 LINE",
"125 436 LINE",
"54 -46 LINE SMOOTH",
"45 -104 OFFCURVE",
"15 -110 OFFCURVE",
"-11 -110 CURVE SMOOTH",
"-26 -110 OFFCURVE",
"-57 -103 OFFCURVE",
"-72 -96 CURVE",
"-80 -165 LINE",
"-61 -177 OFFCURVE",
"-24 -184 OFFCURVE",
"4 -184 CURVE SMOOTH",
"77 -184 OFFCURVE",
"134 -147 OFFCURVE",
"147 -58 CURVE SMOOTH",
"218 436 LINE",
"338 436 LINE",
"347 511 LINE",
"227 511 LINE",
"239 590 LINE SMOOTH",
"248 648 OFFCURVE",
"276 654 OFFCURVE",
"305 654 CURVE SMOOTH",
"320 654 OFFCURVE",
"350 647 OFFCURVE",
"365 640 CURVE",
"374 709 LINE",
"354 721 OFFCURVE",
"318 728 OFFCURVE",
"290 728 CURVE SMOOTH"
);
},
{
closed = 1;
nodes = (
"458 511 LINE",
"386 0 LINE",
"480 0 LINE",
"552 511 LINE"
);
},
{
closed = 1;
nodes = (
"485 720 LINE",
"473 633 LINE",
"571 633 LINE",
"583 720 LINE"
);
}
);
};
layerId = UUID0;
name = "Regular Italic";
paths = (
{
closed = 1;
nodes = (
"214 728 OFFCURVE",
"160 691 OFFCURVE",
"147 602 CURVE SMOOTH",
"134 511 LINE",
"76 511 LINE",
"66 436 LINE",
"125 436 LINE",
"54 -46 LINE SMOOTH",
"45 -104 OFFCURVE",
"15 -110 OFFCURVE",
"-11 -110 CURVE SMOOTH",
"-26 -110 OFFCURVE",
"-57 -103 OFFCURVE",
"-72 -96 CURVE",
"-80 -165 LINE",
"-61 -177 OFFCURVE",
"-24 -184 OFFCURVE",
"4 -184 CURVE SMOOTH",
"77 -184 OFFCURVE",
"134 -147 OFFCURVE",
"147 -58 CURVE SMOOTH",
"218 436 LINE",
"338 436 LINE",
"347 511 LINE",
"227 511 LINE",
"239 590 LINE SMOOTH",
"248 648 OFFCURVE",
"276 654 OFFCURVE",
"305 654 CURVE SMOOTH",
"320 654 OFFCURVE",
"350 647 OFFCURVE",
"365 640 CURVE",
"374 709 LINE",
"354 721 OFFCURVE",
"318 728 OFFCURVE",
"290 728 CURVE SMOOTH"
);
},
{
closed = 1;
nodes = (
"458 511 LINE",
"386 0 LINE",
"480 0 LINE",
"552 511 LINE"
);
},
{
closed = 1;
nodes = (
"485 720 LINE",
"473 633 LINE",
"571 633 LINE",
"583 720 LINE"
);
}
);
width = 602;
}
);
unicode = FB01;
},
